<svg xmlns="http://www.w3.org/2000/svg" width="512" height="512" viewBox="0 0 135.467 135.467" xmlns:v="https://vecta.io/nano"><defs><clipPath id="A"><path d="M410.739 1847.95h25.275v-25.27h-25.275z"/></clipPath></defs><path d="M115.387 67.592c0 26.228-21.479 47.489-47.974 47.489S19.438 93.82 19.438 67.592s21.48-47.489 47.976-47.489 47.974 21.262 47.974 47.489" fill="#fc0"/><g clip-path="url(#A)" opacity=".5" transform="matrix(3.4267 0 0 -3.3921 -1378.7193 6288.5466)"><path d="M422.014 1847.95c-4.632 0-8.727-2.259-11.275-5.725 2.32 1.705 5.175 2.725 8.275 2.725 7.732 0 14-6.268 14-14 0-3.1-1.02-5.955-2.725-8.275 3.466 2.548 5.725 6.643 5.725 11.275 0 7.732-6.268 14-14 14" fill="#fff"/></g></svg>