<svg xmlns="http://www.w3.org/2000/svg" width="512" height="512" viewBox="0 0 135.467 135.467" xmlns:v="https://vecta.io/nano"><style><![CDATA[.B{stroke-linejoin:round}.C{stroke-miterlimit:10}.D{stroke-width:4.314}.E{stroke-linecap:round}]]></style><defs><clipPath id="A"><path d="M410.739 1847.95h25.275v-25.27h-25.275z"/></clipPath></defs><path d="M98.125 67.641c0 16.594-13.589 30.045-30.352 30.045S37.42 84.235 37.42 67.641 51.01 37.596 67.773 37.596s30.352 13.452 30.352 30.045" fill="#fc0"/><g clip-path="url(#A)" opacity=".5" transform="matrix(2.168012 0 0 -2.146099 -847.1582 4003.4801)"><path d="M422.014 1847.95c-4.632 0-8.727-2.259-11.275-5.725 2.32 1.705 5.175 2.725 8.275 2.725 7.732 0 14-6.268 14-14 0-3.1-1.02-5.955-2.725-8.275 3.466 2.548 5.725 6.643 5.725 11.275 0 7.732-6.268 14-14 14" fill="#fff"/></g><g fill="none" stroke="#fff" class="B C D"><path d="M98.125 67.641c0 11.046-6.022 20.7-14.994 25.921-4.505 2.622-9.755 4.125-15.359 4.125-16.763 0-30.352-13.452-30.352-30.045S51.01 37.596 67.773 37.596s30.352 13.452 30.352 30.045z"/><path d="M67.743 3.237v17.164m0 94.438v17.162m65.04-64.383h-17.34m-95.401 0H2.703m19.05-45.525l12.258 12.138m67.459 66.776l12.262 12.138" class="E"/></g><path d="M113.733 22.093L101.47 34.23" fill="#fff" stroke="#fff" class="B C D E"/><path d="M34.012 101.007l-12.262 12.138" fill="none" stroke="#fff" class="B C D E"/></svg>