<svg xmlns="http://www.w3.org/2000/svg" width="512" height="512" viewBox="0 0 135.467 135.467" xmlns:v="https://vecta.io/nano"><defs><clipPath id="A"><path d="M648.391 1711.63H708v-35.52h-59.609z"/></clipPath></defs><path d="M70.199 20.274c3.012 5.584 4.725 11.975 4.725 18.768 0 21.876-17.733 39.607-39.607 39.607-6.017 0-11.7-1.382-16.807-3.783 3.523 22.772 23.151 40.223 46.909 40.223 26.25 0 47.528-21.278 47.528-47.528 0-24.635-18.745-44.888-42.749-47.285" fill="#e6f0fa"/><g clip-path="url(#A)" opacity=".15" transform="matrix(1.5843 0 0 -1.5843 -1008.7147 2770.5021)"><path d="M678 1687.113c-10.077 0-18.971 4.978-24.401 12.603a25.13 25.13 0 0 0-5.208 1.786c2.223-14.374 14.613-25.389 29.609-25.389 16.568 0 30 13.431 30 30 0 1.884-.177 3.727-.509 5.514-2.579-13.948-14.797-24.514-29.491-24.514" fill="#000064"/></g></svg>