<svg xmlns="http://www.w3.org/2000/svg" width="512" height="512" viewBox="0 0 135.467 135.467" xmlns:v="https://vecta.io/nano"><defs><clipPath id="A"><path d="M648.391 1711.63H708v-35.52h-59.609z"/></clipPath></defs><path d="M72.12 20.267c2.967 5.501 4.655 11.797 4.655 18.488 0 21.55-17.469 39.017-39.017 39.017-5.927 0-11.526-1.361-16.557-3.727 3.471 22.433 22.806 39.624 46.21 39.624 25.859 0 46.82-20.961 46.82-46.82 0-24.268-18.466-44.219-42.112-46.581" fill="#e6f0fa"/><g clip-path="url(#A)" opacity=".15" transform="matrix(1.560675 0 0 -1.560675 -990.72523 2729.536)"><path d="M678 1687.113c-10.077 0-18.971 4.978-24.401 12.603a25.13 25.13 0 0 0-5.208 1.786c2.223-14.374 14.613-25.389 29.609-25.389 16.568 0 30 13.431 30 30 0 1.884-.177 3.727-.509 5.514-2.579-13.948-14.797-24.514-29.491-24.514" fill="#000064"/></g><path d="M72.12 20.267c2.967 5.501 4.655 11.797 4.655 18.488 0 21.55-17.469 39.017-39.017 39.017-5.927 0-11.526-1.361-16.557-3.727 3.471 22.433 22.806 39.624 46.21 39.624 25.859 0 46.82-20.961 46.82-46.82 0-24.268-18.466-44.219-42.112-46.581z" fill="none" stroke="#fff" stroke-linejoin="round" stroke-miterlimit="10" stroke-width="3.12"/></svg>