<svg xmlns="http://www.w3.org/2000/svg" width="512" height="512" viewBox="0 0 135.467 135.467" xmlns:v="https://vecta.io/nano"><defs><clipPath id="A"><path d="M540.1 1581.9h11.896v-11.95H540.1z"/></clipPath><clipPath id="B"><path d="M536.01 1569.96H559v-16h-22.99z"/></clipPath><clipPath id="C"><path d="M549.259 1581.96H580v-25.35h-30.741z"/></clipPath></defs><path d="M106.832 58.748c-5.435-13.025-18.287-22.183-33.285-22.183-19.084 0-34.661 14.825-35.945 33.58-.966-.13-1.922-.297-2.932-.297a22.199 22.199 0 0 0-22.194 22.194 22.199 22.199 0 0 0 22.194 22.194h72.13a27.749 27.749 0 0 0 27.736-27.748c0-15.31-12.4-27.723-27.703-27.739" fill="#cdf0f0"/><path d="M56.824 40.685l-.002-.005c-.76-14.648-12.875-26.285-27.707-26.285-15.322 0-27.743 12.421-27.743 27.743S13.793 69.88 29.115 69.88a27.633 27.633 0 0 0 8.641-1.373h.036a36.06 36.06 0 0 1 19.032-27.82" fill="#fc0"/><g transform="matrix(2.7742 0 0 -2.7742 -1474.5276 4425.2479)"><g clip-path="url(#A)" opacity=".1"><path d="M545.123 1570.444h.012a13 13 0 0 0 6.861 10.028h-.002c-.025.486-.096.959-.188 1.424-6.218-.579-11.143-5.539-11.706-11.763a10.07 10.07 0 0 1 1.908-.186 9.96 9.96 0 0 1 3.115.495" fill="#000064"/></g><g clip-path="url(#B)" opacity=".1"><path d="M545 1567.96c0 .633.057 1.251.138 1.862l-.067.067c-.001-.012-.004-.024-.005-.036-.347.047-.693.107-1.056.107-4.418 0-8-3.583-8-8a8 8 0 0 1 8-8H559c-7.732 0-14 6.268-14 14" fill="#000064"/></g><g clip-path="url(#C)" opacity=".5"><path d="M566.172 1573.185c-1.345-.562-2.546-1.401-3.52-2.458a12.03 12.03 0 0 0 2.348.233c6.628 0 12-5.373 12-12a12.03 12.03 0 0 0-.233-2.348c1.983 1.828 3.233 4.439 3.233 7.348 0 5.304-4.133 9.632-9.352 9.967-.209.015-.415.034-.626.034-1.959 4.695-6.592 7.996-11.998 7.996-3.383 0-6.456-1.297-8.765-3.414 1.208.26 2.455.417 3.741.417 5.214 0 9.891-2.23 13.172-5.775" fill="#fff"/></g></g></svg>