<svg xmlns="http://www.w3.org/2000/svg" width="512" height="512" viewBox="0 0 135.467 135.467" xmlns:v="https://vecta.io/nano"><defs><clipPath id="A"><path d="M540.1 1581.9h11.896v-11.95H540.1z"/></clipPath><clipPath id="B"><path d="M536.01 1569.96H559v-16h-22.99z"/></clipPath><clipPath id="C"><path d="M549.259 1581.96H580v-25.35h-30.741z"/></clipPath></defs><path d="M110.747 72.751c-4.221-10.115-14.202-17.227-25.849-17.227-14.821 0-26.918 11.513-27.915 26.078-.75-.101-1.493-.231-2.277-.231A17.24 17.24 0 0 0 37.47 98.607a17.24 17.24 0 0 0 17.236 17.236h56.016a21.55 21.55 0 0 0 21.54-21.549c0-11.89-9.63-21.53-21.514-21.542" fill="#cdf0f0"/><path d="M71.911 58.723l-.002-.004c-.59-11.376-9.999-20.413-21.517-20.413-11.899 0-21.545 9.646-21.545 21.545s9.646 21.545 21.545 21.545a21.46 21.46 0 0 0 6.711-1.066h.028c1.075-9.4 6.765-17.393 14.78-21.605" fill="#fc0"/><g transform="matrix(2.154459 0 0 -2.154459 -1117.3407 3463.7857)"><g clip-path="url(#A)" opacity=".1"><path d="M545.123 1570.444h.012a13 13 0 0 0 6.861 10.028l-.002.002c-.025.486-.096.959-.188 1.424-6.218-.579-11.143-5.539-11.706-11.763a10.07 10.07 0 0 1 1.908-.186 9.96 9.96 0 0 1 3.115.495" fill="#000064"/></g><g clip-path="url(#B)" opacity=".1"><path d="M545 1567.96c0 .633.057 1.251.138 1.862l-.067.067c-.001-.012-.004-.024-.005-.036-.347.047-.693.107-1.056.107-4.418 0-8-3.583-8-8a8 8 0 0 1 8-8H559c-7.732 0-14 6.268-14 14" fill="#000064"/></g><g clip-path="url(#C)" opacity=".5"><path d="M566.172 1573.185c-1.345-.562-2.546-1.401-3.52-2.458a12.03 12.03 0 0 0 2.348.233c6.628 0 12-5.373 12-12a12.03 12.03 0 0 0-.233-2.348c1.983 1.828 3.233 4.439 3.233 7.348 0 5.304-4.133 9.632-9.352 9.967-.209.015-.415.034-.626.034-1.959 4.695-6.592 7.996-11.998 7.996-3.383 0-6.456-1.297-8.765-3.414 1.208.26 2.455.417 3.741.417 5.214 0 9.891-2.23 13.172-5.775" fill="#fff"/></g></g><g stroke-linecap="round" stroke-linejoin="round" stroke-miterlimit="10" stroke-width="4.309"><path d="M57.104 80.328a21.46 21.46 0 0 1-6.711 1.066c-11.901 0-21.545-9.643-21.545-21.545s9.643-21.545 21.545-21.545a21.55 21.55 0 0 1 21.514 20.413" fill="none" stroke="#fffffd"/><g stroke="#fff"><path d="M50.397 12.452v12.97" fill="#fff"/><path d="M15.947 59.871H2.977" fill="none"/><path d="M16.868 26.342l9.169 9.169" fill="#fff"/><path d="M83.926 26.342l-9.169 9.167m-48.72 48.72L16.864 93.4" fill="none"/></g></g><path d="M110.747 72.751c-4.221-10.115-14.202-17.227-25.849-17.227-14.821 0-26.918 11.513-27.915 26.078-.75-.101-1.493-.231-2.277-.231A17.24 17.24 0 0 0 37.47 98.607a17.24 17.24 0 0 0 17.236 17.236h56.016a21.55 21.55 0 0 0 21.54-21.549c0-11.89-9.63-21.53-21.514-21.542z" fill="none" stroke="#fff" stroke-linejoin="round" stroke-miterlimit="10" stroke-width="4.309"/></svg>