<svg xmlns="http://www.w3.org/2000/svg" width="512" height="512" viewBox="0 0 135.467 135.467" xmlns:v="https://vecta.io/nano"><defs><clipPath id="A"><path d="M782 1575.96h26.967v-20H782z"/></clipPath><clipPath id="B"><path d="M796.759 1589.96H836v-30.35h-39.241z"/></clipPath><clipPath id="C"><path d="M783.115 1589.96h20.808v-15.59h-20.808z"/></clipPath></defs><path d="M132.251 78.194c0-14.331-11.623-25.959-25.954-25.959-.846 0-1.676.048-2.501.128-5.11-12.743-17.552-21.755-32.111-21.755-17.66 0-32.199 13.232-34.324 30.315-.097-.004-.186-.032-.288-.032-11.945 0-21.636 9.689-21.636 21.634s9.691 21.63 21.636 21.63h69.37c14.264-.084 25.807-11.675 25.807-25.961" fill="#cdf0f0"/><g transform="matrix(2.16321 0 0 -2.16321 -1676.1922 3470.0264)"><g clip-path="url(#A)" opacity=".1"><path d="M792 1572.959a17.03 17.03 0 0 0 .253 2.831l-.253.169-.001.002a10.01 10.01 0 0 1-9.999-10.002c0-5.522 4.48-9.999 10.002-9.999h16.965c-9.373.019-16.967 7.621-16.967 16.999" fill="#000064"/></g><g clip-path="url(#B)" opacity=".5"><path d="M821.771 1579.745l-.062-.012zM836 1567.96c0 6.628-5.373 12-12 12a11.87 11.87 0 0 1-1.089-.054.69.69 0 0 1-.065-.003c-2.036 5.08-6.596 8.869-12.128 9.819l-.526.08c-.234.032-.468.06-.705.082-.491.042-.985.075-1.487.075a16.79 16.79 0 0 1-1.562-.078c-3.768-.366-7.139-2.047-9.679-4.568a21.97 21.97 0 0 0 5.241.646c6.534 0 12.386-2.862 16.414-7.386-.377-.199-.747-.411-1.099-.647.228.01.454.034.685.034 8.284 0 15-6.715 15-15 0-1.152-.142-2.268-.388-3.345a11.95 11.95 0 0 1 3.388 8.345" fill="#fff"/></g></g><path d="M37.366 60.922C39.12 46.796 49.38 35.327 62.861 31.773 61.282 16.531 48.407 4.655 32.747 4.655c-.599 0-1.188.054-1.778.087 1.136 2.63 1.778 5.523 1.778 8.566 0 11.95-9.683 21.632-21.632 21.632-3.046 0-5.936-.642-8.564-1.776-.032.593-.089 1.175-.089 1.776 0 14.191 9.76 26.103 22.934 29.385l.009.006c3.37-2.168 7.37-3.44 11.673-3.44.097 0 .19.028.288.03" fill="#e6f0fa"/><g clip-path="url(#C)" opacity=".15" transform="matrix(2.16321 0 0 -2.16321 -1676.1922 3470.0264)"><path d="M786.608 1574.372c1.558 1.001 3.407 1.589 5.396 1.589.045 0 .088-.012.133-.013a16.01 16.01 0 0 0 11.786 13.475c-.009.09-.029.178-.041.268-.935.17-1.895.269-2.88.269-8.162 0-14.885-6.117-15.865-14.012-.045.001-.088.013-.133.013-.646 0-1.277-.067-1.89-.184 1.083-.613 2.251-1.094 3.49-1.403z" fill="#000064"/></g><g fill="none" stroke="#fff" stroke-linejoin="round" stroke-miterlimit="10" stroke-width="4.326"><path d="M62.872 31.842C61.325 16.568 48.43 4.655 32.747 4.655c-.599 0-1.188.054-1.778.087 1.136 2.63 1.778 5.521 1.778 8.566 0 11.95-9.683 21.632-21.632 21.632-3.046 0-5.936-.642-8.564-1.776-.032.593-.089 1.175-.089 1.776 0 14.191 9.76 26.103 22.934 29.385" stroke-linecap="round"/><path d="M132.251 78.197c0-14.333-11.619-25.959-25.954-25.959-.841 0-1.672.048-2.496.125-5.11-12.743-17.552-21.755-32.115-21.755-17.656 0-32.199 13.235-34.319 30.313-.097-.002-.19-.03-.288-.03-11.95 0-21.636 9.691-21.636 21.634s9.687 21.632 21.636 21.632h69.37c14.264-.089 25.803-11.675 25.803-25.961z"/></g></svg>