<svg xmlns="http://www.w3.org/2000/svg" width="512" height="512" viewBox="0 0 135.467 135.467" xmlns:v="https://vecta.io/nano"><defs><clipPath id="A"><path d="M782 1575.96h26.967v-20H782z"/></clipPath><clipPath id="B"><path d="M796.759 1589.96H836v-30.35h-39.241z"/></clipPath><clipPath id="C"><path d="M783.115 1589.96h20.808v-15.59h-20.808z"/></clipPath></defs><path d="M134.543 85.495c0-14.765-11.975-26.745-26.74-26.745-.872 0-1.727.049-2.577.132-5.265-13.129-18.083-22.414-33.083-22.414-18.195 0-33.174 13.633-35.363 31.233-.1-.004-.192-.033-.297-.033-12.307 0-22.291 9.982-22.291 22.289s9.984 22.285 22.291 22.285h71.47c14.696-.087 26.588-12.028 26.588-26.747" fill="#cdf0f0"/><g transform="matrix(2.2287 0 0 -2.2287 -1728.6432 3580.0003)"><g clip-path="url(#A)" opacity=".1"><path d="M792 1572.959a17.03 17.03 0 0 0 .253 2.831l-.253.169h-.001a10.01 10.01 0 0 1-9.999-10c0-5.522 4.48-9.999 10.002-9.999h16.965c-9.373.019-16.967 7.621-16.967 16.999" fill="#000064"/></g><g clip-path="url(#B)" opacity=".5"><path d="M821.771 1579.745l-.062-.012zM836 1567.96c0 6.628-5.373 12-12 12a11.87 11.87 0 0 1-1.089-.054.69.69 0 0 1-.065 0c-2.036 5.08-6.596 8.869-12.128 9.819l-.526.08c-.234.032-.468.06-.705.082-.491.042-.985.075-1.487.075a16.79 16.79 0 0 1-1.562-.078c-3.768-.366-7.139-2.047-9.679-4.568a21.97 21.97 0 0 0 5.241.646c6.534 0 12.386-2.862 16.414-7.386-.377-.199-.747-.411-1.099-.647.228.01.454.034.685.034 8.284 0 15-6.715 15-15 0-1.152-.142-2.268-.388-3.345a11.95 11.95 0 0 1 3.388 8.345" fill="#fff"/></g></g><path d="M36.786 67.7c1.807-14.554 12.378-26.37 26.267-30.031C61.426 21.965 48.161 9.73 32.027 9.73c-.617 0-1.224.056-1.832.09a22.2 22.2 0 0 1 1.832 8.825c0 12.312-9.976 22.287-22.287 22.287-3.138 0-6.116-.661-8.823-1.83-.033.611-.092 1.211-.092 1.83 0 14.621 10.055 26.893 23.628 30.275l.009.006a22.15 22.15 0 0 1 12.026-3.544c.1 0 .196.029.297.031" fill="#e6f0fa"/><g clip-path="url(#C)" opacity=".15" transform="matrix(2.2287 0 0 -2.2287 -1728.6432 3580.0003)"><path d="M786.608 1574.372c1.558 1.001 3.407 1.589 5.396 1.589.045 0 .088-.012.133-.013a16.01 16.01 0 0 0 11.786 13.475c-.009.09-.029.178-.041.268-.935.17-1.895.269-2.88.269-8.162 0-14.885-6.117-15.865-14.012-.045.001-.088.013-.133.013-.646 0-1.277-.067-1.89-.184 1.083-.613 2.251-1.094 3.49-1.403z" fill="#000064"/></g></svg>