<svg xmlns="http://www.w3.org/2000/svg" width="512" height="512" viewBox="0 0 135.467 135.467" xmlns:v="https://vecta.io/nano"><defs><clipPath id="A"><path d="M392 1581.96h32v-22h-32z"/></clipPath><clipPath id="B"><path d="M411.57 1595.96H452v-31.56h-40.43z"/></clipPath></defs><path d="M105.535 44.896c-.375 0-.741.044-1.112.058-5.94-13.693-19.187-23.242-34.609-23.242-19.055 0-34.783 14.566-37.506 33.539a24.498 25.395 0 0 0-7.161-1.108C11.579 54.143.579 65.546.579 79.607s11 25.468 24.569 25.468h80.127.262c16.03 0 29.026-13.464 29.026-30.087s-12.996-30.091-29.026-30.091" fill="#cdf0f0"/><g transform="matrix(2.2331 0 0 -2.3149 -874.80509 3716.2584)"><g clip-path="url(#A)" opacity=".1"><path d="M406 1577.96c0 1.192.121 2.356.342 3.483l-.16.047a10.96 10.96 0 0 1-3.18.472c-6.076 0-11.002-4.926-11.002-11s4.926-11.002 11.002-11.002H424c-9.941 0-18 8.059-18 18" fill="#000064"/></g><g clip-path="url(#B)" opacity=".5"><path d="M452 1572.96c0 7.18-5.82 13-13 13-.168 0-.331-.022-.498-.029-2.243 4.987-6.815 8.691-12.333 9.733-.389.069-.778.136-1.175.18l-.254.028c-.573.055-1.153.088-1.74.088a18 18 0 0 1-3.172-.288c-3.152-.597-5.985-2.072-8.259-4.151 1.435.281 2.914.439 4.431.439 6.727 0 12.769-2.896 16.973-7.5-1.615-.851-3.036-2.021-4.161-3.441a14.93 14.93 0 0 0 5.188.941c8.284 0 15-6.716 15-15 0-.875-.091-1.728-.234-2.562 2.007 2.289 3.234 5.279 3.234 8.562" fill="#fff"/></g></g></svg>