<svg xmlns="http://www.w3.org/2000/svg" width="512" height="512" viewBox="0 0 135.467 135.467" xmlns:v="https://vecta.io/nano"><defs><clipPath id="A"><path d="M392 1581.96h32v-22h-32z"/></clipPath><clipPath id="B"><path d="M411.57 1595.96H452v-31.56h-40.43z"/></clipPath></defs><path d="M105.769 43.504c-.374 0-.739.043-1.109.057C98.735 30.11 85.52 20.73 70.136 20.73c-19.009 0-34.698 14.308-37.414 32.946a24.438 24.946 0 0 0-7.144-1.089c-13.535 0-24.508 11.202-24.508 25.014s10.973 25.018 24.508 25.018h79.931.261c15.99 0 28.955-13.226 28.955-29.555s-12.965-29.559-28.955-29.559" fill="#cdf0f0"/><g transform="matrix(2.2277 0 0 -2.274 -872.17497 3649.9813)"><g clip-path="url(#A)" opacity=".1"><path d="M406 1577.96c0 1.192.121 2.356.342 3.483l-.16.047a10.96 10.96 0 0 1-3.18.472c-6.076 0-11.002-4.926-11.002-11s4.926-11.002 11.002-11.002H424c-9.941 0-18 8.059-18 18" fill="#000064"/></g><g clip-path="url(#B)" opacity=".5"><path d="M452 1572.96c0 7.18-5.82 13-13 13-.168 0-.331-.022-.498-.029-2.243 4.987-6.815 8.691-12.333 9.733-.389.069-.778.136-1.175.18l-.254.028c-.573.055-1.153.088-1.74.088a18 18 0 0 1-3.172-.288c-3.152-.597-5.985-2.072-8.259-4.151 1.435.281 2.914.439 4.431.439 6.727 0 12.769-2.896 16.973-7.5-1.615-.851-3.036-2.021-4.161-3.441a14.93 14.93 0 0 0 5.188.941c8.284 0 15-6.716 15-15 0-.875-.091-1.728-.234-2.562 2.007 2.289 3.234 5.279 3.234 8.562" fill="#fff"/></g></g></svg>