<svg xmlns="http://www.w3.org/2000/svg" width="512" height="512" viewBox="0 0 135.467 135.467" xmlns:v="https://vecta.io/nano"><defs><clipPath id="A"><path d="M392 1581.96h32v-22h-32z"/></clipPath><clipPath id="B"><path d="M411.57 1595.96H452v-31.56h-40.43z"/></clipPath></defs><path d="M104.798 44.567c-.361 0-.714.041-1.071.054-5.722-12.725-18.484-21.599-33.34-21.599-18.357 0-33.508 13.536-36.131 31.168a23.6 23.6 0 0 0-6.899-1.03c-13.071 0-23.668 10.597-23.668 23.664s10.597 23.668 23.668 23.668h77.19.252c15.442 0 27.962-12.512 27.962-27.96s-12.52-27.964-27.962-27.964" fill="#cdf0f0"/><g transform="matrix(2.151271 0 0 -2.151271 -839.60945 3456.3883)"><g clip-path="url(#A)" opacity=".1"><path d="M406 1577.96c0 1.192.121 2.356.342 3.483l-.16.047a10.96 10.96 0 0 1-3.18.472c-6.076 0-11.002-4.926-11.002-11s4.926-11.002 11.002-11.002H424c-9.941 0-18 8.059-18 18" fill="#000064"/></g><g clip-path="url(#B)" opacity=".5"><path d="M452 1572.96c0 7.18-5.82 13-13 13-.168 0-.331-.022-.498-.029-2.243 4.987-6.815 8.691-12.333 9.733-.389.069-.778.136-1.175.18l-.254.028c-.573.055-1.153.088-1.74.088a18 18 0 0 1-3.172-.288c-3.152-.597-5.985-2.072-8.259-4.151 1.435.281 2.914.439 4.431.439 6.727 0 12.769-2.896 16.973-7.5-1.615-.851-3.036-2.021-4.161-3.441a14.93 14.93 0 0 0 5.188.941c8.284 0 15-6.716 15-15 0-.875-.091-1.728-.234-2.562 2.007 2.289 3.234 5.279 3.234 8.562" fill="#fff"/></g></g><path d="M104.798 44.559c-.361 0-.714.041-1.071.054-5.722-12.725-18.484-21.599-33.34-21.599-18.357 0-33.508 13.536-36.131 31.168a23.6 23.6 0 0 0-6.899-1.03c-13.071 0-23.668 10.597-23.668 23.664s10.597 23.668 23.668 23.668h77.19.252c15.442 0 27.962-12.512 27.962-27.96 0-8.851-4.112-16.742-10.53-21.866a27.84 27.84 0 0 0-17.432-6.098z" fill="none" stroke="#fff" stroke-linejoin="round" stroke-miterlimit="10" stroke-width="4.303"/></svg>