<svg xmlns="http://www.w3.org/2000/svg" width="512" height="512" viewBox="0 0 135.467 135.467" xmlns:v="https://vecta.io/nano"><defs><clipPath id="A"><path d="M904 1574.96h26.967v-20H904z"/></clipPath><clipPath id="B"><path d="M918.759 1588.96H958v-30.35h-39.241z"/></clipPath><clipPath id="C"><path d="M929.057 1600.96h34.941v-27.75h-34.941z"/></clipPath></defs><path d="M121.797 86.758c0-14.78-11.987-26.772-26.768-26.772a26.611 26.611 0 0 0-2.579.131C87.181 46.975 74.348 37.68 59.333 37.68c-18.214 0-33.209 13.647-35.399 31.266-.1-.004-.191-.033-.297-.033-12.319 0-22.314 9.993-22.314 22.312s9.995 22.308 22.314 22.308h71.544c14.711-.087 26.616-12.04 26.616-26.774" fill="#cdf0f0"/><g transform="matrix(2.231 0 0 -2.231 -2015.4902 3582.6342)"><g clip-path="url(#A)" opacity=".1"><path d="M914 1571.959a17.03 17.03 0 0 0 .253 2.831l-.253.169h-.001a10.01 10.01 0 0 1-9.999-10c0-5.522 4.48-9.999 10.002-9.999h16.965c-9.373.019-16.967 7.621-16.967 16.999" fill="#000064"/></g><g clip-path="url(#B)" opacity=".5"><path d="M943.771 1578.745l-.062-.012zM958 1566.96c0 6.628-5.373 12-12 12a11.87 11.87 0 0 1-1.089-.054.69.69 0 0 1-.065 0c-2.036 5.08-6.596 8.869-12.128 9.819l-.526.08c-.234.032-.468.06-.705.082-.491.042-.985.075-1.487.075a16.79 16.79 0 0 1-1.562-.078c-3.768-.366-7.139-2.047-9.679-4.568a21.97 21.97 0 0 0 5.241.646c6.534 0 12.386-2.862 16.414-7.386-.377-.199-.747-.411-1.099-.647.228.01.454.034.685.034 8.284 0 15-6.715 15-15 0-1.152-.142-2.268-.388-3.345a11.95 11.95 0 0 1 3.388 8.345" fill="#fff"/></g></g><path d="M135.178 51.063c0-12.313-9.974-22.294-22.283-22.308-4.37-10.477-14.707-17.839-26.768-17.839-15.347 0-27.874 11.688-28.902 26.772l.029.092c.689-.041 1.375-.096 2.075-.096 15.019 0 27.852 9.295 33.121 22.437a27.39 27.39 0 0 1 2.575-.131c9.671 0 18.12 5.152 22.823 12.839l.027-.014c9.91-2.271 17.303-11.148 17.303-21.752" fill="#cdf0f0"/><g clip-path="url(#C)" opacity=".1" transform="matrix(2.231 0 0 -2.231 -2015.4902 3582.6342)"><path d="M963.998 1582.963a10 10 0 0 1-9.988 9.999c-1.959 4.696-6.592 7.996-11.998 7.996-6.879 0-12.494-5.239-12.955-12l.013-.041c.309.018.616.043.93.043 6.732 0 12.484-4.166 14.846-10.057.381.036.765.059 1.154.059 4.335 0 8.122-2.309 10.23-5.755l.012.01c4.442 1.018 7.756 4.997 7.756 9.75" fill="#000064"/></g></svg>