<svg xmlns="http://www.w3.org/2000/svg" width="512" height="512" viewBox="0 0 135.467 135.467" xmlns:v="https://vecta.io/nano"><defs><clipPath id="A"><path d="M904 1574.96h26.967v-20H904z"/></clipPath><clipPath id="B"><path d="M918.759 1588.96H958v-30.35h-39.241z"/></clipPath><clipPath id="C"><path d="M929.057 1600.96h34.941v-27.75h-34.941z"/></clipPath></defs><path d="M119.865 85.672c0-14.202-11.518-25.724-25.72-25.724a25.57 25.57 0 0 0-2.478.126c-5.063-12.628-17.394-21.559-31.821-21.559-17.501 0-31.909 13.113-34.014 30.042-.096-.004-.184-.032-.285-.032-11.837 0-21.441 9.602-21.441 21.439s9.604 21.435 21.441 21.435h68.744c14.135-.084 25.574-11.569 25.574-25.726" fill="#cdf0f0"/><g transform="matrix(2.14368 0 0 -2.143679 -1933.7801 3444.7388)"><g clip-path="url(#A)" opacity=".1"><path d="M914 1571.959a17.03 17.03 0 0 0 .253 2.831l-.253.169-.001.002a10.01 10.01 0 0 1-9.999-10.002c0-5.522 4.48-9.999 10.002-9.999h16.965c-9.373.019-16.967 7.621-16.967 16.999" fill="#000064"/></g><g clip-path="url(#B)" opacity=".5"><path d="M943.771 1578.745l-.062-.012zM958 1566.96c0 6.628-5.373 12-12 12a11.87 11.87 0 0 1-1.089-.054.69.69 0 0 1-.065-.003c-2.036 5.08-6.596 8.869-12.128 9.819l-.526.08c-.234.032-.468.06-.705.082-.491.042-.985.075-1.487.075a16.79 16.79 0 0 1-1.562-.078c-3.768-.366-7.139-2.047-9.679-4.568a21.97 21.97 0 0 0 5.241.646c6.534 0 12.386-2.862 16.414-7.386-.377-.199-.747-.411-1.099-.647.228.01.454.034.685.034 8.284 0 15-6.715 15-15 0-1.152-.142-2.268-.388-3.345a11.95 11.95 0 0 1 3.388 8.345" fill="#fff"/></g></g><path d="M132.723 51.374c0-11.831-9.584-21.422-21.411-21.435-4.199-10.067-14.131-17.141-25.72-17.141-14.746 0-26.783 11.231-27.771 25.724l.028.088c.662-.039 1.321-.092 1.994-.092 14.431 0 26.762 8.931 31.825 21.559.817-.077 1.64-.126 2.474-.126 9.293 0 17.411 4.95 21.93 12.337l.026-.013c9.522-2.182 16.626-10.712 16.626-20.901" fill="#cdf0f0"/><g clip-path="url(#C)" opacity=".1" transform="matrix(2.14368 0 0 -2.143679 -1933.7801 3444.7388)"><path d="M963.998 1582.963a10 10 0 0 1-9.988 9.999c-1.959 4.696-6.592 7.996-11.998 7.996-6.879 0-12.494-5.239-12.955-12l.013-.041c.309.018.616.043.93.043 6.732 0 12.484-4.166 14.846-10.057.381.036.765.059 1.154.059 4.335 0 8.122-2.309 10.23-5.755l.012.006c4.442 1.018 7.756 4.997 7.756 9.75" fill="#000064"/></g><g fill="none" stroke="#fff" stroke-linejoin="round" stroke-miterlimit="10" stroke-width="4.287"><path d="M116.097 72.274c9.52-2.182 16.626-10.712 16.626-20.901 0-11.831-9.584-21.422-21.411-21.435-4.199-10.067-14.131-17.141-25.72-17.141-14.746 0-26.785 11.231-27.774 25.724" stroke-linecap="round"/><path d="M119.861 85.676c0-14.204-11.514-25.724-25.72-25.724-.834 0-1.657.047-2.474.124-5.063-12.628-17.394-21.559-31.825-21.559-17.497 0-31.909 13.115-34.009 30.039-.096-.002-.189-.03-.285-.03-11.842 0-21.441 9.604-21.441 21.439S13.706 111.4 25.547 111.4h68.744c14.135-.084 25.57-11.565 25.57-25.724z"/></g></svg>