<svg xmlns="http://www.w3.org/2000/svg" width="512" height="512" viewBox="0 0 135.467 135.467" xmlns:v="https://vecta.io/nano"><defs><clipPath id="A"><path d="M392 1336.96h32v-22h-32z"/></clipPath><clipPath id="B"><path d="M411.57 1350.96H452v-31.56h-40.43z"/></clipPath></defs><path d="M105.234 30.686l-1.098.055C98.272 17.726 85.197 8.649 69.975 8.649c-18.808 0-34.332 13.845-37.019 31.879a24.177 24.135 0 0 0-7.069-1.054c-13.393 0-24.25 10.839-24.25 24.204s10.857 24.208 24.25 24.208h79.087.258c15.822 0 28.65-12.797 28.65-28.598s-12.828-28.602-28.65-28.602" fill="#cdf0f0"/><g transform="matrix(2.2042 0 0 -2.2003 -862.39143 2981.2179)"><g clip-path="url(#A)" opacity=".1"><path d="M406 1332.96c0 1.192.121 2.356.342 3.483l-.16.047a10.96 10.96 0 0 1-3.18.472c-6.076 0-11.002-4.926-11.002-11s4.926-11.002 11.002-11.002H424c-9.941 0-18 8.059-18 18" fill="#000064"/></g><g clip-path="url(#B)" opacity=".5"><path d="M452 1327.96c0 7.18-5.82 13-13 13-.168 0-.331-.022-.498-.029-2.243 4.987-6.815 8.691-12.333 9.733-.389.069-.778.136-1.175.18l-.254.028c-.573.055-1.153.088-1.74.088a18 18 0 0 1-3.172-.288c-3.152-.597-5.985-2.072-8.259-4.151 1.435.281 2.914.439 4.431.439 6.727 0 12.769-2.896 16.973-7.5-1.615-.851-3.036-2.021-4.161-3.441a14.93 14.93 0 0 0 5.188.941c8.284 0 15-6.716 15-15 0-.875-.091-1.728-.234-2.562 2.007 2.289 3.234 5.279 3.234 8.562" fill="#fff"/></g></g><path d="M78.206 59.281L45.721 94.486H62.18l-7.177 30.804 34.802-37.406H73.566z" fill="#ff6"/><g fill="none" stroke-linecap="round" stroke-width="4.405" stroke-linejoin="round" stroke-miterlimit="10"><path d="M32.483 105.619l-14.005 17.603" stroke="#fff"/><path d="M103.038 105.618l-14.025 17.49" stroke="#fffffe"/></g></svg>