<svg xmlns="http://www.w3.org/2000/svg" width="512" height="512" viewBox="0 0 135.467 135.467" xmlns:v="https://vecta.io/nano"><defs><clipPath id="A"><path d="M1544 1465.96h32v-22h-32z"/></clipPath><clipPath id="B"><path d="M1563.57 1479.96H1604v-31.56h-40.43z"/></clipPath></defs><path d="M105.441 23.681l-1.103.055C98.447 10.637 85.311 1.501 70.016 1.501c-18.897 0-34.494 13.934-37.194 32.085-2.25-.686-4.633-1.061-7.102-1.061-13.456 0-24.364 10.909-24.364 24.36A24.372 24.372 0 0 0 25.72 81.249h79.461.259c15.896 0 28.785-12.88 28.785-28.783s-12.889-28.787-28.785-28.787" fill="#cdf0f0"/><g transform="matrix(2.2146 0 0 -2.2146 -3417.9633 3279.0233)"><g clip-path="url(#A)" opacity=".1"><path d="M1558 1461.96c0 1.192.121 2.356.342 3.483l-.16.047a10.96 10.96 0 0 1-3.18.472c-6.076 0-11.002-4.926-11.002-11s4.926-11.002 11.002-11.002H1576c-9.941 0-18 8.059-18 18" fill="#000064"/></g><g clip-path="url(#B)" opacity=".5"><path d="M1604 1456.96c0 7.18-5.82 13-13 13-.168 0-.331-.022-.498-.029-2.243 4.987-6.815 8.691-12.333 9.733-.389.069-.778.136-1.175.18l-.254.028a18.18 18.18 0 0 1-1.74.088 18 18 0 0 1-3.172-.288c-3.151-.597-5.984-2.072-8.259-4.151 1.435.281 2.913.439 4.431.439 6.727 0 12.77-2.896 16.973-7.5-1.615-.851-3.036-2.021-4.161-3.441 1.619.598 3.362.941 5.188.941 8.284 0 15-6.716 15-15 0-.875-.091-1.728-.234-2.562 2.007 2.289 3.234 5.279 3.234 8.562" fill="#fff"/></g></g><path d="M78.284 52.462L45.647 87.895h16.536l-7.211 31.004 34.966-37.648H73.622z" fill="#ff6"/><g fill="none" stroke-linecap="round" stroke-width="4.429" stroke-linejoin="round" stroke-miterlimit="10"><path d="M13.117 118.914l-6.216 7.764" stroke="#fff"/><path d="M35.267 91.249l-13.057 16.31" stroke="#fffffa"/><path d="M94.851 109.824l-14.999 18.737m28.356-35.428l-3.543 4.429" stroke="#fff"/></g></svg>