<svg xmlns="http://www.w3.org/2000/svg" width="512" height="512" viewBox="0 0 135.467 135.467" xmlns:v="https://vecta.io/nano"><style><![CDATA[.B{stroke-linejoin:round}.C{stroke-miterlimit:10}.D{stroke-width:4.278}.E{stroke-linecap:round}]]></style><defs><clipPath id="A"><path d="M1544 1465.96h32v-22h-32z"/></clipPath><clipPath id="B"><path d="M1563.57 1479.96H1604v-31.56h-40.43z"/></clipPath></defs><path d="M104.209 25.078c-.359 0-.71.041-1.065.053-5.69-12.652-18.378-21.476-33.151-21.476-18.252 0-33.317 13.459-35.925 30.99-2.173-.663-4.475-1.025-6.86-1.025-12.997 0-23.533 10.537-23.533 23.529a23.54 23.54 0 0 0 23.533 23.533h76.75.25c15.354 0 27.803-12.441 27.803-27.801s-12.449-27.805-27.803-27.805" fill="#cdf0f0"/><g transform="matrix(2.13902 0 0 -2.13902 -3298.9717 3169.3439)"><g clip-path="url(#A)" opacity=".1"><path d="M1558 1461.96c0 1.192.121 2.356.342 3.483l-.16.047a10.96 10.96 0 0 1-3.18.472c-6.076 0-11.002-4.926-11.002-11s4.926-11.002 11.002-11.002H1576c-9.941 0-18 8.059-18 18" fill="#000064"/></g><g clip-path="url(#B)" opacity=".5"><path d="M1604 1456.96c0 7.18-5.82 13-13 13-.168 0-.331-.022-.498-.029-2.243 4.987-6.815 8.691-12.333 9.733-.389.069-.778.136-1.175.18l-.254.028a18.18 18.18 0 0 1-1.74.088 18 18 0 0 1-3.172-.288c-3.151-.597-5.984-2.072-8.259-4.151 1.435.281 2.913.439 4.431.439 6.727 0 12.77-2.896 16.973-7.5-1.615-.851-3.036-2.021-4.161-3.441 1.619.598 3.362.941 5.188.941 8.284 0 15-6.716 15-15 0-.875-.091-1.728-.234-2.562 2.007 2.289 3.234 5.279 3.234 8.562" fill="#fff"/></g></g><path d="M77.979 52.877L46.456 87.101h15.972l-6.965 29.946 33.773-36.363h-15.76z" fill="#ff6"/><g fill="none" class="B C D"><path d="M89.236 80.684h14.727.25c15.354 0 27.803-12.417 27.803-27.773s-12.449-27.807-27.803-27.807c-.359 0-.71.039-1.065.056C97.459 12.507 84.77 3.68 69.998 3.68c-18.252 0-33.317 13.465-35.925 30.99a23.6 23.6 0 0 0-6.86-1.022c-12.997 0-23.533 10.537-23.533 23.529s10.528 23.508 23.525 23.508h25.178m-40.164 43.833l-6.004 7.499" stroke="#fff" class="E"/><path d="M33.613 97.797L21.002 113.55" stroke="#fffffa" class="E"/><g stroke="#fff"><path d="M89.178 113.919L74.69 132.017m27.389-34.22l-3.422 4.278" class="E"/><path d="M77.977 52.896L46.454 87.12h15.972l-6.965 29.946 33.773-36.363h-15.76z"/></g></g></svg>