<svg xmlns="http://www.w3.org/2000/svg" width="512" height="512" viewBox="0 0 135.467 135.467" xmlns:v="https://vecta.io/nano"><defs><clipPath id="A"><path d="M1032 1462.96h32v-22h-32z"/></clipPath><clipPath id="B"><path d="M1051.57 1476.96H1092v-31.56h-40.43z"/></clipPath></defs><path d="M103.569 28.627c-.359 0-.709.041-1.063.053C96.827 16.054 84.165 7.249 69.423 7.249c-18.215 0-33.249 13.431-35.851 30.927-2.169-.662-4.466-1.022-6.846-1.022-12.97 0-23.485 10.515-23.485 23.481s10.515 23.485 23.485 23.485h76.593.25c15.322 0 27.746-12.415 27.746-27.744s-12.424-27.748-27.746-27.748" fill="#cdf0f0"/><g transform="matrix(2.134632 0 0 -2.134632 -2199.6991 3160.0383)"><g clip-path="url(#A)" opacity=".1"><path d="M1046 1458.96c0 1.192.121 2.356.342 3.483l-.16.047a10.96 10.96 0 0 1-3.18.472c-6.076 0-11.002-4.926-11.002-11s4.926-11.002 11.002-11.002H1064c-9.941 0-18 8.059-18 18" fill="#000064"/></g><g clip-path="url(#B)" opacity=".5"><path d="M1092 1453.96c0 7.18-5.82 13-13 13-.168 0-.331-.022-.498-.029-2.243 4.987-6.815 8.691-12.333 9.733-.389.069-.778.136-1.175.18l-.254.028a18.18 18.18 0 0 1-1.74.088 18 18 0 0 1-3.172-.288c-3.151-.597-5.984-2.072-8.259-4.151 1.435.281 2.913.439 4.431.439 6.727 0 12.77-2.896 16.973-7.5-1.615-.851-3.036-2.021-4.161-3.441 1.619.598 3.362.941 5.188.941 8.284 0 15-6.716 15-15 0-.875-.091-1.728-.234-2.562 2.007 2.289 3.234 5.279 3.234 8.562" fill="#fff"/></g></g><path d="M88.63 84.267h14.693.245c15.327 0 27.75-12.413 27.75-27.74s-12.424-27.75-27.75-27.75c-.359 0-.704.038-1.059.053C96.827 16.207 84.165 7.397 69.427 7.397c-18.219 0-33.253 13.438-35.855 30.929-2.169-.66-4.466-1.022-6.846-1.022-12.97 0-23.485 10.515-23.485 23.481s10.515 23.483 23.485 23.483h19.203m29.889-9.63l-21.346 26.679 17.077.004-20.413 25.49" fill="none" stroke="#fff" stroke-linecap="round" stroke-linejoin="round" stroke-miterlimit="10" stroke-width="4.269"/></svg>