<svg xmlns="http://www.w3.org/2000/svg" width="512" height="512" viewBox="0 0 135.467 135.467" xmlns:v="https://vecta.io/nano"><defs><clipPath id="A"><path d="M1032 1462.96h32v-22h-32z"/></clipPath><clipPath id="B"><path d="M1051.57 1476.96H1092v-31.56h-40.43z"/></clipPath></defs><path d="M105.705 27.411l-1.101.055C98.719 14.384 85.599 5.261 70.324 5.261c-18.874 0-34.451 13.917-37.147 32.045-2.247-.686-4.627-1.059-7.093-1.059-13.439 0-24.334 10.895-24.334 24.33s10.895 24.334 24.334 24.334h79.362.259c15.876 0 28.749-12.864 28.749-28.747s-12.873-28.751-28.749-28.751" fill="#cdf0f0"/><g transform="matrix(2.2118 0 0 -2.2118 -2280.8324 3272.0314)"><g clip-path="url(#A)" opacity=".1"><path d="M1046 1458.96c0 1.192.121 2.356.342 3.483l-.16.047a10.96 10.96 0 0 1-3.18.472c-6.076 0-11.002-4.926-11.002-11s4.926-11.002 11.002-11.002H1064c-9.941 0-18 8.059-18 18" fill="#000064"/></g><g clip-path="url(#B)" opacity=".5"><path d="M1092 1453.96c0 7.18-5.82 13-13 13-.168 0-.331-.022-.498-.029-2.243 4.987-6.815 8.691-12.333 9.733-.389.069-.778.136-1.175.18l-.254.028a18.18 18.18 0 0 1-1.74.088 18 18 0 0 1-3.172-.288c-3.151-.597-5.984-2.072-8.259-4.151 1.435.281 2.913.439 4.431.439 6.727 0 12.77-2.896 16.973-7.5-1.615-.851-3.036-2.021-4.161-3.441 1.619.598 3.362.941 5.188.941 8.284 0 15-6.716 15-15 0-.875-.091-1.728-.234-2.562 2.007 2.289 3.234 5.279 3.234 8.562" fill="#fff"/></g></g><path d="M76.951 75.086l-22.118 27.644 17.694.004-21.151 26.412" fill="none" stroke="#fff" stroke-linecap="round" stroke-linejoin="round" stroke-miterlimit="10" stroke-width="4.423"/></svg>