<svg xmlns="http://www.w3.org/2000/svg" width="512" height="512" viewBox="0 0 135.467 135.467" xmlns:v="https://vecta.io/nano"><defs><clipPath id="A"><path d="M1416 1461.96h32v-22h-32z"/></clipPath><clipPath id="B"><path d="M1435.57 1475.96H1476v-31.56h-40.43z"/></clipPath></defs><path d="M105.85 31.931l-1.106.055C98.832 18.839 85.647 9.672 70.299 9.672c-18.965 0-34.618 13.984-37.327 32.2a24.379 24.379 0 0 0-7.127-1.064c-13.504 0-24.453 10.948-24.453 24.447S12.34 89.708 25.844 89.708h79.746.26c15.953 0 28.888-12.926 28.888-28.886s-12.935-28.89-28.888-28.89" fill="#cdf0f0"/><g transform="matrix(2.2225 0 0 -2.2225 -3145.6893 3290.0396)"><g clip-path="url(#A)" opacity=".1"><path d="M1430 1457.96c0 1.192.121 2.356.342 3.483l-.16.047a10.96 10.96 0 0 1-3.18.472c-6.076 0-11.002-4.926-11.002-11s4.926-11.002 11.002-11.002H1448c-9.941 0-18 8.059-18 18" fill="#000064"/></g><g clip-path="url(#B)" opacity=".5"><path d="M1476 1452.96c0 7.18-5.82 13-13 13-.168 0-.331-.022-.498-.029-2.243 4.987-6.815 8.691-12.333 9.733-.389.069-.778.136-1.175.18l-.254.028a18.18 18.18 0 0 1-1.74.088 18 18 0 0 1-3.172-.288c-3.151-.597-5.984-2.072-8.259-4.151 1.435.281 2.913.439 4.431.439 6.727 0 12.77-2.896 16.973-7.5-1.615-.851-3.036-2.021-4.161-3.441 1.619.598 3.362.941 5.188.941 8.284 0 15-6.716 15-15 0-.875-.091-1.728-.234-2.562 2.007 2.289 3.234 5.279 3.234 8.562" fill="#fff"/></g></g><path d="M78.596 60.815l-32.753 35.56h16.595l-7.237 31.115 35.092-37.783H73.918z" fill="#ff6"/></svg>