<svg xmlns="http://www.w3.org/2000/svg" width="512" height="512" viewBox="0 0 135.467 135.467" xmlns:v="https://vecta.io/nano"><defs><clipPath id="A"><path d="M1416 1461.96h32v-22h-32z"/></clipPath><clipPath id="B"><path d="M1435.57 1475.96H1476v-31.56h-40.43z"/></clipPath></defs><path d="M104.449 33.243c-.365 0-.721.041-1.081.054-5.776-12.845-18.658-21.802-33.655-21.802-18.53 0-33.824 13.663-36.471 31.462a23.82 23.82 0 0 0-6.964-1.04c-13.194 0-23.892 10.697-23.892 23.887s10.697 23.892 23.892 23.892h77.918.254c15.587 0 28.226-12.63 28.226-28.224s-12.638-28.228-28.226-28.228" fill="#cdf0f0"/><g transform="matrix(2.171561 0 0 -2.171561 -3072.5444 3216.6559)"><g clip-path="url(#A)" opacity=".1"><path d="M1430 1457.96c0 1.192.121 2.356.342 3.483l-.16.047a10.96 10.96 0 0 1-3.18.472c-6.076 0-11.002-4.926-11.002-11s4.926-11.002 11.002-11.002H1448c-9.941 0-18 8.059-18 18" fill="#000064"/></g><g clip-path="url(#B)" opacity=".5"><path d="M1476 1452.96c0 7.18-5.82 13-13 13-.168 0-.331-.022-.498-.029-2.243 4.987-6.815 8.691-12.333 9.733-.389.069-.778.136-1.175.18l-.254.028a18.18 18.18 0 0 1-1.74.088 18 18 0 0 1-3.172-.288c-3.151-.597-5.984-2.072-8.259-4.151 1.435.281 2.913.439 4.431.439 6.727 0 12.77-2.896 16.973-7.5-1.615-.851-3.036-2.021-4.161-3.441 1.619.598 3.362.941 5.188.941 8.284 0 15-6.716 15-15 0-.875-.091-1.728-.234-2.562 2.007 2.289 3.234 5.279 3.234 8.562" fill="#fff"/></g></g><path d="M77.82 61.465L45.818 96.21h16.215l-7.071 30.402 34.287-36.917h-16z" fill="#ff6"/><g fill="none" stroke="#fff" stroke-linejoin="round" stroke-miterlimit="10" stroke-width="4.343"><path d="M89.248 89.695h14.951.25c15.592 0 28.23-12.478 28.23-28.07s-12.638-28.23-28.23-28.23c-.365 0-.717.041-1.077.056-5.781-12.843-18.662-21.805-33.655-21.805-18.534 0-33.829 13.67-36.476 31.462-2.206-.671-4.543-1.04-6.964-1.04-13.194 0-23.892 10.697-23.892 23.887s10.693 23.74 23.887 23.74h25.546" stroke-linecap="round"/><path d="M77.82 61.465L45.818 96.21h16.215l-7.071 30.402 34.287-36.917h-16z"/></g></svg>