<svg xmlns="http://www.w3.org/2000/svg" width="512" height="512" viewBox="0 0 135.467 135.467" xmlns:v="https://vecta.io/nano"><defs><clipPath id="A"><path d="M1032 1335.96h32v-22h-32z"/></clipPath><clipPath id="B"><path d="M1051.57 1349.96H1092v-31.56h-40.43z"/></clipPath></defs><path d="M104.297 32.366c-.358 0-.708.041-1.062.053-5.674-12.617-18.328-21.416-33.059-21.416-18.202 0-33.225 13.422-35.826 30.904a23.4 23.4 0 0 0-6.841-1.022c-12.961 0-23.468 10.508-23.468 23.464s10.508 23.468 23.468 23.468h76.538.25c15.311 0 27.726-12.406 27.726-27.724s-12.415-27.728-27.726-27.728" fill="#cdf0f0"/><g transform="matrix(2.133108 0 0 -2.133108 -2197.3268 2890.637)"><g clip-path="url(#A)" opacity=".1"><path d="M1046 1331.96c0 1.192.121 2.356.342 3.483l-.16.047a10.96 10.96 0 0 1-3.18.472c-6.076 0-11.002-4.926-11.002-11s4.926-11.002 11.002-11.002H1064c-9.941 0-18 8.059-18 18" fill="#000064"/></g><g clip-path="url(#B)" opacity=".5"><path d="M1092 1326.96c0 7.18-5.82 13-13 13-.168 0-.331-.022-.498-.029-2.243 4.987-6.815 8.691-12.333 9.733-.389.069-.778.136-1.175.18l-.254.028a18.18 18.18 0 0 1-1.74.088 18 18 0 0 1-3.172-.288c-3.151-.597-5.984-2.072-8.259-4.151 1.435.281 2.913.439 4.431.439 6.727 0 12.77-2.896 16.973-7.5-1.615-.851-3.036-2.021-4.161-3.441 1.619.598 3.362.941 5.188.941 8.284 0 15-6.716 15-15 0-.875-.091-1.728-.234-2.562 2.007 2.289 3.234 5.279 3.234 8.562" fill="#fff"/></g></g><path d="M78.137 60.088l-31.436 34.13h15.928l-6.945 29.864 33.68-36.263H73.647z" fill="#ff6"/><g fill="none" stroke="#fff"><path d="M89.365 87.818h14.682.25c15.311 0 27.726-12.257 27.726-27.575 0-15.311-12.415-27.728-27.726-27.728-.358 0-.708.041-1.062.055-5.674-12.617-18.328-21.416-33.059-21.416-18.202 0-33.225 13.422-35.826 30.902a23.47 23.47 0 0 0-6.841-1.022c-12.961 0-23.468 10.51-23.468 23.464 0 12.961 10.503 23.319 23.464 23.319h25.092m-24.184 12.925L18.18 113.536h12.79l-10.247 12.803m78.878-25.597l-10.237 12.794h12.794l-10.252 12.803" stroke-linecap="round" stroke-linejoin="round" stroke-miterlimit="10" stroke-width="4.266"/><path d="M78.137 60.088l-31.436 34.13h15.928l-6.945 29.864 33.68-36.263H73.647z" stroke-linejoin="round" stroke-miterlimit="10" stroke-width="4.266"/></g></svg>