<svg xmlns="http://www.w3.org/2000/svg" width="512" height="512" viewBox="0 0 135.467 135.467" xmlns:v="https://vecta.io/nano"><defs><clipPath id="A"><path d="M1032 1335.96h32v-22h-32z"/></clipPath><clipPath id="B"><path d="M1051.57 1349.96H1092v-31.56h-40.43z"/></clipPath></defs><path d="M105.774 30.855l-1.102.055C98.783 17.815 85.65 8.683 70.361 8.683c-18.891 0-34.483 13.93-37.183 32.074a24.286 24.286 0 0 0-7.1-1.061c-13.452 0-24.357 10.906-24.357 24.353s10.906 24.357 24.357 24.357h79.437.259c15.891 0 28.776-12.876 28.776-28.774s-12.885-28.778-28.776-28.778" fill="#cdf0f0"/><g transform="matrix(2.2139 0 0 -2.2139 -2283.0211 2997.3802)"><g clip-path="url(#A)" opacity=".1"><path d="M1046 1331.96c0 1.192.121 2.356.342 3.483l-.16.047a10.96 10.96 0 0 1-3.18.472c-6.076 0-11.002-4.926-11.002-11s4.926-11.002 11.002-11.002H1064c-9.941 0-18 8.059-18 18" fill="#000064"/></g><g clip-path="url(#B)" opacity=".5"><path d="M1092 1326.96c0 7.18-5.82 13-13 13-.168 0-.331-.022-.498-.029-2.243 4.987-6.815 8.691-12.333 9.733-.389.069-.778.136-1.175.18l-.254.028a18.18 18.18 0 0 1-1.74.088 18 18 0 0 1-3.172-.288c-3.151-.597-5.984-2.072-8.259-4.151 1.435.281 2.913.439 4.431.439 6.727 0 12.77-2.896 16.973-7.5-1.615-.851-3.036-2.021-4.161-3.441 1.619.598 3.362.941 5.188.941 8.284 0 15-6.716 15-15 0-.875-.091-1.728-.234-2.562 2.007 2.289 3.234 5.279 3.234 8.562" fill="#fff"/></g></g><path d="M78.623 59.627L45.997 95.05h16.531l-7.208 30.995 34.956-37.636H73.963z" fill="#ff6"/><path d="M27.017 101.824l-10.621 13.279h13.275l-10.635 13.288m81.867-26.567l-10.625 13.279h13.279l-10.641 13.288" stroke-linecap="round" stroke-linejoin="round" stroke-miterlimit="10" fill="none" stroke="#fff" stroke-width="4.428"/></svg>