<svg xmlns="http://www.w3.org/2000/svg" width="512" height="512" viewBox="0 0 135.467 135.467" xmlns:v="https://vecta.io/nano"><defs><clipPath id="A"><path d="M392 1336.96h32v-22h-32z"/></clipPath><clipPath id="B"><path d="M411.57 1350.96H452v-31.56h-40.43z"/></clipPath></defs><path d="M105.752 29.77l-1.1.055C98.778 16.764 85.679 7.655 70.43 7.655c-18.841 0-34.394 13.894-37.086 31.992a24.221 24.221 0 0 0-7.081-1.058c-13.417 0-24.294 10.877-24.294 24.29s10.877 24.294 24.294 24.294h79.23.258c15.85 0 28.701-12.843 28.701-28.699s-12.851-28.703-28.701-28.703" fill="#cdf0f0"/><g transform="matrix(2.2081 0 0 -2.2081 -863.61486 2990.7659)"><g clip-path="url(#A)" opacity=".1"><path d="M406 1332.96c0 1.192.121 2.356.342 3.483l-.16.047a10.96 10.96 0 0 1-3.18.472c-6.076 0-11.002-4.926-11.002-11s4.926-11.002 11.002-11.002H424c-9.941 0-18 8.059-18 18" fill="#000064"/></g><g clip-path="url(#B)" opacity=".5"><path d="M452 1327.96c0 7.18-5.82 13-13 13-.168 0-.331-.022-.498-.029-2.243 4.987-6.815 8.691-12.333 9.733-.389.069-.778.136-1.175.18l-.254.028c-.573.055-1.153.088-1.74.088a18 18 0 0 1-3.172-.288c-3.152-.597-5.985-2.072-8.259-4.151 1.435.281 2.914.439 4.431.439 6.727 0 12.769-2.896 16.973-7.5-1.615-.851-3.036-2.021-4.161-3.441a14.93 14.93 0 0 0 5.188.941c8.284 0 15-6.716 15-15 0-.875-.091-1.728-.234-2.562 2.007 2.289 3.234 5.279 3.234 8.562" fill="#fff"/></g></g><path d="M78.675 58.467l-32.543 35.33H62.62l-7.19 30.913 34.864-37.538H74.027z" fill="#ff6"/><g fill="none" stroke-linecap="round" stroke-linejoin="round" stroke-miterlimit="10" stroke-width="4.417"><path d="M32.871 104.973L18.84 122.639" stroke="#fff"/><path d="M103.556 104.972l-14.051 17.553" stroke="#fffffe"/></g></svg>