<svg xmlns="http://www.w3.org/2000/svg" width="512" height="512" viewBox="0 0 135.467 135.467" xmlns:v="https://vecta.io/nano"><defs><clipPath id="A"><path d="M392 1336.96h32v-22h-32z"/></clipPath><clipPath id="B"><path d="M411.57 1350.96H452v-31.56h-40.43z"/></clipPath></defs><path d="M104.604 30.889c-.359 0-.71.041-1.065.053C97.852 18.297 85.17 9.478 70.406 9.478c-18.242 0-33.3 13.452-35.906 30.974a23.45 23.45 0 0 0-6.856-1.024c-12.99 0-23.521 10.531-23.521 23.517s10.531 23.521 23.521 23.521h76.709.25c15.346 0 27.788-12.434 27.788-27.786s-12.442-27.79-27.788-27.79" fill="#cdf0f0"/><g transform="matrix(2.137876 0 0 -2.137876 -833.92396 2897.687)"><g clip-path="url(#A)" opacity=".1"><path d="M406 1332.96c0 1.192.121 2.356.342 3.483l-.16.047a10.96 10.96 0 0 1-3.18.472c-6.076 0-11.002-4.926-11.002-11s4.926-11.002 11.002-11.002H424c-9.941 0-18 8.059-18 18" fill="#000064"/></g><g clip-path="url(#B)" opacity=".5"><path d="M452 1327.96c0 7.18-5.82 13-13 13-.168 0-.331-.022-.498-.029-2.243 4.987-6.815 8.691-12.333 9.733-.389.069-.778.136-1.175.18l-.254.028c-.573.055-1.153.088-1.74.088a18 18 0 0 1-3.172-.288c-3.152-.597-5.985-2.072-8.259-4.151 1.435.281 2.914.439 4.431.439 6.727 0 12.769-2.896 16.973-7.5-1.615-.851-3.036-2.021-4.161-3.441a14.93 14.93 0 0 0 5.188.941c8.284 0 15-6.716 15-15 0-.875-.091-1.728-.234-2.562 2.007 2.289 3.234 5.279 3.234 8.562" fill="#fff"/></g></g><path d="M78.389 58.673L46.881 92.879h15.964l-6.961 29.93 33.755-36.344h-15.75z" fill="#ff6"/><g fill="none"><g stroke="#fff" stroke-linejoin="round" stroke-miterlimit="10" stroke-width="4.276"><path d="M89.639 86.465h14.719.246c15.35 0 27.792-12.438 27.792-27.784 0-15.339-12.442-27.777-27.792-27.777-.359 0-.705.041-1.06.053C97.852 18.318 85.17 9.502 70.411 9.502c-18.247 0-33.304 13.449-35.906 30.959a23.53 23.53 0 0 0-6.86-1.022A23.52 23.52 0 0 0 4.128 62.947c0 12.981 10.527 23.519 23.512 23.519h25.146" stroke-linecap="round"/><path d="M78.387 58.673L46.878 92.879h15.964l-6.961 29.93 33.755-36.344h-15.75z"/><path d="M34.041 103.696l-13.584 17.103" stroke-linecap="round"/></g><path d="M102.474 103.695l-13.603 16.994" stroke="#fffffe" stroke-linecap="round" stroke-linejoin="round" stroke-miterlimit="10" stroke-width="4.276"/></g></svg>