<svg xmlns="http://www.w3.org/2000/svg" width="512" height="512" viewBox="0 0 135.467 135.467" xmlns:v="https://vecta.io/nano"><defs><clipPath id="A"><path d="M1544 1465.96h32v-22h-32z"/></clipPath><clipPath id="B"><path d="M1563.57 1479.96H1604v-31.56h-40.43z"/></clipPath></defs><path d="M105.586 23.495l-1.093.054C98.651 10.56 85.625 1.501 70.458 1.501c-18.739 0-34.205 13.818-36.883 31.816-2.231-.681-4.594-1.052-7.043-1.052-13.344 0-24.16 10.818-24.16 24.156a24.168 24.168 0 0 0 24.16 24.16h78.797.257c15.763 0 28.544-12.773 28.544-28.542s-12.781-28.546-28.544-28.546" fill="#cdf0f0"/><g transform="matrix(2.1961 0 0 -2.1961 -3388.3387 3251.6011)"><g clip-path="url(#A)" opacity=".1"><path d="M1558 1461.96c0 1.192.121 2.356.342 3.483l-.16.047a10.96 10.96 0 0 1-3.18.472c-6.076 0-11.002-4.926-11.002-11s4.926-11.002 11.002-11.002H1576c-9.941 0-18 8.059-18 18" fill="#000064"/></g><g clip-path="url(#B)" opacity=".5"><path d="M1604 1456.96c0 7.18-5.82 13-13 13-.168 0-.331-.022-.498-.029-2.243 4.987-6.815 8.691-12.333 9.733-.389.069-.778.136-1.175.18l-.254.028a18.18 18.18 0 0 1-1.74.088 18 18 0 0 1-3.172-.288c-3.151-.597-5.984-2.072-8.259-4.151 1.435.281 2.913.439 4.431.439 6.727 0 12.77-2.896 16.973-7.5-1.615-.851-3.036-2.021-4.161-3.441 1.619.598 3.362.941 5.188.941 8.284 0 15-6.716 15-15 0-.875-.091-1.728-.234-2.562 2.007 2.289 3.234 5.279 3.234 8.562" fill="#fff"/></g></g><path d="M78.657 52.035L46.293 87.172h16.398l-7.151 30.744 34.674-37.333h-16.18z" fill="#ff6"/><g fill="none" stroke-linecap="round" stroke-width="4.341" stroke-linejoin="round" stroke-miterlimit="10"><path d="M17.803 114.945l-6.1 7.599" stroke="#fff"/><path d="M39.54 87.869l-12.813 15.963" stroke="#fffffa"/><path d="M95.994 104.205l-14.72 18.339m27.827-34.675l-3.477 4.335" stroke="#fff"/></g></svg>