<svg xmlns="http://www.w3.org/2000/svg" width="512" height="512" viewBox="0 0 135.467 135.467" xmlns:v="https://vecta.io/nano"><defs><clipPath id="A"><path d="M903 1465.96h32v-22h-32z"/></clipPath><clipPath id="B"><path d="M922.57 1479.96H963v-31.56h-40.43z"/></clipPath></defs><path d="M104.116 24.785c-.355 0-.701.04-1.052.053-5.617-12.49-18.143-21.2-32.725-21.2-18.018 0-32.89 13.286-35.464 30.592-2.145-.655-4.417-1.011-6.772-1.011-12.83 0-23.231 10.402-23.231 23.227s10.402 23.231 23.231 23.231h75.765.247c15.157 0 27.446-12.281 27.446-27.444s-12.289-27.448-27.446-27.448" fill="#cdf0f0"/><g transform="matrix(2.11157 0 0 -2.11157 -1901.8756 3128.7006)"><g clip-path="url(#A)" opacity=".1"><path d="M917 1461.96c0 1.192.121 2.356.342 3.483l-.16.047a10.96 10.96 0 0 1-3.18.472c-6.076 0-11.002-4.926-11.002-11s4.926-11.002 11.002-11.002H935c-9.941 0-18 8.059-18 18" fill="#000064"/></g><g clip-path="url(#B)" opacity=".5"><path d="M963 1456.96c0 7.18-5.82 13-13 13-.168 0-.331-.022-.498-.029-2.243 4.987-6.815 8.691-12.333 9.733-.389.069-.778.136-1.175.18l-.254.028c-.573.055-1.153.088-1.74.088a18 18 0 0 1-3.172-.288c-3.152-.597-5.985-2.072-8.259-4.151 1.435.281 2.914.439 4.431.439 6.727 0 12.769-2.896 16.973-7.5-1.615-.851-3.036-2.021-4.161-3.441a14.93 14.93 0 0 0 5.188.941c8.284 0 15-6.716 15-15 0-.875-.091-1.728-.234-2.562 2.007 2.289 3.234 5.279 3.234 8.562" fill="#fff"/></g></g><g fill="none" stroke="#fff" stroke-linejoin="round" stroke-miterlimit="10" stroke-width="4.223"><path d="M104.116 24.808c-.355 0-.697.04-1.047.053-5.621-12.49-18.147-21.2-32.725-21.2-18.022 0-32.894 13.288-35.464 30.592a23.17 23.17 0 0 0-6.776-1.011c-12.826 0-23.229 10.402-23.229 23.227S15.278 79.7 28.104 79.7h75.769.243c15.161 0 27.45-12.281 27.45-27.444 0-15.157-12.289-27.448-27.45-27.448z"/><path d="M25.984 96.57l-5.344 6.679m30.683-6.679l-19.169 23.941M76.666 96.57l-5.192 6.487m30.531-6.487l-19.169 23.941m-70.375-7.046h0m11.816 16.884h0m38.866-16.884h0m11.815 16.884h0" stroke-linecap="round"/></g></svg>