<svg xmlns="http://www.w3.org/2000/svg" width="512" height="512" viewBox="0 0 135.467 135.467" xmlns:v="https://vecta.io/nano"><defs><clipPath id="A"><path d="M903 1465.96h32v-22h-32z"/></clipPath><clipPath id="B"><path d="M922.57 1479.96H963v-31.56h-40.43z"/></clipPath></defs><path d="M104.584 24.143c-.364 0-.718.041-1.078.054-5.755-12.796-18.588-21.72-33.527-21.72-18.46 0-33.696 13.612-36.333 31.342a23.71 23.71 0 0 0-6.938-1.036c-13.144 0-23.8 10.657-23.8 23.796s10.657 23.8 23.8 23.8h77.622.253c15.528 0 28.119-12.582 28.119-28.117s-12.59-28.121-28.119-28.121" fill="#cdf0f0"/><g transform="matrix(2.1633 0 0 -2.1633 -1950.5681 3204.126)"><g clip-path="url(#A)" opacity=".1"><path d="M917 1461.96c0 1.192.121 2.356.342 3.483l-.16.047a10.96 10.96 0 0 1-3.18.472c-6.076 0-11.002-4.926-11.002-11s4.926-11.002 11.002-11.002H935c-9.941 0-18 8.059-18 18" fill="#000064"/></g><g clip-path="url(#B)" opacity=".5"><path d="M963 1456.96c0 7.18-5.82 13-13 13-.168 0-.331-.022-.498-.029-2.243 4.987-6.815 8.691-12.333 9.733-.389.069-.778.136-1.175.18l-.254.028c-.573.055-1.153.088-1.74.088a18 18 0 0 1-3.172-.288c-3.152-.597-5.985-2.072-8.259-4.151 1.435.281 2.914.439 4.431.439 6.727 0 12.769-2.896 16.973-7.5-1.615-.851-3.036-2.021-4.161-3.441a14.93 14.93 0 0 0 5.188.941c8.284 0 15-6.716 15-15 0-.875-.091-1.728-.234-2.562 2.007 2.289 3.234 5.279 3.234 8.562" fill="#fff"/></g></g><path d="M12.55 108.317l-4.363 5.191m21.828-25.963l-7.741 9.209m9.468 19.894l-3.493 4.154m27.968-33.255L42.309 104.08m26.282-.079l-7.993 9.507m21.828-25.962l-3.499 4.158m10.812 18.303l-9.08 10.795m27.97-33.254l-8.507 10.115" stroke="#fff" fill="#fff" stroke-linecap="round" stroke-width="4.261"/></svg>