<svg xmlns="http://www.w3.org/2000/svg" width="512" height="512" viewBox="0 0 135.467 135.467" xmlns:v="https://vecta.io/nano"><defs><clipPath id="A"><path d="M903 1465.96h32v-22h-32z"/></clipPath><clipPath id="B"><path d="M922.57 1479.96H963v-31.56h-40.43z"/></clipPath></defs><path d="M104.116 24.785c-.355 0-.701.04-1.052.053-5.617-12.49-18.143-21.2-32.725-21.2-18.018 0-32.89 13.286-35.464 30.592-2.145-.655-4.417-1.011-6.772-1.011-12.83 0-23.231 10.402-23.231 23.227s10.402 23.231 23.231 23.231h75.765.247c15.157 0 27.446-12.281 27.446-27.444s-12.289-27.448-27.446-27.448" fill="#cdf0f0"/><g transform="matrix(2.1116 0 0 -2.1116 -1901.8756 3128.7006)"><g clip-path="url(#A)" opacity=".1"><path d="M917 1461.96c0 1.192.121 2.356.342 3.483l-.16.047a10.96 10.96 0 0 1-3.18.472c-6.076 0-11.002-4.926-11.002-11s4.926-11.002 11.002-11.002H935c-9.941 0-18 8.059-18 18" fill="#000064"/></g><g clip-path="url(#B)" opacity=".5"><path d="M963 1456.96c0 7.18-5.82 13-13 13-.168 0-.331-.022-.498-.029-2.243 4.987-6.815 8.691-12.333 9.733-.389.069-.778.136-1.175.18l-.254.028c-.573.055-1.153.088-1.74.088a18 18 0 0 1-3.172-.288c-3.152-.597-5.985-2.072-8.259-4.151 1.435.281 2.914.439 4.431.439 6.727 0 12.769-2.896 16.973-7.5-1.615-.851-3.036-2.021-4.161-3.441a14.93 14.93 0 0 0 5.188.941c8.284 0 15-6.716 15-15 0-.875-.091-1.728-.234-2.562 2.007 2.289 3.234 5.279 3.234 8.562" fill="#fff"/></g></g><path d="M26.626 87.795l-14.722 16.603m42.307-16.603L24.766 120.99m57.036-33.195l-14.722 16.603m42.308-16.603L79.944 120.99" stroke="#fff" stroke-linecap="round" stroke-width="4.368" fill="none" stroke-linejoin="round" stroke-miterlimit="10"/></svg>