<svg xmlns="http://www.w3.org/2000/svg" width="512" height="512" viewBox="0 0 135.467 135.467" xmlns:v="https://vecta.io/nano"><defs><clipPath id="A"><path d="M777 1465.96h32v-22h-32z"/></clipPath><clipPath id="B"><path d="M796.57 1479.96H837v-31.56h-40.43z"/></clipPath></defs><path d="M103.836 26.253c-.353 0-.699.04-1.048.053C97.192 13.86 84.711 5.181 70.18 5.181c-17.954 0-32.772 13.239-35.337 30.483a23.08 23.08 0 0 0-6.748-1.008c-12.784 0-23.149 10.364-23.149 23.144s10.364 23.149 23.149 23.149h75.495.246c15.103 0 27.348-12.237 27.348-27.346s-12.245-27.35-27.348-27.35" fill="#cdf0f0" stroke="#fff" stroke-width="2.104"/><g transform="matrix(2.10403 0 0 -2.10403 -1629.8847 3119.0848)"><g clip-path="url(#A)" opacity=".1"><path d="M791 1461.96c0 1.192.121 2.356.342 3.483l-.16.047a10.96 10.96 0 0 1-3.18.472c-6.076 0-11.002-4.926-11.002-11s4.926-11.002 11.002-11.002H809c-9.941 0-18 8.059-18 18" fill="#000064"/></g><g clip-path="url(#B)" opacity=".5"><path d="M837 1456.96c0 7.18-5.82 13-13 13-.168 0-.331-.022-.498-.029-2.243 4.987-6.815 8.691-12.333 9.733-.389.069-.778.136-1.175.18l-.254.028c-.573.055-1.153.088-1.74.088a18 18 0 0 1-3.172-.288c-3.152-.597-5.985-2.072-8.259-4.151 1.435.281 2.914.439 4.431.439 6.727 0 12.769-2.896 16.973-7.5-1.615-.851-3.036-2.021-4.161-3.441a14.93 14.93 0 0 0 5.188.941c8.284 0 15-6.716 15-15 0-.875-.091-1.728-.234-2.562 2.007 2.289 3.234 5.279 3.234 8.562" fill="#fff"/></g></g><g stroke-linejoin="round" stroke-miterlimit="10" stroke-width="4.208"><path d="M103.834 26.276c-.353 0-.694.042-1.044.053C97.19 13.883 84.708 5.204 70.182 5.204c-17.958 0-32.777 13.241-35.337 30.483-2.138-.652-4.4-1.008-6.75-1.008-12.78 0-23.144 10.364-23.144 23.144s10.364 23.149 23.144 23.149h75.497.242c15.109 0 27.354-12.237 27.354-27.346 0-15.103-12.245-27.35-27.354-27.35z" fill="none" stroke="#000" stroke-opacity="0"/><path d="M9.155 118.804l-4.204 5.254M25.983 97.78l-7.459 9.321m9.123 20.135l-3.366 4.204m26.948-33.658l-13.401 16.733m25.323-.08l-7.701 9.622M76.482 97.78l-3.371 4.208m10.418 18.525l-8.749 10.926m26.95-33.657l-8.197 10.238" stroke="#fff" fill="#fff" stroke-linecap="round"/></g></svg>