<svg xmlns="http://www.w3.org/2000/svg" width="512" height="512" viewBox="0 0 135.467 135.467" xmlns:v="https://vecta.io/nano"><defs><clipPath ><path d="M651 1465.96h32v-22h-32z"/></clipPath><clipPath ><path d="M670.57 1479.96H711v-31.56h-40.43z"/></clipPath><clipPath id="C"><path d="M903 1465.96h32v-22h-32z"/></clipPath><clipPath id="D"><path d="M922.57 1479.96H963v-31.56h-40.43z"/></clipPath></defs><g fill="none" stroke-linejoin="round" stroke-miterlimit="10" stroke-width="4.266"><path d="M104.622 27.773l-1.058.053C97.886 15.209 85.231 6.409 70.504 6.409c-18.207 0-33.231 13.424-35.827 30.906-2.167-.661-4.463-1.022-6.845-1.022-12.957 0-23.465 10.508-23.465 23.465s10.508 23.47 23.465 23.47h76.546.245c15.316 0 27.732-12.407 27.732-27.725 0-15.312-12.415-27.73-27.732-27.73z" stroke="#000" stroke-opacity="0"/><path d="M29.399 92.191l-13.661 17.068m39.259-17.068l-27.324 34.125M80.6 92.191l-13.661 17.068m39.26-17.068l-27.324 34.125" stroke="#fff" stroke-linecap="round"/></g><path d="M104.658 27.771c-.369 0-.729.042-1.094.055C97.72 14.832 84.689 5.771 69.519 5.771c-18.745 0-34.217 13.822-36.895 31.826a24.08 24.08 0 0 0-7.045-1.052c-13.348 0-24.168 10.822-24.168 24.164s10.822 24.168 24.168 24.168H104.4h.257c15.768 0 28.553-12.776 28.553-28.551s-12.785-28.555-28.553-28.555" fill="#cdf0f0"/><g transform="matrix(2.1967 0 0 -2.1967 -1982.2515 3256.8933)"><g clip-path="url(#C)" opacity=".1"><path d="M917 1461.96c0 1.192.121 2.356.342 3.483l-.16.047a10.96 10.96 0 0 1-3.18.472c-6.076 0-11.002-4.926-11.002-11s4.926-11.002 11.002-11.002H935c-9.941 0-18 8.059-18 18" fill="#000064"/></g><g clip-path="url(#D)" opacity=".5"><path d="M963 1456.96c0 7.18-5.82 13-13 13-.168 0-.331-.022-.498-.029-2.243 4.987-6.815 8.691-12.333 9.733-.389.069-.778.136-1.175.18l-.254.028c-.573.055-1.153.088-1.74.088a18 18 0 0 1-3.172-.288c-3.152-.597-5.985-2.072-8.259-4.151 1.435.281 2.914.439 4.431.439 6.727 0 12.769-2.896 16.973-7.5-1.615-.851-3.036-2.021-4.161-3.441a14.93 14.93 0 0 0 5.188.941c8.284 0 15-6.716 15-15 0-.875-.091-1.728-.234-2.562 2.007 2.289 3.234 5.279 3.234 8.562" fill="#fff"/></g></g></svg>