<svg xmlns="http://www.w3.org/2000/svg" xmlns:xlink="http://www.w3.org/1999/xlink" width="512" height="512" viewBox="0 0 135.467 135.467" xmlns:v="https://vecta.io/nano"><defs><clipPath id="A"><path d="M520 1337.96h32v-22h-32z"/></clipPath><clipPath id="B"><path d="M539.57 1351.96H580v-31.56h-40.43z"/></clipPath><path id="C" d="M10.603 117.228c0 1.166-.946 2.112-2.112 2.112s-2.112-.946-2.112-2.112.946-2.112 2.112-2.112 2.112.946 2.112 2.112"/><path id="D" d="M10.603 117.228c0 1.166-.946 2.112-2.112 2.112s-2.112-.946-2.112-2.112.946-2.112 2.112-2.112 2.112.946 2.112 2.112z"/></defs><path d="M103.514 24.325c-.355 0-.701.04-1.052.053C96.846 11.887 84.32 3.177 69.737 3.177c-18.018 0-32.891 13.286-35.465 30.593-2.145-.655-4.418-1.011-6.772-1.011-12.83 0-23.232 10.402-23.232 23.228S14.67 79.219 27.5 79.219h75.767.247c15.157 0 27.447-12.281 27.447-27.445s-12.29-27.449-27.447-27.449" fill="#cdf0f0"/><g transform="matrix(2.111624 0 0 -2.111624 -1093.7768 2858.032)"><g clip-path="url(#A)" opacity=".1"><path d="M534 1333.96c0 1.192.121 2.356.342 3.483l-.16.047a10.96 10.96 0 0 1-3.18.472c-6.076 0-11.002-4.926-11.002-11s4.926-11.002 11.002-11.002H552c-9.941 0-18 8.059-18 18" fill="#000064"/></g><g clip-path="url(#B)" opacity=".5"><path d="M580 1328.96c0 7.18-5.82 13-13 13-.168 0-.331-.022-.498-.029-2.243 4.987-6.815 8.691-12.333 9.733-.389.069-.778.136-1.175.18l-.254.028c-.573.055-1.153.088-1.74.088a18 18 0 0 1-3.172-.288c-3.152-.597-5.985-2.072-8.259-4.151 1.435.281 2.914.439 4.431.439 6.727 0 12.769-2.896 16.973-7.5-1.615-.851-3.036-2.021-4.161-3.441a14.93 14.93 0 0 0 5.188.941c8.284 0 15-6.716 15-15 0-.875-.091-1.728-.234-2.562 2.007 2.289 3.234 5.279 3.234 8.562" fill="#fff"/></g></g><g fill="#cdf0f0" stroke="#fff" stroke-width="2.112"><path d="M126.742 117.23z"/><use xlink:href="#C"/><use xlink:href="#C" x="118.251"/></g><g fill="none" stroke-linejoin="round" stroke-miterlimit="10" stroke-width="4.223"><path d="M103.514 24.348c-.355 0-.697.042-1.047.053C96.846 11.91 84.32 3.2 69.741 3.2c-18.023 0-32.895 13.288-35.465 30.593a23.17 23.17 0 0 0-6.776-1.011c-12.826 0-23.228 10.402-23.228 23.228S14.674 79.237 27.5 79.237h75.771c.082 0 .16.013.243.013 15.161 0 27.451-12.29 27.451-27.453s-12.29-27.449-27.451-27.449z" stroke="#fffff9"/><g stroke="#fff"><path d="M92.952 96.112v33.786M76.063 96.112v12.655M59.17 96.112v21.108M42.281 96.112v33.786m-21.046-12.461c8.702-.729 17.292 4.031 21.047 12.461m71.72-12.461c-8.702-.729-17.296 4.031-21.051 12.461m-33.781-.001h0m16.893-8.446h0m50.679-4.221h0" stroke-linecap="round"/><use xlink:href="#D"/><use xlink:href="#D" x="118.251"/></g></g></svg>