<svg xmlns="http://www.w3.org/2000/svg" width="512" height="512" viewBox="0 0 135.467 135.467" xmlns:v="https://vecta.io/nano"><defs><clipPath id="A"><path d="M533.01 1197.96H556v-16h-22.99z"/></clipPath><clipPath id="B"><path d="M546.259 1209.96H577v-25.35h-30.741z"/></clipPath><clipPath id="C"><path d="M531.975 1209.64h16.176v-14.74h-16.176z"/></clipPath></defs><path d="M106.766 35.309c-5.414-12.975-18.216-22.097-33.156-22.097-19.01 0-34.527 14.767-35.806 33.448-.962-.13-1.916-.296-2.921-.296-12.209 0-22.108 9.902-22.108 22.108s9.898 22.108 22.108 22.108h71.849c15.26 0 27.629-12.377 27.629-27.639 0-15.251-12.353-27.615-27.595-27.632" fill="#cdf0f0"/><g transform="matrix(2.7634 0 0 -2.7634 -1460.1623 3356.8528)"><g clip-path="url(#A)" opacity=".1"><path d="M542 1195.96c0 .633.057 1.251.138 1.862l-.067.067c-.001-.012-.004-.024-.005-.036-.347.047-.693.107-1.056.107-4.418 0-8-3.583-8-8a8 8 0 0 1 8-8H556c-7.732 0-14 6.268-14 14" fill="#000064"/></g><g clip-path="url(#B)" opacity=".5"><path d="M563.172 1201.185c-1.345-.562-2.546-1.401-3.52-2.458a12.03 12.03 0 0 0 2.348.233c6.628 0 12-5.373 12-12a12.03 12.03 0 0 0-.233-2.348c1.983 1.828 3.233 4.439 3.233 7.348 0 5.304-4.133 9.632-9.352 9.967-.209.015-.415.034-.626.034-1.959 4.695-6.592 7.996-11.998 7.996-3.383 0-6.456-1.297-8.765-3.414 1.208.26 2.455.417 3.741.417 5.214 0 9.891-2.23 13.172-5.775" fill="#fff"/></g></g><path d="M34.862 46.377c1.003 0 1.96.166 2.921.296.81-11.83 7.337-22.074 16.835-28.01l-.009-.014c-4.294-9.692-14-16.447-25.279-16.447-15.262 0-27.634 12.367-27.634 27.634 0 11.024 6.461 20.546 15.804 24.978l.009.005c4.049-5.134 10.311-8.442 17.354-8.442" fill="#fc0"/><g clip-path="url(#C)" opacity=".1" transform="matrix(2.7634 0 0 -2.7634 -1460.1623 3356.8528)"><path d="M534.719 1194.903h.003c1.465 1.857 3.731 3.055 6.28 3.055.363 0 .709-.06 1.057-.107.293 4.281 2.655 7.988 6.093 10.136l-.003.01c-.259.583-.576 1.133-.936 1.651-5.541-1.225-9.748-5.978-10.146-11.788-.348.047-.694.107-1.057.107a7.95 7.95 0 0 1-4.035-1.101c.799-.793 1.715-1.468 2.744-1.956" fill="#000064"/></g><path d="M29.347 101.733l-5.526 5.524m33.161-5.524l-16.58 19.342m44.215-19.342l-5.526 5.524m33.161-5.524l-19.344 22.104" stroke-linecap="round" stroke-width="5.526" fill="none" stroke="#fff" stroke-linejoin="round" stroke-miterlimit="10"/></svg>