<svg xmlns="http://www.w3.org/2000/svg" width="512" height="512" viewBox="0 0 135.467 135.467" xmlns:v="https://vecta.io/nano"><style><![CDATA[.B{stroke-linejoin:round}.C{stroke-miterlimit:10}.D{stroke-width:4.365}.E{stroke-linecap:round}]]></style><defs><clipPath id="A"><path d="M533.01 1197.96H556v-16h-22.99z"/></clipPath><clipPath id="B"><path d="M546.259 1209.96H577v-25.35h-30.741z"/></clipPath><clipPath id="C"><path d="M531.975 1209.64h16.176v-14.74h-16.176z"/></clipPath></defs><path d="M107.925 51.143C103.649 40.895 93.537 33.69 81.737 33.69c-15.015 0-27.271 11.664-28.281 26.419-.76-.103-1.513-.234-2.307-.234-9.643 0-17.462 7.821-17.462 17.462s7.818 17.462 17.462 17.462h56.75c12.053 0 21.823-9.776 21.823-21.831 0-12.046-9.757-21.812-21.796-21.825" fill="#cdf0f0"/><g transform="matrix(2.182702 0 0 -2.182702 -1129.7136 2674.6653)"><g clip-path="url(#A)" opacity=".1"><path d="M542 1195.96c0 .633.057 1.251.138 1.862l-.067.067c-.001-.012-.004-.024-.005-.036-.347.047-.693.107-1.056.107-4.418 0-8-3.583-8-8a8 8 0 0 1 8-8H556c-7.732 0-14 6.268-14 14" fill="#000064"/></g><g clip-path="url(#B)" opacity=".5"><path d="M563.172 1201.185c-1.345-.562-2.546-1.401-3.52-2.458a12.03 12.03 0 0 0 2.348.233c6.628 0 12-5.373 12-12a12.03 12.03 0 0 0-.233-2.348c1.983 1.828 3.233 4.439 3.233 7.348 0 5.304-4.133 9.632-9.352 9.967-.209.015-.415.034-.626.034-1.959 4.695-6.592 7.996-11.998 7.996-3.383 0-6.456-1.297-8.765-3.414 1.208.26 2.455.417 3.741.417 5.214 0 9.891-2.23 13.172-5.775" fill="#fff"/></g></g><path d="M51.132 59.885c.792 0 1.548.131 2.307.234.64-9.344 5.795-17.435 13.297-22.124l-.007-.011c-3.392-7.655-11.058-12.991-19.967-12.991-12.055 0-21.827 9.768-21.827 21.827 0 8.707 5.103 16.228 12.483 19.729l.007.004c3.198-4.055 8.144-6.668 13.707-6.668" fill="#fc0"/><g clip-path="url(#C)" opacity=".1" transform="matrix(2.182702 0 0 -2.182702 -1129.7136 2674.6653)"><path d="M534.719 1194.903l.003-.002c1.465 1.857 3.731 3.055 6.28 3.055.363 0 .709-.06 1.057-.107.293 4.281 2.655 7.988 6.093 10.136l-.003.005c-.259.583-.576 1.133-.936 1.651-5.541-1.225-9.748-5.978-10.146-11.788-.348.047-.694.107-1.057.107a7.95 7.95 0 0 1-4.035-1.101c.799-.793 1.715-1.468 2.744-1.956" fill="#000064"/></g><g fill="none" stroke="#fff" class="B C D"><path d="M37.418 66.518c-7.38-3.499-12.483-11.023-12.483-19.732a21.83 21.83 0 0 1 21.827-21.827c8.91 0 16.575 5.341 19.97 12.994M46.767 3.134v8.772m-34.902 34.9H3.091m14.073-29.601l4.924 4.924m54.278-4.924l-4.92 4.922M22.088 71.484l-4.924 4.924" class="E"/><path d="M107.908 51.122C103.632 40.874 93.52 33.669 81.72 33.669c-15.015 0-27.271 11.664-28.281 26.417-.76-.1-1.513-.231-2.307-.231-9.643 0-17.462 7.821-17.462 17.462s7.818 17.462 17.462 17.462h56.75c12.053 0 21.823-9.776 21.823-21.831 0-12.046-9.757-21.812-21.796-21.825z"/><path d="M42.397 105.996l-4.365 4.363m26.192-4.363l-13.096 15.277m34.923-15.277l-4.365 4.363m26.192-4.363l-15.279 17.459m-60.118-5.07h0m10.773 13.802h0m32.881-13.802h0m10.777 13.802h0" class="E"/></g></svg>