<svg xmlns="http://www.w3.org/2000/svg" width="512" height="512" viewBox="0 0 135.467 135.467" xmlns:v="https://vecta.io/nano"><defs><clipPath id="A"><path d="M903 1465.96h32v-22h-32z"/></clipPath><clipPath id="B"><path d="M922.57 1479.96H963v-31.56h-40.43z"/></clipPath></defs><path d="M104.127 25.944c-.354 0-.699.04-1.049.053C97.474 13.535 84.976 4.845 70.427 4.845c-17.977 0-32.815 13.256-35.383 30.523a23.11 23.11 0 0 0-6.756-1.009c-12.801 0-23.179 10.378-23.179 23.174s10.378 23.179 23.179 23.179h75.593.246c15.122 0 27.384-12.253 27.384-27.382s-12.261-27.386-27.384-27.386" fill="#cdf0f0"/><g transform="matrix(2.10677 0 0 -2.10677 -1897.3048 3122.8037)"><g clip-path="url(#A)" opacity=".1"><path d="M917 1461.96c0 1.192.121 2.356.342 3.483l-.16.047a10.96 10.96 0 0 1-3.18.472c-6.076 0-11.002-4.926-11.002-11s4.926-11.002 11.002-11.002H935c-9.941 0-18 8.059-18 18" fill="#000064"/></g><g clip-path="url(#B)" opacity=".5"><path d="M963 1456.96c0 7.18-5.82 13-13 13-.168 0-.331-.022-.498-.029-2.243 4.987-6.815 8.691-12.333 9.733-.389.069-.778.136-1.175.18l-.254.028c-.573.055-1.153.088-1.74.088a18 18 0 0 1-3.172-.288c-3.152-.597-5.985-2.072-8.259-4.151 1.435.281 2.914.439 4.431.439 6.727 0 12.769-2.896 16.973-7.5-1.615-.851-3.036-2.021-4.161-3.441a14.93 14.93 0 0 0 5.188.941c8.284 0 15-6.716 15-15 0-.875-.091-1.728-.234-2.562 2.007 2.289 3.234 5.279 3.234 8.562" fill="#fff"/></g></g><g fill="none" stroke="#fff" stroke-linejoin="round" stroke-miterlimit="10" stroke-width="4.214"><path d="M104.127 25.967c-.354 0-.695.04-1.045.053C97.474 13.558 84.976 4.867 70.431 4.867c-17.981 0-32.819 13.258-35.383 30.523-2.14-.653-4.407-1.009-6.761-1.009-12.797 0-23.177 10.378-23.177 23.174s10.38 23.179 23.177 23.179h75.597.242c15.127 0 27.388-12.253 27.388-27.382 0-15.122-12.261-27.386-27.388-27.386z"/><path d="M26.172 97.566l-5.332 6.664m30.613-6.664l-19.125 23.887m44.411-23.887l-5.181 6.472m30.462-6.472l-19.125 23.887m-70.215-7.031h0m11.789 16.846h0m38.777-16.846h0m11.789 16.846h0" stroke-linecap="round"/></g></svg>