<svg xmlns="http://www.w3.org/2000/svg" width="512" height="512" viewBox="0 0 135.467 135.467" xmlns:v="https://vecta.io/nano"><defs><clipPath id="A"><path d="M903 1465.96h32v-22h-32z"/></clipPath><clipPath id="B"><path d="M922.57 1479.96H963v-31.56h-40.43z"/></clipPath></defs><path d="M104.459 26.509c-.363 0-.718.041-1.077.054C97.628 13.768 84.795 4.845 69.856 4.845c-18.458 0-33.694 13.611-36.331 31.34a23.729 23.729 0 0 0-6.937-1.036c-13.144 0-23.8 10.656-23.8 23.795s10.656 23.8 23.8 23.8h77.617.253c15.527 0 28.117-12.581 28.117-28.115s-12.589-28.119-28.117-28.119" fill="#cdf0f0"/><g transform="matrix(2.1632 0 0 -2.1632 -1950.5689 3206.2987)"><g clip-path="url(#A)" opacity=".1"><path d="M917 1461.96c0 1.192.121 2.356.342 3.483l-.16.047a10.96 10.96 0 0 1-3.18.472c-6.076 0-11.002-4.926-11.002-11s4.926-11.002 11.002-11.002H935c-9.941 0-18 8.059-18 18" fill="#000064"/></g><g clip-path="url(#B)" opacity=".5"><path d="M963 1456.96c0 7.18-5.82 13-13 13-.168 0-.331-.022-.498-.029-2.243 4.987-6.815 8.691-12.333 9.733-.389.069-.778.136-1.175.18l-.254.028c-.573.055-1.153.088-1.74.088a18 18 0 0 1-3.172-.288c-3.152-.597-5.985-2.072-8.259-4.151 1.435.281 2.914.439 4.431.439 6.727 0 12.769-2.896 16.973-7.5-1.615-.851-3.036-2.021-4.161-3.441a14.93 14.93 0 0 0 5.188.941c8.284 0 15-6.716 15-15 0-.875-.091-1.728-.234-2.562 2.007 2.289 3.234 5.279 3.234 8.562" fill="#fff"/></g></g><path d="M25.62 89.223l-5.475 6.843m31.433-6.843l-19.638 24.527m45.601-24.527l-5.32 6.645m31.278-6.645l-19.638 24.527m-72.097-7.219h0m12.105 17.297h0m39.816-17.297h0m12.105 17.297h0" stroke-linecap="round" fill="none" stroke="#fff" stroke-linejoin="round" stroke-miterlimit="10" stroke-width="4.327"/></svg>