<svg xmlns="http://www.w3.org/2000/svg" width="512" height="512" viewBox="0 0 135.467 135.467" xmlns:v="https://vecta.io/nano"><defs><clipPath ><path d="M651 1465.96h32v-22h-32z"/></clipPath><clipPath ><path d="M670.57 1479.96H711v-31.56h-40.43z"/></clipPath><clipPath id="C"><path d="M903 1465.96h32v-22h-32z"/></clipPath><clipPath id="D"><path d="M922.57 1479.96H963v-31.56h-40.43z"/></clipPath></defs><g fill="none" stroke-width="4.218" stroke-linejoin="round" stroke-miterlimit="10"><path d="M104.958 24.858l-1.046.052C98.298 12.435 85.785 3.734 71.224 3.734c-18.002 0-32.857 13.273-35.424 30.558-2.143-.654-4.413-1.011-6.768-1.011-12.811 0-23.201 10.39-23.201 23.201s10.39 23.206 23.201 23.206h75.685.242c15.144 0 27.42-12.267 27.42-27.413 0-15.14-12.275-27.418-27.42-27.418z" stroke="#000" stroke-opacity="0"/><path d="M30.124 89.351l-13.507 16.876m38.817-16.876l-27.017 33.741m52.332-33.741l-13.507 16.876m38.818-16.876l-27.017 33.741" stroke="#fff" stroke-linecap="round"/></g><path d="M105.728 25.297c-.372 0-.734.042-1.101.055C98.746 12.276 85.632 3.158 70.366 3.158c-18.863 0-34.433 13.909-37.128 32.027a24.23 24.23 0 0 0-7.09-1.058c-13.432 0-24.321 10.89-24.321 24.317a24.33 24.33 0 0 0 24.321 24.321h79.32.259c15.868 0 28.734-12.857 28.734-28.732s-12.866-28.736-28.734-28.736" fill="#cdf0f0"/><g transform="matrix(2.2107 0 0 -2.2107 -1994.3908 3274.8573)"><g clip-path="url(#C)" opacity=".1"><path d="M917 1461.96c0 1.192.121 2.356.342 3.483l-.16.047a10.96 10.96 0 0 1-3.18.472c-6.076 0-11.002-4.926-11.002-11s4.926-11.002 11.002-11.002H935c-9.941 0-18 8.059-18 18" fill="#000064"/></g><g clip-path="url(#D)" opacity=".5"><path d="M963 1456.96c0 7.18-5.82 13-13 13-.168 0-.331-.022-.498-.029-2.243 4.987-6.815 8.691-12.333 9.733-.389.069-.778.136-1.175.18l-.254.028c-.573.055-1.153.088-1.74.088a18 18 0 0 1-3.172-.288c-3.152-.597-5.985-2.072-8.259-4.151 1.435.281 2.914.439 4.431.439 6.727 0 12.769-2.896 16.973-7.5-1.615-.851-3.036-2.021-4.161-3.441a14.93 14.93 0 0 0 5.188.941c8.284 0 15-6.716 15-15 0-.875-.091-1.728-.234-2.562 2.007 2.289 3.234 5.279 3.234 8.562" fill="#fff"/></g></g></svg>