<svg xmlns="http://www.w3.org/2000/svg" width="512" height="512" viewBox="0 0 135.467 135.467" xmlns:v="https://vecta.io/nano"><defs><clipPath id="A"><path d="M651 1465.96h32v-22h-32z"/></clipPath><clipPath id="B"><path d="M670.57 1479.96H711v-31.56h-40.43z"/></clipPath></defs><path d="M104.622 25.122c-.358 0-.708.041-1.062.053C97.886 12.558 85.231 3.758 70.5 3.758c-18.203 0-33.227 13.422-35.827 30.906a23.4 23.4 0 0 0-6.841-1.022c-12.961 0-23.47 10.508-23.47 23.465s10.508 23.47 23.47 23.47h76.542.25c15.312 0 27.728-12.407 27.728-27.725s-12.415-27.73-27.728-27.73" fill="#cdf0f0" stroke="#fff" stroke-width="2.133"/><g transform="matrix(2.133216 0 0 -2.133216 -1384.3624 3160.8561)"><g clip-path="url(#A)" opacity=".1"><path d="M665 1461.96c0 1.192.121 2.356.342 3.483l-.16.047a10.96 10.96 0 0 1-3.18.472c-6.076 0-11.002-4.926-11.002-11s4.926-11.002 11.002-11.002H683c-9.941 0-18 8.059-18 18" fill="#000064"/></g><g clip-path="url(#B)" opacity=".5"><path d="M711 1456.96c0 7.18-5.82 13-13 13-.168 0-.331-.022-.498-.029-2.243 4.987-6.815 8.691-12.333 9.733-.389.069-.778.136-1.175.18l-.254.028c-.573.055-1.153.088-1.74.088a18 18 0 0 1-3.172-.288c-3.152-.597-5.985-2.072-8.259-4.151 1.435.281 2.914.439 4.431.439 6.727 0 12.769-2.896 16.973-7.5-1.615-.851-3.036-2.021-4.161-3.441a14.93 14.93 0 0 0 5.188.941c8.284 0 15-6.716 15-15 0-.875-.091-1.728-.234-2.562 2.007 2.289 3.234 5.279 3.234 8.562" fill="#fff"/></g></g><g fill="none" stroke-linejoin="round" stroke-miterlimit="10" stroke-width="4.266"><path d="M104.622 25.122c-.358 0-.704.043-1.058.053C97.886 12.558 85.231 3.758 70.504 3.758c-18.207 0-33.231 13.424-35.827 30.906-2.167-.661-4.463-1.022-6.845-1.022-12.957 0-23.465 10.508-23.465 23.465s10.508 23.47 23.465 23.47h76.546.245c15.316 0 27.732-12.407 27.732-27.725 0-15.312-12.415-27.73-27.732-27.73z" stroke="#000" stroke-opacity="0"/><path d="M25.422 95.505l-13.661 17.068M51.02 95.505L23.696 129.63m52.927-34.125l-13.661 17.068m39.26-17.068L74.898 129.63" stroke="#fff" stroke-linecap="round"/></g></svg>