<svg xmlns="http://www.w3.org/2000/svg" width="512" height="512" viewBox="0 0 135.467 135.467" xmlns:v="https://vecta.io/nano"><defs><clipPath id="A"><path d="M392 1465.96h32v-22h-32z"/></clipPath><clipPath id="B"><path d="M411.57 1479.96H452v-31.56h-40.43z"/></clipPath></defs><path d="M104.078 24.775c-.358 0-.707.04-1.06.053C97.355 12.235 84.725 3.453 70.023 3.453c-18.167 0-33.161 13.396-35.756 30.845-2.163-.66-4.454-1.02-6.828-1.02-12.936 0-23.423 10.487-23.423 23.419A23.43 23.43 0 0 0 27.439 80.12h76.39.249c15.282 0 27.672-12.382 27.672-27.67s-12.391-27.675-27.672-27.675" fill="#cdf0f0"/><g transform="matrix(2.128976 0 0 -2.128976 -830.54255 3154.2763)"><g clip-path="url(#A)" opacity=".1"><path d="M406 1461.96c0 1.192.121 2.356.342 3.483l-.16.047a10.96 10.96 0 0 1-3.18.472c-6.076 0-11.002-4.926-11.002-11s4.926-11.002 11.002-11.002H424c-9.941 0-18 8.059-18 18" fill="#000064"/></g><g clip-path="url(#B)" opacity=".5"><path d="M452 1456.96c0 7.18-5.82 13-13 13-.168 0-.331-.022-.498-.029-2.243 4.987-6.815 8.691-12.333 9.733-.389.069-.778.136-1.175.18l-.254.028c-.573.055-1.153.088-1.74.088a18 18 0 0 1-3.172-.288c-3.152-.597-5.985-2.072-8.259-4.151 1.435.281 2.914.439 4.431.439 6.727 0 12.769-2.896 16.973-7.5-1.615-.851-3.036-2.021-4.161-3.441a14.93 14.93 0 0 0 5.188.941c8.284 0 15-6.716 15-15 0-.875-.091-1.728-.234-2.562 2.007 2.289 3.234 5.279 3.234 8.562" fill="#fff"/></g></g><g fill="none" stroke="#fff" stroke-linejoin="round" stroke-miterlimit="10" stroke-width="4.258"><path d="M104.082 24.799c-.358 0-.707.04-1.06.053C97.359 12.266 84.73 3.488 70.027 3.488c-18.167 0-33.161 13.391-35.756 30.83-2.163-.658-4.454-1.018-6.828-1.018C14.508 33.3 4.02 43.783 4.02 56.71s10.487 23.412 23.423 23.412h76.39.249c15.282 0 27.672-12.378 27.672-27.658s-12.391-27.666-27.672-27.666z"/><path d="M97.691 95.023V116.3M76.405 95.023v8.499m-21.294-8.499V116.3M33.826 95.023v12.757m0 10.656v4.258m21.285 4.258v4.258m21.294-17.038v4.258m21.286 8.528v4.258" stroke-linecap="round"/></g></svg>