<svg xmlns="http://www.w3.org/2000/svg" width="512" height="512" viewBox="0 0 135.467 135.467" xmlns:v="https://vecta.io/nano"><defs><clipPath id="A"><path d="M392 1465.96h32v-22h-32z"/></clipPath><clipPath id="B"><path d="M411.57 1479.96H452v-31.56h-40.43z"/></clipPath></defs><path d="M104.92 25.502l-1.08.054C98.072 12.729 85.207 3.784 70.232 3.784c-18.504 0-33.777 13.645-36.42 31.418a23.79 23.79 0 0 0-6.955-1.039c-13.176 0-23.858 10.682-23.858 23.854a23.865 23.865 0 0 0 23.858 23.858h77.809.254c15.566 0 28.186-12.612 28.186-28.184s-12.621-28.189-28.186-28.189" fill="#cdf0f0"/><g transform="matrix(2.1685 0 0 -2.1685 -847.05722 3213.1196)"><g clip-path="url(#A)" opacity=".1"><path d="M406 1461.96c0 1.192.121 2.356.342 3.483l-.16.047a10.96 10.96 0 0 1-3.18.472c-6.076 0-11.002-4.926-11.002-11s4.926-11.002 11.002-11.002H424c-9.941 0-18 8.059-18 18" fill="#000064"/></g><g clip-path="url(#B)" opacity=".5"><path d="M452 1456.96c0 7.18-5.82 13-13 13-.168 0-.331-.022-.498-.029-2.243 4.987-6.815 8.691-12.333 9.733-.389.069-.778.136-1.175.18l-.254.028c-.573.055-1.153.088-1.74.088a18 18 0 0 1-3.172-.288c-3.152-.597-5.985-2.072-8.259-4.151 1.435.281 2.914.439 4.431.439 6.727 0 12.769-2.896 16.973-7.5-1.615-.851-3.036-2.021-4.161-3.441a14.93 14.93 0 0 0 5.188.941c8.284 0 15-6.716 15-15 0-.875-.091-1.728-.234-2.562 2.007 2.289 3.234 5.279 3.234 8.562" fill="#fff"/></g></g><path d="M100.78 91.994v21.673M79.098 91.994v8.657m-21.69-8.657v21.673M35.727 91.994v12.994m0 10.854v4.337m21.681 4.337v4.337m21.69-17.355v4.337m21.682 8.687v4.337" stroke-linecap="round" fill="none" stroke="#fff" stroke-linejoin="round" stroke-miterlimit="10" stroke-width="4.337"/></svg>