<svg xmlns="http://www.w3.org/2000/svg" width="512" height="512" viewBox="0 0 135.467 135.467" xmlns:v="https://vecta.io/nano"><defs><clipPath id="A"><path d="M1544 1593.96h32v-22h-32z"/></clipPath><clipPath id="B"><path d="M1563.57 1607.96H1604v-31.56h-40.43z"/></clipPath></defs><path d="M103.916 25.387l-1.062.053C97.18 12.824 84.527 4.025 69.797 4.025c-18.201 0-33.223 13.421-35.823 30.902-2.167-.661-4.462-1.022-6.84-1.022-12.96 0-23.467 10.507-23.467 23.463s10.507 23.467 23.467 23.467h76.533.25c15.31 0 27.724-12.405 27.724-27.722s-12.414-27.727-27.724-27.727" fill="#cdf0f0"/><g transform="matrix(2.133 0 0 -2.133 -3289.6428 3433.7827)"><g clip-path="url(#A)" opacity=".1"><path d="M1558 1589.96c0 1.192.121 2.356.342 3.483l-.16.047a10.96 10.96 0 0 1-3.18.472c-6.076 0-11.002-4.926-11.002-11s4.926-11.002 11.002-11.002H1576c-9.941 0-18 8.059-18 18" fill="#000064"/></g><g clip-path="url(#B)" opacity=".5"><path d="M1604 1584.96c0 7.18-5.82 13-13 13-.168 0-.331-.022-.498-.029-2.243 4.987-6.815 8.691-12.333 9.733-.389.069-.778.136-1.175.18l-.254.028a18.18 18.18 0 0 1-1.74.088 18 18 0 0 1-3.172-.288c-3.151-.597-5.984-2.072-8.259-4.151 1.435.281 2.913.439 4.431.439 6.727 0 12.77-2.896 16.973-7.5-1.615-.851-3.036-2.021-4.161-3.441 1.619.598 3.362.941 5.188.941 8.284 0 15-6.716 15-15 0-.875-.091-1.728-.234-2.562 2.007 2.289 3.234 5.279 3.234 8.562" fill="#fff"/></g></g><g fill="none" stroke="#fff" stroke-linejoin="round" stroke-miterlimit="10" stroke-width="4.266"><path d="M103.92 25.412l-1.062.051C97.184 12.849 84.531 4.048 69.801 4.048c-18.201 0-33.223 13.425-35.823 30.902-2.167-.661-4.462-1.022-6.84-1.022-12.96 0-23.467 10.507-23.467 23.463S14.178 80.86 27.138 80.86h76.533.25c15.31 0 27.724-12.407 27.724-27.724s-12.414-27.724-27.724-27.724z"/><path d="M97.517 97.9v34.123M76.191 97.9v21.319M54.857 97.9v34.123M33.532 97.9v21.319" stroke-linecap="round"/></g></svg>