<svg xmlns="http://www.w3.org/2000/svg" width="512" height="512" viewBox="0 0 135.467 135.467" xmlns:v="https://vecta.io/nano"><defs><clipPath id="A"><path d="M1174.01 1197.96H1197v-16h-22.99z"/></clipPath><clipPath id="B"><path d="M1187.26 1209.96H1218v-25.35h-30.74z"/></clipPath><clipPath id="C"><path d="M1172.97 1209.64h16.18v-14.74h-16.18z"/></clipPath></defs><path d="M109.593 53.005c-4.347-10.419-14.629-17.744-26.625-17.744-15.266 0-27.726 11.859-28.754 26.861-.772-.104-1.538-.237-2.346-.237a17.76 17.76 0 0 0-17.753 17.753c0 9.806 7.949 17.753 17.753 17.753h57.698c12.254 0 22.187-9.94 22.187-22.196 0-12.247-9.92-22.176-22.16-22.189" fill="#cdf0f0"/><g transform="matrix(2.219149 0 0 -2.219149 -2571.1867 2720.3355)"><g clip-path="url(#A)" opacity=".1"><path d="M1183 1195.96c0 .633.057 1.251.139 1.862l-.069.067c0-.012-.003-.024-.004-.036-.347.047-.693.107-1.056.107-4.418 0-8-3.583-8-8a8 8 0 0 1 8-8H1197c-7.732 0-14 6.268-14 14" fill="#000064"/></g><g clip-path="url(#B)" opacity=".5"><path d="M1204.172 1201.185c-1.345-.562-2.546-1.401-3.52-2.458a12.03 12.03 0 0 0 2.348.233c6.627 0 12-5.373 12-12a12.11 12.11 0 0 0-.232-2.348c1.982 1.828 3.232 4.439 3.232 7.348 0 5.304-4.133 9.632-9.352 9.967-.208.015-.415.034-.626.034-1.959 4.695-6.592 7.996-11.998 7.996-3.383 0-6.456-1.297-8.764-3.414 1.208.26 2.454.417 3.74.417 5.213 0 9.891-2.23 13.172-5.775" fill="#fff"/></g></g><path d="M51.852 61.893c.806 0 1.573.133 2.346.237.65-9.5 5.892-17.727 13.519-22.493l-.007-.011c-3.449-7.783-11.242-13.208-20.301-13.208-12.256 0-22.191 9.931-22.191 22.191 0 8.852 5.188 16.499 12.691 20.059l.007.004c3.253-4.123 8.28-6.78 13.936-6.78" fill="#fc0"/><g clip-path="url(#C)" opacity=".1" transform="matrix(2.219149 0 0 -2.219149 -2571.1867 2720.3355)"><path d="M1175.719 1194.903l.003-.002c1.466 1.857 3.731 3.055 6.28 3.055.363 0 .709-.06 1.057-.107.293 4.281 2.655 7.988 6.093 10.136l-.003.005c-.258.583-.576 1.133-.936 1.651-5.541-1.225-9.748-5.978-10.146-11.788-.348.047-.694.107-1.057.107a7.95 7.95 0 0 1-4.035-1.101c.8-.793 1.715-1.468 2.744-1.956" fill="#000064"/></g><g fill="none" stroke="#fff"><g stroke-linecap="round" stroke-linejoin="round" stroke-miterlimit="10"><g stroke-width="3.364"><path d="M57.775 106.269v6.728"/><path d="M61.137 109.631l-6.727.002m31.394.001h-6.728"/><path d="M82.443 112.998l-.003-6.728m-8.426 16.821h-6.73"/><path d="M70.652 126.452l-.003-6.727m25.231.002v6.728"/><path d="M99.244 123.09h-6.728m14.864-16.821v6.728"/><path d="M110.742 109.63l-6.727.003"/></g><path d="M37.926 68.63c-7.505-3.56-12.691-11.209-12.691-20.061 0-12.259 9.933-22.191 22.189-22.191 9.061 0 16.854 5.428 20.303 13.213M47.409 4.186v8.877M11.903 48.569H3.026m13.315-31.068l6.657 6.657m55.479-6.657l-6.657 6.657M22.998 72.98l-6.657 6.657" stroke-width="4.438"/></g><path d="M109.591 52.976c-4.347-10.419-14.629-17.747-26.625-17.747-15.266 0-27.726 11.864-28.751 26.861-.774-.102-1.54-.235-2.346-.235a17.76 17.76 0 0 0-17.755 17.753 17.76 17.76 0 0 0 17.755 17.753h57.698c12.254 0 22.187-9.937 22.187-22.196 0-12.245-9.92-22.178-22.163-22.189z" stroke-linejoin="round" stroke-miterlimit="10" stroke-width="4.438"/></g></svg>