<svg xmlns="http://www.w3.org/2000/svg" width="512" height="512" viewBox="0 0 135.467 135.467" xmlns:v="https://vecta.io/nano"><defs><clipPath id="A"><path d="M1174.01 1197.96H1197v-16h-22.99z"/></clipPath><clipPath id="B"><path d="M1187.26 1209.96H1218v-25.35h-30.74z"/></clipPath><clipPath id="C"><path d="M1172.97 1209.64h16.18v-14.74h-16.18z"/></clipPath></defs><path d="M106.314 36.768c-5.33-12.775-17.937-21.757-32.646-21.757-18.719 0-33.996 14.541-35.257 32.936-.947-.128-1.886-.291-2.877-.291a21.777 21.777 0 0 0-21.768 21.768c0 12.024 9.747 21.768 21.768 21.768h70.747c15.025 0 27.205-12.188 27.205-27.216 0-15.017-12.163-27.191-27.172-27.207" fill="#cdf0f0"/><g transform="matrix(2.721 0 0 -2.721 -3180.7469 3307.3377)"><g clip-path="url(#A)" opacity=".1"><path d="M1183 1195.96c0 .633.057 1.251.139 1.862l-.069.067v-.036c-.347.047-.693.107-1.056.107-4.418 0-8-3.583-8-8a8 8 0 0 1 8-8H1197c-7.732 0-14 6.268-14 14" fill="#000064"/></g><g clip-path="url(#B)" opacity=".5"><path d="M1204.172 1201.185c-1.345-.562-2.546-1.401-3.52-2.458a12.03 12.03 0 0 0 2.348.233c6.627 0 12-5.373 12-12a12.11 12.11 0 0 0-.232-2.348c1.982 1.828 3.232 4.439 3.232 7.348 0 5.304-4.133 9.632-9.352 9.967-.208.015-.415.034-.626.034-1.959 4.695-6.592 7.996-11.998 7.996-3.383 0-6.456-1.297-8.764-3.414 1.208.26 2.454.417 3.74.417 5.213 0 9.891-2.23 13.172-5.775" fill="#fff"/></g></g><path d="M35.514 47.666c.988 0 1.929.163 2.877.291.797-11.649 7.225-21.736 16.576-27.58l-.008-.013C50.73 10.82 41.174 4.168 30.067 4.168c-15.028 0-27.21 12.177-27.21 27.21 0 10.854 6.361 20.23 15.561 24.596l.009.005c3.989-5.055 10.153-8.313 17.088-8.313" fill="#fc0"/><g clip-path="url(#C)" opacity=".1" transform="matrix(2.721 0 0 -2.721 -3180.7469 3307.3377)"><path d="M1175.719 1194.903h0c1.466 1.857 3.731 3.055 6.28 3.055.363 0 .709-.06 1.057-.107.293 4.281 2.655 7.988 6.093 10.136v.01c-.258.583-.576 1.133-.936 1.651-5.541-1.225-9.748-5.978-10.146-11.788-.348.047-.694.107-1.057.107a7.95 7.95 0 0 1-4.035-1.101c.8-.793 1.715-1.468 2.744-1.956" fill="#000064"/></g><g fill="none" stroke="#fff" stroke-width="4.125" stroke-linecap="round" stroke-linejoin="round" stroke-miterlimit="10"><path d="M42.774 100.312v8.249"/><path d="M46.896 104.434l-8.248.002m38.492.001h-8.249"/><path d="M73.02 108.562l-.004-8.249m-10.331 20.624h-8.252"/><path d="M58.563 125.058l-.004-8.248m30.936.002v8.249"/><path d="M93.62 120.936H85.37m18.225-20.624v8.249"/><path d="M107.718 104.433l-8.248.004"/></g></svg>