<svg xmlns="http://www.w3.org/2000/svg" width="512" height="512" viewBox="0 0 135.467 135.467" xmlns:v="https://vecta.io/nano"><defs><clipPath id="A"><path d="M776 1337.96h32v-22h-32z"/></clipPath><clipPath id="B"><path d="M795.57 1351.96H836v-31.56h-40.43z"/></clipPath></defs><path d="M104.463 26.308c-.356 0-.704.04-1.056.053-5.64-12.541-18.217-21.287-32.86-21.287-18.092 0-33.025 13.341-35.61 30.718a23.26 23.26 0 0 0-6.8-1.016c-12.883 0-23.327 10.444-23.327 23.323s10.444 23.327 23.327 23.327h76.077.248c15.219 0 27.559-12.331 27.559-27.557s-12.34-27.561-27.559-27.561" fill="#cdf0f0"/><g transform="matrix(2.120262 0 0 -2.120262 -1640.5126 2871.6064)"><g clip-path="url(#A)" opacity=".1"><path d="M790 1333.96c0 1.192.121 2.356.342 3.483l-.16.047a10.96 10.96 0 0 1-3.18.472c-6.076 0-11.002-4.926-11.002-11s4.926-11.002 11.002-11.002H808c-9.941 0-18 8.059-18 18" fill="#000064"/></g><g clip-path="url(#B)" opacity=".5"><path d="M836 1328.96c0 7.18-5.82 13-13 13-.168 0-.331-.022-.498-.029-2.243 4.987-6.815 8.691-12.333 9.733-.389.069-.778.136-1.175.18l-.254.028c-.573.055-1.153.088-1.74.088a18 18 0 0 1-3.172-.288c-3.152-.597-5.985-2.072-8.259-4.151 1.435.281 2.914.439 4.431.439 6.727 0 12.769-2.896 16.973-7.5-1.615-.851-3.036-2.021-4.161-3.441a14.93 14.93 0 0 0 5.188.941c8.284 0 15-6.716 15-15 0-.875-.091-1.728-.234-2.562 2.007 2.289 3.234 5.279 3.234 8.562" fill="#fff"/></g></g><g fill="none" stroke="#fff"><g stroke-linecap="round" stroke-linejoin="round" stroke-miterlimit="10" stroke-width="4.241"><path d="M38.738 93.844v8.481"/><path d="M42.975 98.084h-8.477m38.166.001h-8.481"/><path d="M68.427 102.326l-.004-8.481m-10.605 25.447h-8.485"/><path d="M53.577 123.528l-.004-8.481m31.808.005v8.477"/><path d="M89.621 119.288l-8.481.004m16.966-25.448v8.481"/><path d="M102.342 98.08l-8.477.004"/></g><path d="M104.463 26.33c-.356 0-.7.042-1.052.053C97.768 13.842 85.19 5.096 70.552 5.096c-18.096 0-33.029 13.343-35.61 30.718-2.154-.657-4.436-1.016-6.804-1.016A23.33 23.33 0 0 0 4.815 58.122c0 12.881 10.444 23.323 23.323 23.323h76.081c.083 0 .161.013.244.013 15.223 0 27.563-12.34 27.563-27.566s-12.34-27.561-27.563-27.561z" stroke-linejoin="round" stroke-miterlimit="10" stroke-width="4.241"/></g></svg>