<svg xmlns="http://www.w3.org/2000/svg" width="512" height="512" viewBox="0 0 135.467 135.467" xmlns:v="https://vecta.io/nano"><defs><clipPath id="A"><path d="M776 1337.96h32v-22h-32z"/></clipPath><clipPath id="B"><path d="M795.57 1351.96H836v-31.56h-40.43z"/></clipPath></defs><path d="M105.769 26.434c-.366 0-.724.041-1.086.054C98.885 13.596 85.955 4.605 70.902 4.605c-18.599 0-33.951 13.715-36.608 31.579a23.912 23.912 0 0 0-6.991-1.044c-13.244 0-23.981 10.737-23.981 23.977s10.737 23.981 23.981 23.981h78.209.255c15.646 0 28.331-12.677 28.331-28.329s-12.686-28.333-28.331-28.333" fill="#cdf0f0"/><g transform="matrix(2.1797 0 0 -2.1797 -1688.1116 2951.475)"><g clip-path="url(#A)" opacity=".1"><path d="M790 1333.96c0 1.192.121 2.356.342 3.483l-.16.047a10.96 10.96 0 0 1-3.18.472c-6.076 0-11.002-4.926-11.002-11s4.926-11.002 11.002-11.002H808c-9.941 0-18 8.059-18 18" fill="#000064"/></g><g clip-path="url(#B)" opacity=".5"><path d="M836 1328.96c0 7.18-5.82 13-13 13-.168 0-.331-.022-.498-.029-2.243 4.987-6.815 8.691-12.333 9.733-.389.069-.778.136-1.175.18l-.254.028c-.573.055-1.153.088-1.74.088a18 18 0 0 1-3.172-.288c-3.152-.597-5.985-2.072-8.259-4.151 1.435.281 2.914.439 4.431.439 6.727 0 12.769-2.896 16.973-7.5-1.615-.851-3.036-2.021-4.161-3.441a14.93 14.93 0 0 0 5.188.941c8.284 0 15-6.716 15-15 0-.875-.091-1.728-.234-2.562 2.007 2.289 3.234 5.279 3.234 8.562" fill="#fff"/></g></g><g fill="none" stroke="#fff" stroke-width="4.36" stroke-linecap="round" stroke-linejoin="round" stroke-miterlimit="10"><path d="M38.201 92.247v8.718"/><path d="M42.556 96.606h-8.714m39.235.001h-8.718"/><path d="M68.721 100.967l-.004-8.718m-10.902 26.16h-8.723"/><path d="M53.455 122.762l-.004-8.718m32.699.005v8.714"/><path d="M90.508 118.404l-8.718.004m17.441-26.161v8.718"/><path d="M103.585 96.602l-8.714.004"/></g></svg>