<svg xmlns="http://www.w3.org/2000/svg" width="512" height="512" viewBox="0 0 135.467 135.467" xmlns:v="https://vecta.io/nano"><defs><clipPath id="A"><path d="M776 1337.96h32v-22h-32z"/></clipPath><clipPath id="B"><path d="M795.57 1351.96H836v-31.56h-40.43z"/></clipPath></defs><path d="M104.885 26.399c-.365 0-.723.041-1.084.054C98.012 13.582 85.104 4.605 70.075 4.605c-18.569 0-33.896 13.693-36.549 31.528a23.873 23.873 0 0 0-6.979-1.043c-13.223 0-23.942 10.719-23.942 23.938S13.324 82.97 26.547 82.97h78.083.255c15.62 0 28.286-12.656 28.286-28.283s-12.665-28.288-28.286-28.288" fill="#cdf0f0"/><g transform="matrix(2.1762 0 0 -2.1762 -1686.0927 2946.7065)"><g clip-path="url(#A)" opacity=".1"><path d="M790 1333.96c0 1.192.121 2.356.342 3.483l-.16.047a10.96 10.96 0 0 1-3.18.472c-6.076 0-11.002-4.926-11.002-11s4.926-11.002 11.002-11.002H808c-9.941 0-18 8.059-18 18" fill="#000064"/></g><g clip-path="url(#B)" opacity=".5"><path d="M836 1328.96c0 7.18-5.82 13-13 13-.168 0-.331-.022-.498-.029-2.243 4.987-6.815 8.691-12.333 9.733-.389.069-.778.136-1.175.18l-.254.028c-.573.055-1.153.088-1.74.088a18 18 0 0 1-3.172-.288c-3.152-.597-5.985-2.072-8.259-4.151 1.435.281 2.914.439 4.431.439 6.727 0 12.769-2.896 16.973-7.5-1.615-.851-3.036-2.021-4.161-3.441a14.93 14.93 0 0 0 5.188.941c8.284 0 15-6.716 15-15 0-.875-.091-1.728-.234-2.562 2.007 2.289 3.234 5.279 3.234 8.562" fill="#fff"/></g></g><g fill="none" stroke="#fff" transform="matrix(1.0187 0 0 1.0187 -1.809766 -.095025)"><g stroke-width="4.273" stroke-linecap="round" stroke-linejoin="round" stroke-miterlimit="10"><path d="M38.024 111.38v-8.545"/><path d="M42.293 107.108h-8.541m38.452-.001H63.66"/><path d="M67.936 102.834l-.004 8.545M56.39 121.906h-8.549"/><path d="M52.118 126.175l-.004-8.545m32.047.004v8.541"/><path d="M88.432 121.902l-8.545.004m17.95-10.526v-8.545"/><path d="M102.105 107.112l-8.541-.004"/></g><g stroke-linecap="round" stroke-linejoin="round" stroke-miterlimit="10"><path d="M56.865 91.223h-9.04m40.701.001h-9.044" stroke-width="4.396"/><path d="M52.246 95.332l-.004-8.545m31.748-.001v8.545" stroke-width="4.403"/></g></g></svg>