<svg xmlns="http://www.w3.org/2000/svg" width="512" height="512" viewBox="0 0 135.467 135.467" xmlns:v="https://vecta.io/nano"><defs><clipPath id="A"><path d="M1160 1337.96h32v-22h-32z"/></clipPath><clipPath id="B"><path d="M1179.57 1351.96H1220v-31.56h-40.43z"/></clipPath></defs><path d="M104.822 25.946c-.365 0-.72.041-1.08.054-5.769-12.83-18.634-21.776-33.614-21.776-18.507 0-33.783 13.647-36.427 31.423a23.79 23.79 0 0 0-6.956-1.038c-13.178 0-23.862 10.684-23.862 23.858S13.567 82.33 26.745 82.33h77.823.254c15.568 0 28.191-12.615 28.191-28.189s-12.623-28.193-28.191-28.193" fill="#cdf0f0"/><g transform="matrix(2.1689 0 0 -2.1689 -2513.0744 2936.5526)"><g clip-path="url(#A)" opacity=".1"><path d="M1174 1333.96c0 1.192.121 2.356.342 3.483l-.16.047a10.96 10.96 0 0 1-3.18.472c-6.076 0-11.002-4.926-11.002-11s4.926-11.002 11.002-11.002H1192c-9.941 0-18 8.059-18 18" fill="#000064"/></g><g clip-path="url(#B)" opacity=".5"><path d="M1220 1328.96c0 7.18-5.82 13-13 13-.168 0-.331-.022-.498-.029-2.243 4.987-6.815 8.691-12.333 9.733-.389.069-.778.136-1.175.18l-.254.028a18.18 18.18 0 0 1-1.74.088 18 18 0 0 1-3.172-.288c-3.151-.597-5.984-2.072-8.259-4.151 1.435.281 2.913.439 4.431.439 6.727 0 12.77-2.896 16.973-7.5-1.615-.851-3.036-2.021-4.161-3.441 1.619.598 3.362.941 5.188.941 8.284 0 15-6.716 15-15 0-.875-.091-1.728-.234-2.562 2.007 2.289 3.234 5.279 3.234 8.562" fill="#fff"/></g></g><g fill="none" stroke="#fff" stroke-width="4.338" stroke-linecap="round" stroke-linejoin="round" stroke-miterlimit="10"><path d="M31.418 91.536l-13.89 17.353m39.917-17.353l-27.782 34.697m53.808-30.124h-8.676"/><path d="M79.139 100.447l-.004-8.676m-8.676 25.797h-8.68"/><path d="M66.121 121.901l-.004-8.673m28.201 0v8.673"/><path d="M98.655 117.564l-8.676.002M109.5 91.771v8.676"/><path d="M113.833 96.105l-8.671.004"/></g></svg>