<svg xmlns="http://www.w3.org/2000/svg" width="512" height="512" viewBox="0 0 135.467 135.467" xmlns:v="https://vecta.io/nano"><defs><clipPath id="A"><path d="M776 1337.96h32v-22h-32z"/></clipPath><clipPath id="B"><path d="M795.57 1351.96H836v-31.56h-40.43z"/></clipPath></defs><path d="M104.352 26.584c-.361 0-.713.041-1.07.054C97.569 13.934 84.829 5.074 69.995 5.074c-18.327 0-33.454 13.514-36.073 31.117a23.562 23.562 0 0 0-6.888-1.029c-13.05 0-23.63 10.58-23.63 23.626s10.58 23.63 23.63 23.63H104.1h.251c15.417 0 27.917-12.491 27.917-27.915s-12.5-27.919-27.917-27.919" fill="#cdf0f0"/><g transform="matrix(2.1478 0 0 -2.1478 -1663.3025 2908.8621)"><g clip-path="url(#A)" opacity=".1"><path d="M790 1333.96c0 1.192.121 2.356.342 3.483l-.16.047a10.96 10.96 0 0 1-3.18.472c-6.076 0-11.002-4.926-11.002-11s4.926-11.002 11.002-11.002H808c-9.941 0-18 8.059-18 18" fill="#000064"/></g><g clip-path="url(#B)" opacity=".5"><path d="M836 1328.96c0 7.18-5.82 13-13 13-.168 0-.331-.022-.498-.029-2.243 4.987-6.815 8.691-12.333 9.733-.389.069-.778.136-1.175.18l-.254.028c-.573.055-1.153.088-1.74.088a18 18 0 0 1-3.172-.288c-3.152-.597-5.985-2.072-8.259-4.151 1.435.281 2.914.439 4.431.439 6.727 0 12.769-2.896 16.973-7.5-1.615-.851-3.036-2.021-4.161-3.441a14.93 14.93 0 0 0 5.188.941c8.284 0 15-6.716 15-15 0-.875-.091-1.728-.234-2.562 2.007 2.289 3.234 5.279 3.234 8.562" fill="#fff"/></g></g><g fill="none" stroke="#fff" stroke-width="4.296" stroke-linecap="round" stroke-linejoin="round" stroke-miterlimit="10"><path d="M37.773 91.305v8.591"/><path d="M42.065 95.6h-8.587m38.662.001h-8.591"/><path d="M67.848 99.897l-.004-8.591m-10.743 25.778h-8.595"/><path d="M52.805 121.375l-.004-8.591m32.222.005v8.587"/><path d="M89.318 117.08l-8.591.004m17.187-25.779v8.591"/><path d="M102.204 95.596l-8.587.004"/></g></svg>