<svg xmlns="http://www.w3.org/2000/svg" width="512" height="512" viewBox="0 0 135.467 135.467" xmlns:v="https://vecta.io/nano"><defs><clipPath id="A"><path d="M1160 1337.96h32v-22h-32z"/></clipPath><clipPath id="B"><path d="M1179.57 1351.96H1220v-31.56h-40.43z"/></clipPath></defs><path d="M103.749 25.435c-.356 0-.703.04-1.055.053C97.061 12.96 84.498 4.224 69.871 4.224c-18.072 0-32.988 13.326-35.57 30.684a23.23 23.23 0 0 0-6.792-1.014c-12.868 0-23.301 10.433-23.301 23.297s10.433 23.301 23.301 23.301h75.992.248c15.202 0 27.528-12.318 27.528-27.526s-12.326-27.53-27.528-27.53" fill="#cdf0f0"/><g transform="matrix(2.1179 0 0 -2.1179 -2452.5474 2867.5539)"><g clip-path="url(#A)" opacity=".1"><path d="M1174 1333.96c0 1.192.121 2.356.342 3.483l-.16.047a10.96 10.96 0 0 1-3.18.472c-6.076 0-11.002-4.926-11.002-11s4.926-11.002 11.002-11.002H1192c-9.941 0-18 8.059-18 18" fill="#000064"/></g><g clip-path="url(#B)" opacity=".5"><path d="M1220 1328.96c0 7.18-5.82 13-13 13-.168 0-.331-.022-.498-.029-2.243 4.987-6.815 8.691-12.333 9.733-.389.069-.778.136-1.175.18l-.254.028a18.18 18.18 0 0 1-1.74.088 18 18 0 0 1-3.172-.288c-3.151-.597-5.984-2.072-8.259-4.151 1.435.281 2.913.439 4.431.439 6.727 0 12.77-2.896 16.973-7.5-1.615-.851-3.036-2.021-4.161-3.441 1.619.598 3.362.941 5.188.941 8.284 0 15-6.716 15-15 0-.875-.091-1.728-.234-2.562 2.007 2.289 3.234 5.279 3.234 8.562" fill="#fff"/></g></g><g fill="none" stroke="#fff"><g stroke-linecap="round" stroke-linejoin="round" stroke-miterlimit="10" stroke-width="4.236"><path d="M31.741 97.435L18.178 114.38m38.978-16.945l-27.128 33.88M82.57 101.9h-8.472"/><path d="M78.339 106.136l-.004-8.472m-8.472 25.19h-8.476"/><path d="M65.627 127.085l-.004-8.469m27.537 0v8.469"/><path d="M97.395 122.85l-8.472.002m19.062-25.188v8.472"/><path d="M112.216 101.896l-8.467.004"/></g><path d="M103.745 25.458c-.356 0-.699.04-1.05.053C97.057 12.985 84.493 4.247 69.871 4.247c-18.076 0-32.993 13.33-35.57 30.684a23.31 23.31 0 0 0-6.796-1.014c-12.864 0-23.297 10.433-23.297 23.297s10.433 23.301 23.297 23.301h75.996.244c15.206 0 27.533-12.318 27.533-27.524s-12.326-27.533-27.533-27.533z" stroke-linejoin="round" stroke-miterlimit="10" stroke-width="4.236"/></g></svg>