<svg xmlns="http://www.w3.org/2000/svg" width="512" height="512" viewBox="0 0 135.467 135.467" xmlns:v="https://vecta.io/nano"><defs><clipPath id="A"><path d="M1032 1587.96h18.61v-16H1032z"/></clipPath><clipPath id="B"><path d="M1051.57 1601.96H1092v-30h-40.43z"/></clipPath></defs><path d="M128.954 75.467c2.819-4.4 4.475-9.618 4.475-15.231 0-15.628-12.671-28.297-28.295-28.297-.366 0-.723.041-1.084.055-5.792-12.876-18.703-21.856-33.737-21.856-18.577 0-33.908 13.697-36.56 31.539-2.212-.675-4.554-1.042-6.981-1.042-13.229 0-23.95 10.723-23.95 23.946 0 3.925.962 7.619 2.636 10.888z" fill="#cdf0f0"/><g transform="matrix(2.1769 0 0 -2.1769 -2243.6882 3497.3894)"><g clip-path="url(#A)" opacity=".1"><path d="M1050.61 1571.96c-2.857 3.186-4.61 7.383-4.61 12 0 1.192.121 2.356.341 3.483l-.16.047c-1.008.305-2.074.472-3.179.472-6.077 0-11.002-4.926-11.002-11a10.94 10.94 0 0 1 1.211-5.002z" fill="#000064"/></g><g clip-path="url(#B)" opacity=".5"><path d="M1072.973 1590.46c-1.614-.851-3.036-2.021-4.161-3.441 1.619.598 3.362.941 5.188.941 8.285 0 15-6.716 15-15 0-.338-.023-.669-.048-1h.979c1.302 2.021 2.069 4.417 2.069 7 0 7.179-5.82 13-13 13-.168 0-.331-.023-.498-.03-2.243 4.988-6.815 8.691-12.333 9.734-.388.069-.778.135-1.175.179l-.253.029c-.574.055-1.153.088-1.741.088-1.084 0-2.142-.104-3.172-.289-3.151-.596-5.984-2.071-8.258-4.151 1.434.281 2.913.44 4.43.44 6.727 0 12.77-2.896 16.973-7.5" fill="#fff"/></g></g><path d="M8.121 75.467h118.677M15.892 92.883h103.746m-95.034 17.414h34.779m17.482 0l37.681.242" stroke="#fffffe" stroke-width="4.353" fill="none" stroke-linecap="round" stroke-linejoin="round" stroke-miterlimit="10"/></svg>