<svg xmlns="http://www.w3.org/2000/svg" width="512" height="512" viewBox="0 0 135.467 135.467" xmlns:v="https://vecta.io/nano"><defs><clipPath id="A"><path d="M1032 1587.96h18.61v-16H1032z"/></clipPath><clipPath id="B"><path d="M1051.57 1601.96H1092v-30h-40.43z"/></clipPath></defs><path d="M126.049 73.612c2.729-4.259 4.332-9.31 4.332-14.744 0-15.128-12.266-27.392-27.39-27.392-.354 0-.7.04-1.049.053-5.607-12.464-18.105-21.157-32.658-21.157-17.983 0-32.824 13.259-35.391 30.53-2.141-.653-4.408-1.009-6.758-1.009-12.806 0-23.184 10.38-23.184 23.18 0 3.799.931 7.375 2.552 10.54z" fill="#cdf0f0"/><g transform="matrix(2.107229 0 0 -2.107229 -2170.7092 3386.0918)"><g clip-path="url(#A)" opacity=".1"><path d="M1050.61 1571.96c-2.857 3.186-4.61 7.383-4.61 12 0 1.192.121 2.356.341 3.483l-.16.047c-1.008.305-2.074.472-3.179.472-6.077 0-11.002-4.926-11.002-11a10.94 10.94 0 0 1 1.211-5.002z" fill="#000064"/></g><g clip-path="url(#B)" opacity=".5"><path d="M1072.973 1590.46c-1.614-.851-3.036-2.021-4.161-3.441 1.619.598 3.362.941 5.188.941 8.285 0 15-6.716 15-15 0-.338-.023-.669-.048-1h.979c1.302 2.021 2.069 4.417 2.069 7 0 7.179-5.82 13-13 13-.168 0-.331-.023-.498-.03-2.243 4.988-6.815 8.691-12.333 9.734-.388.069-.778.135-1.175.179l-.253.029c-.574.055-1.153.088-1.741.088-1.084 0-2.142-.104-3.172-.289-3.151-.596-5.984-2.071-8.258-4.151 1.434.281 2.913.44 4.43.44 6.727 0 12.77-2.896 16.973-7.5" fill="#fff"/></g></g><g fill="none" stroke-linecap="round" stroke-linejoin="round" stroke-miterlimit="10" stroke-width="4.214"><path d="M130.385 58.89c0-15.128-12.264-27.394-27.394-27.394-.354 0-.695.04-1.045.057-5.609-12.466-18.11-21.159-32.662-21.159-17.981 0-32.822 13.261-35.391 30.527-2.141-.651-4.408-1.005-6.758-1.005-12.087 0-22.014 9.249-23.085 21.053" stroke="#fff"/><path d="M3.951 73.617h126.434M16.603 90.471h105.349m-96.916 16.857h33.667m16.923 0h42.1" stroke="#fffffe"/></g></svg>