<svg xmlns="http://www.w3.org/2000/svg" width="512" height="512" viewBox="0 0 135.467 135.467" xmlns:v="https://vecta.io/nano"><style><![CDATA[.B{opacity:.15}.C{fill:#000064}.D{stroke-linejoin:round}.E{stroke-miterlimit:10}.F{stroke-width:4.292}]]></style><defs><clipPath id="A"><path d="M1462 1710.46h6v-6h-6z"/></clipPath><clipPath id="B"><path d="M1464 1722.46h8.97v-5.5H1464z"/></clipPath><clipPath id="C"><path d="M1420 1710.46h31v-6h-31z"/></clipPath><clipPath id="D"><path d="M1446 1722.46h13.98v-5.5H1446z"/></clipPath><clipPath id="E"><path d="M1436 1722.46h5.98v-6H1436z"/></clipPath><clipPath id="F"><path d="M1443.99 1686.46h23.98v-5.5h-23.98z"/></clipPath><clipPath id="G"><path d="M1416 1698.46h60v-5.5h-60z"/></clipPath><clipPath id="H"><path d="M1428.99 1686.46h10.98v-5.5h-10.98z"/></clipPath><clipPath id="I"><path d="M1418 1722.46h12v-6h-12z"/></clipPath></defs><g fill="#e6f0fa"><path d="M124.006 72.142h-17.17c-2.369 0-4.292-1.923-4.292-4.292s1.923-4.292 4.292-4.292h-.009a8.59 8.59 0 0 0 8.585-8.585 8.59 8.59 0 0 0-8.585-8.585H51.034c-2.369 0-4.292-1.923-4.292-4.292a4.29 4.29 0 0 1 4.25-4.288h.004a8.59 8.59 0 0 0 8.585-8.585 8.59 8.59 0 0 0-8.585-8.585H16.698a8.59 8.59 0 0 0-8.585 8.585 8.59 8.59 0 0 0 8.585 8.585h12.916a4.29 4.29 0 0 1 4.25 4.288c0 2.369-1.923 4.292-4.292 4.292H20.99a8.59 8.59 0 0 0-8.585 8.585 8.59 8.59 0 0 0 8.585 8.585h53.652c2.369 0 4.292 1.923 4.292 4.292s-1.923 4.292-4.292 4.292H12.401a8.59 8.59 0 0 0-8.585 8.585 8.59 8.59 0 0 0 8.585 8.585h111.604a8.59 8.59 0 0 0 8.585-8.585 8.59 8.59 0 0 0-8.585-8.585M76.793 37.806h12.828a8.59 8.59 0 0 0 8.585-8.585 8.59 8.59 0 0 0-8.585-8.585H76.793a8.59 8.59 0 0 0-8.585 8.585 8.59 8.59 0 0 0 8.585 8.585"/><path d="M115.425 37.806h2.088a8.59 8.59 0 0 0 8.585-8.585 8.59 8.59 0 0 0-8.585-8.585h-2.088a8.59 8.59 0 0 0-8.585 8.585 8.59 8.59 0 0 0 8.585 8.585m-8.652 60.091H72.476a8.59 8.59 0 0 0-8.585 8.585 8.59 8.59 0 0 0 8.585 8.585h34.297a8.59 8.59 0 0 0 8.585-8.585 8.59 8.59 0 0 0-8.585-8.585m-60.095 0h-6.389a8.59 8.59 0 0 0-8.585 8.585 8.59 8.59 0 0 0 8.585 8.585h6.389a8.59 8.59 0 0 0 8.585-8.585 8.59 8.59 0 0 0-8.585-8.585"/></g><g transform="matrix(2.146237 0 0 -2.146237 -3035.255 3722.8048)" class="C"><g clip-path="url(#A)" class="B"><path d="M1463.996 1704.96a4 4 0 0 1 4 4c0 .531-.108 1.036-.297 1.5-.594-1.465-2.025-2.5-3.703-2.5h.004a2 2 0 0 1-2-2c0-.601.27-1.133.689-1.5.352.308.807.5 1.311.5z"/></g><g clip-path="url(#B)" class="B"><path d="M1468.002 1716.958h.973a4 4 0 0 1 4 4c0 .531-.109 1.036-.297 1.5-.594-1.465-2.026-2.5-3.703-2.5h-.973c-1.678 0-3.109 1.035-3.703 2.5-.189-.464-.297-.969-.297-1.5a4 4 0 0 1 4-4"/></g><g clip-path="url(#C)" class="B"><path d="M1449 1707.96h-24.998c-1.678 0-3.109 1.035-3.703 2.5-.189-.464-.297-.969-.297-1.5a4 4 0 0 1 4-4H1449c.504 0 .959-.192 1.311-.5a1.99 1.99 0 0 1 .689 1.5 2 2 0 0 1-2 2"/></g><g clip-path="url(#D)" class="B"><path d="M1450.002 1716.958h5.977a4 4 0 0 1 4 4c0 .531-.109 1.036-.297 1.5-.594-1.465-2.026-2.5-3.703-2.5h-5.977c-1.678 0-3.109 1.035-3.703 2.5-.189-.464-.297-.969-.297-1.5a4 4 0 0 1 4-4"/></g><g clip-path="url(#E)" class="B"><path d="M1437.982 1719.958h-.002a2 2 0 0 1-1.98-1.998c0-.601.271-1.134.691-1.501a1.98 1.98 0 0 0 1.289.499h.002a4 4 0 0 1 4 4c0 .531-.108 1.036-.297 1.5-.594-1.465-2.025-2.5-3.703-2.5"/></g><g clip-path="url(#F)" class="B"><path d="M1463.971 1683.96h-15.98c-1.678 0-3.11 1.035-3.704 2.5-.188-.464-.296-.969-.296-1.5a4 4 0 0 1 4-4h15.98a4 4 0 0 1 4 4c0 .531-.108 1.036-.297 1.5-.594-1.465-2.025-2.5-3.703-2.5"/></g><g clip-path="url(#G)" class="B"><path d="M1472 1695.96h-52c-1.678 0-3.109 1.035-3.703 2.5-.189-.464-.297-.969-.297-1.5a4 4 0 0 1 4-4h52a4 4 0 0 1 4 4c0 .531-.108 1.036-.297 1.5-.594-1.465-2.025-2.5-3.703-2.5"/></g><g clip-path="url(#H)" class="B"><path d="M1435.971 1683.96h-2.977c-1.677 0-3.109 1.035-3.703 2.5-.188-.464-.297-.969-.297-1.5a4 4 0 0 1 4-4h2.977a4 4 0 0 1 4 4c0 .531-.108 1.036-.297 1.5-.594-1.465-2.025-2.5-3.703-2.5"/></g><g clip-path="url(#I)" class="B"><path d="M1422.002 1716.958h6.018a1.98 1.98 0 0 0 1.289-.499c.42.367.691.9.691 1.501a2 2 0 0 1-1.98 1.998h-6.018c-1.678 0-3.109 1.035-3.703 2.5-.189-.464-.297-.969-.297-1.5a4 4 0 0 1 4-4"/></g></g><g fill="none" class="D E F"><path d="M124.006 72.142h-17.17c-2.369 0-4.292-1.923-4.292-4.292s1.923-4.292 4.292-4.292h-.009a8.59 8.59 0 0 0 8.585-8.585 8.59 8.59 0 0 0-8.585-8.585H51.034c-2.369 0-4.292-1.923-4.292-4.292a4.29 4.29 0 0 1 4.25-4.288h.004a8.59 8.59 0 0 0 8.585-8.585 8.59 8.59 0 0 0-8.585-8.585H16.698a8.59 8.59 0 0 0-8.585 8.585 8.59 8.59 0 0 0 8.585 8.585h12.916a4.29 4.29 0 0 1 4.25 4.288c0 2.369-1.923 4.292-4.292 4.292H20.99a8.59 8.59 0 0 0-8.585 8.585 8.59 8.59 0 0 0 8.585 8.585h53.652c2.369 0 4.292 1.923 4.292 4.292s-1.923 4.292-4.292 4.292H12.401a8.59 8.59 0 0 0-8.585 8.585 8.59 8.59 0 0 0 8.585 8.585h111.604a8.59 8.59 0 0 0 8.585-8.585 8.59 8.59 0 0 0-8.585-8.585zM76.793 37.806h12.828a8.59 8.59 0 0 0 8.585-8.585 8.59 8.59 0 0 0-8.585-8.585H76.793a8.59 8.59 0 0 0-8.585 8.585 8.59 8.59 0 0 0 8.585 8.585zm38.632 0h2.088a8.59 8.59 0 0 0 8.585-8.585 8.59 8.59 0 0 0-8.585-8.585h-2.088a8.59 8.59 0 0 0-8.585 8.585 8.59 8.59 0 0 0 8.585 8.585zm-8.652 60.091H72.476a8.59 8.59 0 0 0-8.585 8.585 8.59 8.59 0 0 0 8.585 8.585h34.297a8.59 8.59 0 0 0 8.585-8.585 8.59 8.59 0 0 0-8.585-8.585z" stroke="#fff"/><path d="M46.678 97.897h-6.389a8.59 8.59 0 0 0-8.585 8.585 8.59 8.59 0 0 0 8.585 8.585h6.389a8.59 8.59 0 0 0 8.585-8.585 8.59 8.59 0 0 0-8.585-8.585z" stroke="#fffffe"/></g></svg>