<svg xmlns="http://www.w3.org/2000/svg" width="512" height="512" viewBox="0 0 135.467 135.467" xmlns:v="https://vecta.io/nano"><defs><clipPath id="A"><path d="M1462 1710.46h6v-6h-6z"/></clipPath><clipPath id="B"><path d="M1464 1722.46h8.97v-5.5H1464z"/></clipPath><clipPath id="C"><path d="M1420 1710.46h31v-6h-31z"/></clipPath><clipPath id="D"><path d="M1446 1722.46h13.98v-5.5H1446z"/></clipPath><clipPath id="E"><path d="M1436 1722.46h5.98v-6H1436z"/></clipPath><clipPath id="F"><path d="M1443.99 1686.46h23.98v-5.5h-23.98z"/></clipPath><clipPath id="G"><path d="M1416 1698.46h60v-5.5h-60z"/></clipPath><clipPath id="H"><path d="M1428.99 1686.46h10.98v-5.5h-10.98z"/></clipPath><clipPath id="I"><path d="M1418 1722.46h12v-6h-12z"/></clipPath></defs><g fill="#e6f0fa"><path d="M125.403 72.181H107.83c-2.425 0-4.393-1.968-4.393-4.393s1.968-4.393 4.393-4.393h-.009c4.852-.003 8.784-3.935 8.787-8.787-.003-4.852-3.935-8.784-8.787-8.787H50.716c-2.425 0-4.393-1.968-4.393-4.393a4.39 4.39 0 0 1 4.35-4.389h.004c4.852-.003 8.784-3.935 8.787-8.787-.003-4.852-3.935-8.784-8.787-8.787H15.573c-4.852.003-8.784 3.935-8.787 8.787.003 4.852 3.935 8.784 8.787 8.787h13.22a4.39 4.39 0 0 1 4.35 4.389c0 2.425-1.968 4.393-4.393 4.393h-8.784c-4.852.003-8.784 3.935-8.787 8.787.003 4.852 3.935 8.784 8.787 8.787h54.913c2.425 0 4.393 1.968 4.393 4.393s-1.968 4.393-4.393 4.393H11.175c-4.852.003-8.784 3.935-8.787 8.787.003 4.852 3.935 8.784 8.787 8.787h114.227c4.852-.003 8.784-3.935 8.787-8.787-.003-4.852-3.935-8.784-8.787-8.787M77.081 37.038H90.21c4.852-.003 8.784-3.935 8.787-8.787-.003-4.852-3.935-8.784-8.787-8.787H77.081c-4.852.003-8.784 3.935-8.787 8.787.003 4.852 3.935 8.784 8.787 8.787"/><path d="M116.62 37.038h2.137c4.852-.003 8.784-3.935 8.787-8.787-.003-4.852-3.935-8.784-8.787-8.787h-2.137c-4.852.003-8.784 3.935-8.787 8.787.003 4.852 3.935 8.784 8.787 8.787m-8.855 61.503H72.662c-4.852.003-8.784 3.935-8.787 8.787.003 4.852 3.935 8.784 8.787 8.787h35.103c4.852-.003 8.784-3.935 8.787-8.787-.003-4.852-3.935-8.784-8.787-8.787m-61.507 0h-6.539c-4.852.003-8.784 3.935-8.787 8.787.003 4.852 3.935 8.784 8.787 8.787h6.539c4.852-.003 8.784-3.935 8.787-8.787-.003-4.852-3.935-8.784-8.787-8.787"/></g><g transform="matrix(2.1967 0 0 -2.1967 -3108.0766 3808.6048)" fill="#000064"><g clip-path="url(#A)" opacity=".15"><path d="M1463.996 1704.96a4 4 0 0 1 4 4c0 .531-.108 1.036-.297 1.5-.594-1.465-2.025-2.5-3.703-2.5h0a2 2 0 0 1-2-2c0-.601.27-1.133.689-1.5.352.308.807.5 1.311.5z"/></g><g clip-path="url(#B)" opacity=".15"><path d="M1468.002 1716.958h.973a4 4 0 0 1 4 4c0 .531-.109 1.036-.297 1.5-.594-1.465-2.026-2.5-3.703-2.5h-.973c-1.678 0-3.109 1.035-3.703 2.5-.189-.464-.297-.969-.297-1.5a4 4 0 0 1 4-4"/></g><g clip-path="url(#C)" opacity=".15"><path d="M1449 1707.96h-24.998c-1.678 0-3.109 1.035-3.703 2.5-.189-.464-.297-.969-.297-1.5a4 4 0 0 1 4-4H1449c.504 0 .959-.192 1.311-.5a1.99 1.99 0 0 1 .689 1.5 2 2 0 0 1-2 2"/></g><g clip-path="url(#D)" opacity=".15"><path d="M1450.002 1716.958h5.977a4 4 0 0 1 4 4c0 .531-.109 1.036-.297 1.5-.594-1.465-2.026-2.5-3.703-2.5h-5.977c-1.678 0-3.109 1.035-3.703 2.5-.189-.464-.297-.969-.297-1.5a4 4 0 0 1 4-4"/></g><g clip-path="url(#E)" opacity=".15"><path d="M1437.982 1719.958h0a2 2 0 0 1-1.98-1.998c0-.601.271-1.134.691-1.501a1.98 1.98 0 0 0 1.289.499h0a4 4 0 0 1 4 4c0 .531-.108 1.036-.297 1.5-.594-1.465-2.025-2.5-3.703-2.5"/></g><g clip-path="url(#F)" opacity=".15"><path d="M1463.971 1683.96h-15.98c-1.678 0-3.11 1.035-3.704 2.5-.188-.464-.296-.969-.296-1.5a4 4 0 0 1 4-4h15.98a4 4 0 0 1 4 4c0 .531-.108 1.036-.297 1.5-.594-1.465-2.025-2.5-3.703-2.5"/></g><g clip-path="url(#G)" opacity=".15"><path d="M1472 1695.96h-52c-1.678 0-3.109 1.035-3.703 2.5-.189-.464-.297-.969-.297-1.5a4 4 0 0 1 4-4h52a4 4 0 0 1 4 4c0 .531-.108 1.036-.297 1.5-.594-1.465-2.025-2.5-3.703-2.5"/></g><g clip-path="url(#H)" opacity=".15"><path d="M1435.971 1683.96h-2.977c-1.677 0-3.109 1.035-3.703 2.5-.188-.464-.297-.969-.297-1.5a4 4 0 0 1 4-4h2.977a4 4 0 0 1 4 4c0 .531-.108 1.036-.297 1.5-.594-1.465-2.025-2.5-3.703-2.5"/></g><g clip-path="url(#I)" opacity=".15"><path d="M1422.002 1716.958h6.018a1.98 1.98 0 0 0 1.289-.499c.42.367.691.9.691 1.501a2 2 0 0 1-1.98 1.998h-6.018c-1.678 0-3.109 1.035-3.703 2.5-.189-.464-.297-.969-.297-1.5a4 4 0 0 1 4-4"/></g></g></svg>