<svg xmlns="http://www.w3.org/2000/svg" width="512" height="512" viewBox="0 0 135.467 135.467" xmlns:v="https://vecta.io/nano"><defs><clipPath id="A"><path d="M1302.99 1591.64h16.16v-14.72h-16.16z"/></clipPath><clipPath id="B"><path d="M1304.01 1579.96h13.2v-12h-13.2z"/></clipPath><clipPath id="C"><path d="M1317.26 1591.96H1348v-24h-30.74z"/></clipPath></defs><path d="M128.539 80.145c3.475-4.621 5.564-10.35 5.564-16.58 0-15.246-12.351-27.605-27.588-27.622-5.411-12.97-18.207-22.088-33.144-22.088-19.002 0-34.514 14.762-35.792 33.437-.959-.13-1.914-.295-2.917-.295-12.205 0-22.1 9.898-22.1 22.1 0 4.031 1.095 7.796 2.98 11.049z" fill="#cdf0f0"/><path d="M34.659 46.996c1.002 0 1.959.165 2.92.295.809-11.815 7.326-22.053 16.809-27.986-4.287-9.701-13.975-16.478-25.26-16.478A27.63 27.63 0 0 0 1.505 30.452c0 11.03 6.481 20.525 15.832 24.95 4.044-5.113 10.296-8.406 17.324-8.406" fill="#fc0"/><g transform="matrix(2.7624 0 0 -2.7624 -3589.6671 4411.5148)"><g clip-path="url(#A)" opacity=".1"><path d="M1305.738 1576.917c1.465 1.852 3.728 3.043 6.271 3.043.364 0 .709-.059 1.057-.106a13 13 0 0 0 6.085 10.131 10.02 10.02 0 0 1-.936 1.657 13 13 0 0 1-10.149-11.788c-.348.047-.693.106-1.057.106a7.95 7.95 0 0 1-4.018-1.09c.8-.791 1.718-1.465 2.747-1.953" fill="#000064"/></g><g clip-path="url(#B)" opacity=".1"><path d="M1317.211 1567.96a13.95 13.95 0 0 0-4.211 10c0 .633.057 1.251.139 1.862l-.069.067v-.036c-.347.047-.693.107-1.056.107-4.418 0-8-3.583-8-8 0-1.459.396-2.822 1.078-4z" fill="#000064"/></g><g clip-path="url(#C)" opacity=".5"><path d="M1345 1568.96c0-.337-.022-.67-.051-1h1.03c1.262 1.671 2.021 3.743 2.021 6 0 5.304-4.133 9.632-9.353 9.967-.208.015-.415.034-.626.034-1.959 4.695-6.591 7.996-11.998 7.996-3.382 0-6.455-1.297-8.763-3.414 1.208.26 2.454.417 3.74.417 5.213 0 9.891-2.23 13.172-5.775-1.345-.562-2.546-1.401-3.52-2.458a12.03 12.03 0 0 0 2.348.233c6.627 0 12-5.373 12-12" fill="#fff"/></g></g><path d="M17.951 79.93h108.901m-98.98 20.304h89.057m-69.213 20.304h59.29m-83.856 0h9.68" stroke-width="5.016" fill="none" stroke="#fff" stroke-linecap="round" stroke-linejoin="round" stroke-miterlimit="10"/></svg>