<svg xmlns="http://www.w3.org/2000/svg" width="512" height="512" viewBox="0 0 135.467 135.467" xmlns:v="https://vecta.io/nano"><defs><clipPath id="A"><path d="M1302.99 1591.64h16.16v-14.72h-16.16z"/></clipPath><clipPath id="B"><path d="M1304.01 1579.96h13.2v-12h-13.2z"/></clipPath><clipPath id="C"><path d="M1317.26 1591.96H1348v-24h-30.74z"/></clipPath></defs><path d="M126.816 90.425c2.67-3.551 4.275-7.953 4.275-12.74 0-11.715-9.49-21.211-21.198-21.224-4.158-9.966-13.99-16.972-25.467-16.972-14.601 0-26.52 11.343-27.502 25.692-.737-.1-1.471-.227-2.241-.227-9.378 0-16.981 7.605-16.981 16.981 0 3.097.841 5.99 2.29 8.49z" fill="#cdf0f0"/><path d="M54.681 64.954c.77 0 1.505.127 2.244.227.622-9.078 5.629-16.945 12.916-21.504-3.294-7.454-10.738-12.661-19.409-12.661a21.23 21.23 0 0 0-21.226 21.226c0 8.475 4.98 15.771 12.165 19.171 3.107-3.929 7.911-6.459 13.311-6.459" fill="#fc0"/><g transform="matrix(2.122579 0 0 -2.122579 -2730.1636 3418.5447)"><g clip-path="url(#A)" opacity=".1"><path d="M1305.738 1576.917c1.465 1.852 3.728 3.043 6.271 3.043.364 0 .709-.059 1.057-.106a13 13 0 0 0 6.085 10.131 10.02 10.02 0 0 1-.936 1.657 13 13 0 0 1-10.149-11.788c-.348.047-.693.106-1.057.106a7.95 7.95 0 0 1-4.018-1.09c.8-.791 1.718-1.465 2.747-1.953" fill="#000064"/></g><g clip-path="url(#B)" opacity=".1"><path d="M1317.211 1567.96a13.95 13.95 0 0 0-4.211 10c0 .633.057 1.251.139 1.862l-.069.067c0-.012-.003-.024-.004-.036-.347.047-.693.107-1.056.107-4.418 0-8-3.583-8-8 0-1.459.396-2.822 1.078-4z" fill="#000064"/></g><g clip-path="url(#C)" opacity=".5"><path d="M1345 1568.96c0-.337-.022-.67-.051-1h1.03c1.262 1.671 2.021 3.743 2.021 6 0 5.304-4.133 9.632-9.353 9.967-.208.015-.415.034-.626.034-1.959 4.695-6.591 7.996-11.998 7.996-3.382 0-6.455-1.297-8.763-3.414 1.208.26 2.454.417 3.74.417 5.213 0 9.891-2.23 13.172-5.775-1.345-.562-2.546-1.401-3.52-2.458a12.03 12.03 0 0 0 2.348.233c6.627 0 12-5.373 12-12" fill="#fff"/></g></g><g fill="none" stroke="#fff" stroke-linecap="round" stroke-linejoin="round" stroke-miterlimit="10" stroke-width="4.245"><path d="M41.328 71.405C34.152 68 29.189 60.688 29.189 52.219c0-11.725 9.503-21.226 21.226-21.226 8.698 0 16.172 5.228 19.451 12.714M50.419 5.522V18.3m-33.94 33.937H3.701m13.686-33.032l9.034 9.036"/><path d="M83.452 19.205l-9.034 9.034M26.42 76.24l-9.038 9.032m113.691-7.613c0-11.715-9.49-21.211-21.196-21.224-4.158-9.966-13.992-16.974-25.467-16.974-14.601 0-26.522 11.345-27.502 25.692-.739-.098-1.473-.223-2.244-.223-7.911 0-14.559 5.415-16.446 12.738m-.534 12.736h93.232m-84.738 16.983h76.243M63.167 124.37h50.759m-71.79 0h8.287"/></g></svg>