<svg xmlns="http://www.w3.org/2000/svg" xmlns:xlink="http://www.w3.org/1999/xlink" width="512" height="512" viewBox="0 0 135.467 135.467" xmlns:v="https://vecta.io/nano"><style><![CDATA[.B{stroke-linejoin:round}.C{stroke-miterlimit:10}]]></style><defs><clipPath id="A"><path d="M540.332 708.96H559v-56h-18.668z"/></clipPath><path id="B" d="M38.906 64.813a1.09 1.09 0 0 1-1.088 1.088 1.09 1.09 0 0 1-1.088-1.088 1.09 1.09 0 0 1 1.088-1.088 1.09 1.09 0 0 1 1.088 1.088z"/></defs><path d="M123.897 6.892H3.182c50.66 27.665-3.594 36.826 33.414 67.546 26.947 22.995 30.898 36.647 22.635 53.175h8.619s41.489-31.079 30.178-51.738c-35.744-44.193 59.108-24.073 25.869-68.983" fill="#cdf0f0"/><g clip-path="url(#A)" opacity=".5" transform="matrix(2.155732 0 0 -2.155732 -1117.7985 1535.2201)"><path d="M557.951 708.96h-17.619c7.394-12.833-.525-17.083 4.877-31.333 3.933-10.667 4.51-17 3.304-24.667h1.258s6.055 14.417 4.404 24c-5.217 20.5 8.628 11.167 3.776 32" fill="#fff"/></g><g fill="none" stroke="#fff" class="B C"><path d="M3.182 6.892h120.715M24.74 24.138h107.787M16.117 41.384h94.848M24.74 58.63h64.665M37.674 75.876h60.354M54.92 93.122h43.112m-34.489 17.245h21.553m-25.865 17.246h8.619" stroke-linecap="round" stroke-width="4.311"/><g stroke-width="2.176"><use xlink:href="#B"/><use xlink:href="#B" x="43.432" y="-14.834"/><use xlink:href="#B" x="-0.935" y="-14.566"/><use xlink:href="#B" x="70.426" y="-47.44"/><use xlink:href="#B" x="-0.4" y="-48.51"/><use xlink:href="#B" x="27.128" y="-30.87"/><use xlink:href="#B" x="48.51" y="20.446"/><use xlink:href="#B" x="24.99" y="19.644"/><use xlink:href="#B" x="55.459" y="-30.603"/><use xlink:href="#B" x="45.837" y="38.888"/><use xlink:href="#B" x="28.732" y="3.608"/></g></g></svg>