<svg xmlns="http://www.w3.org/2000/svg" width="512" height="512" viewBox="0 0 135.467 135.467" xmlns:v="https://vecta.io/nano"><defs><clipPath id="A"><path d="M1185.36 1604.96H1220v-27.5h-34.64z"/></clipPath><clipPath id="B"><path d="M1160 1580.96h12.6v-12H1160z"/></clipPath><clipPath id="C"><path d="M1174.76 1594.96H1214v-26h-39.24z"/></clipPath></defs><g fill="#cdf0f0"><path d="M117.944 84.444a25.17 25.17 0 0 0 1.474-8.442c0-13.972-11.332-25.308-25.304-25.308-.823 0-1.634.049-2.438.124-4.979-12.424-17.11-21.208-31.306-21.208-17.218 0-31.393 12.899-33.464 29.554-.095-.004-.181-.032-.28-.032-11.644 0-21.094 9.448-21.094 21.094 0 1.445.15 2.856.424 4.218z"/><path d="M132.069 46.479c0-11.64-9.429-21.075-21.065-21.088C106.872 15.487 97.101 8.527 85.7 8.527c-13.059 0-23.929 8.963-26.685 21.149.453-.019.898-.065 1.356-.065 14.194 0 26.325 8.786 31.306 21.21.804-.078 1.613-.124 2.438-.124 10.617 0 19.694 6.551 23.448 15.824 8.421-2.765 14.506-10.691 14.506-20.042"/></g><g transform="matrix(2.109016 0 0 -2.109016 -2440.927 3393.4062)"><g clip-path="url(#A)" opacity=".1"><path d="M1219.998 1586.961a10 10 0 0 1-9.988 9.999c-1.959 4.696-6.592 7.996-11.998 7.996-6.192 0-11.346-4.25-12.653-10.028.215.009.426.031.643.031 6.73 0 12.482-4.166 14.844-10.057a11.93 11.93 0 0 0 1.156.059c5.034 0 9.338-3.106 11.118-7.503 3.993 1.311 6.878 5.069 6.878 9.503" fill="#000064"/></g><g clip-path="url(#B)" opacity=".1"><path d="M1172.596 1568.96c-1.635 2.612-2.596 5.689-2.596 8.999 0 .966.099 1.908.254 2.831l-.254.169-.001.001c-5.52-.001-9.999-4.48-9.999-10.001 0-.685.07-1.353.201-1.999z" fill="#000064"/></g><g clip-path="url(#C)" opacity=".5"><path d="M1196.414 1583.573l-1.1-.647.686.034c7.946 0 14.433-6.184 14.949-14h2.351c.444 1.253.7 2.595.7 4 0 6.628-5.373 12-12 12-.367 0-.73-.021-1.089-.054a.69.69 0 0 1-.065-.003c-2.036 5.08-6.596 8.869-12.128 9.818l-.526.081c-.233.032-.467.06-.705.082-.491.042-.985.075-1.487.075a17.18 17.18 0 0 1-1.563-.078c-3.766-.366-7.138-2.047-9.678-4.568 1.68.412 3.432.646 5.241.646 6.534 0 12.387-2.863 16.414-7.386" fill="#fff"/></g></g><g fill="none" stroke-linecap="round" stroke-linejoin="round" stroke-miterlimit="10" stroke-width="4.218"><path d="M119.073 71.786c-2.006-11.971-12.42-21.099-24.958-21.099-.82 0-1.63.051-2.434.124-4.981-12.424-17.113-21.208-31.31-21.208-17.214 0-31.393 12.899-33.46 29.552-.095-.002-.186-.025-.28-.025-8.651 0-16.085 5.205-19.34 12.654" stroke="#fffffe"/><path d="M5.536 84.438h118.101M13.976 101.316h101.22m-88.561 16.872h80.122m10.827-51.677c8.411-2.767 14.489-10.699 14.489-20.042 0-11.638-9.429-21.075-21.065-21.084-4.132-9.906-13.903-16.87-25.304-16.87-13.051 0-23.942 8.94-26.709 21.113" stroke="#fff"/></g></svg>