<svg xmlns="http://www.w3.org/2000/svg" width="512" height="512" viewBox="0 0 135.467 135.467" xmlns:v="https://vecta.io/nano"><defs><clipPath id="A"><path d="M1185.36 1604.96H1220v-27.5h-34.64z"/></clipPath><clipPath id="B"><path d="M1160 1580.96h12.6v-12H1160z"/></clipPath><clipPath id="C"><path d="M1174.76 1594.96H1214v-26h-39.24z"/></clipPath></defs><g fill="#cdf0f0"><path d="M119.379 85.718c1.008-2.814 1.527-5.779 1.532-8.768 0-14.511-11.777-26.285-26.298-26.285-.855 0-1.698.051-2.534.129-5.175-12.904-17.782-22.027-32.536-22.027-17.895 0-32.627 13.397-34.779 30.695-.099-.004-.188-.033-.291-.033-12.102 0-21.923 9.813-21.923 21.908 0 1.501.156 2.966.441 4.381z"/><path d="M134.059 46.287c0-12.089-9.8-21.888-21.893-21.902C107.872 14.099 97.717 6.87 85.868 6.87c-13.572 0-24.869 9.309-27.734 21.965.471-.02.933-.068 1.409-.068 14.752 0 27.36 9.125 32.536 22.029.836-.081 1.676-.129 2.534-.129 11.034 0 20.468 6.804 24.37 16.435 8.752-2.872 15.076-11.104 15.076-20.816"/></g><g transform="matrix(2.1919 0 0 -2.1903 -2540.0194 3522.2479)"><g clip-path="url(#A)" opacity=".1"><path d="M1219.998 1586.961a10 10 0 0 1-9.988 9.999c-1.959 4.696-6.592 7.996-11.998 7.996-6.192 0-11.346-4.25-12.653-10.028.215.01.426.031.643.031 6.73 0 12.482-4.166 14.844-10.057a11.93 11.93 0 0 0 1.156.059c5.034 0 9.338-3.106 11.118-7.503 3.993 1.311 6.878 5.069 6.878 9.503" fill="#000064"/></g><g clip-path="url(#B)" opacity=".1"><path d="M1172.596 1568.96c-1.635 2.612-2.596 5.689-2.596 8.999 0 .966.099 1.908.254 2.831l-.254.169-.001.001c-5.52-.001-9.999-4.48-9.999-10.001 0-.685.07-1.353.201-1.999z" fill="#000064"/></g><g clip-path="url(#C)" opacity=".5"><path d="M1196.414 1583.573l-1.1-.647.686.034c7.946 0 14.433-6.184 14.949-14h2.351c.444 1.253.7 2.595.7 4 0 6.628-5.373 12-12 12-.367 0-.73-.021-1.089-.054a.69.69 0 0 1-.065 0c-2.036 5.08-6.596 8.869-12.128 9.818l-.526.081c-.233.032-.467.06-.705.082-.491.042-.985.075-1.487.075a17.18 17.18 0 0 1-1.563-.078c-3.766-.366-7.138-2.047-9.678-4.568 1.68.412 3.432.646 5.241.646 6.534 0 12.387-2.863 16.414-7.386" fill="#fff"/></g></g><path d="M5.032 85.652h113.263M13.126 103.241h97.073m-84.933 17.583h76.84" stroke="#fff" fill="none" stroke-linecap="round" stroke-linejoin="round" stroke-miterlimit="10" stroke-width="4.217"/></svg>