<svg xmlns="http://www.w3.org/2000/svg" xmlns:xlink="http://www.w3.org/1999/xlink" width="512" height="512" viewBox="0 0 135.467 135.467" xmlns:v="https://vecta.io/nano"><style><![CDATA[.B{stroke-linejoin:round}.C{stroke-miterlimit:10}.D{stroke-linecap:round}.E{stroke-width:4.26}]]></style><defs><clipPath id="A"><path d="M1047.59 820.764h16.11v-11.589h-16.11z"/></clipPath><clipPath id="B"><path d="M1042 809.558h25.38v-17.592H1042z"/></clipPath><clipPath id="C"><path d="M1059.99 820.764H1090v-26.083h-30.01z"/></clipPath><path id="D" d="M40.844 89.001a1.02 1.02 0 1 1-2.042 0 1.02 1.02 0 1 1 2.042 0z"/></defs><path d="M104.649 62.023h-.865c-4.641-9.813-14.599-16.623-26.172-16.623-14.544 0-26.544 10.723-28.619 24.685-1.732-.528-3.566-.816-5.468-.816-10.354 0-18.746 8.392-18.746 18.738 0 10.352 8.392 18.729 18.746 18.729l34.494.004 26.63.013a22.37 22.37 0 0 0 22.365-22.365 22.37 22.37 0 0 0-22.365-22.365" fill="#cdf0f0"/><path d="M48.993 70.086c1.749-11.773 10.567-21.215 22.005-23.897l-.015-.032c-2.328-9.242-10.693-16.084-20.657-16.084a21.3 21.3 0 0 0-21.298 21.3c0 7.809 4.203 14.633 10.467 18.337v.004c1.299-.285 2.645-.445 4.03-.445 1.902 0 3.736.288 5.468.816" fill="#fc0"/><g transform="matrix(2.130021 0 0 -2.13002 -2194.7088 1793.6449)"><g clip-path="url(#A)" opacity=".1"><path d="M1048.912 809.349c.61.134 1.242.209 1.892.209a8.78 8.78 0 0 0 2.567-.383 13.6 13.6 0 0 0 10.331 11.219l-.007.016-.013.045a13.55 13.55 0 0 1-2.875.309c-6.43 0-11.798-4.466-13.215-10.46.416-.348.85-.676 1.32-.953z" fill="#000064"/></g><g clip-path="url(#B)" opacity=".1"><path d="M1053 806.46c0 .937.097 1.852.267 2.739-.784.228-1.607.359-2.463.359a8.8 8.8 0 0 1-8.801-8.797c0-4.86 3.94-8.793 8.801-8.793l16.194-.002h.38A14.5 14.5 0 0 0 1053 806.46" fill="#000064"/></g><g clip-path="url(#C)" opacity=".5"><path d="M1090 802.46c0 5.799-4.701 10.5-10.5 10.5-.018 0-.033-.003-.051-.003l-.355.003c-2.179 4.607-6.854 7.804-12.287 7.804-2.487 0-4.811-.674-6.814-1.84a15.25 15.25 0 0 0 1.007.036c5.701 0 10.732-2.814 13.814-7.122-1.169-.589-2.222-1.38-3.093-2.343 1.044.296 2.14.465 3.279.465 6.627 0 12-5.373 12-12 0-1.139-.169-2.235-.465-3.279 2.123 1.922 3.465 4.69 3.465 7.779" fill="#fff"/></g></g><g fill="none" class="B C"><path d="M39.496 69.713c-6.264-3.706-10.467-10.531-10.467-18.339a21.3 21.3 0 0 1 21.298-21.3c9.964 0 18.329 6.842 20.657 16.082M50.331 4.513v12.78" stroke="#fff" class="D E"/><path d="M16.253 51.373H3.473" stroke="#fffffe" class="D E"/><path d="M16.253 17.293l10.65 10.65m57.51-10.65l-10.65 10.65m40.458 48.982c4.703 0 8.52 3.813 8.52 8.518s-3.817 8.518-8.52 8.518h-12.759" stroke="#fff" class="D E"/><path d="M122.754 123.773a8.52 8.52 0 0 0 8.52-8.52 8.52 8.52 0 0 0-8.52-8.516h-21.283" stroke="#fffff6" class="D E"/><g stroke="#fff"><path d="M116.807 65.955a22.05 22.05 0 0 0-11.937-3.489c-.288 0-.564.032-.848.043-4.537-10.077-14.644-17.106-26.41-17.106-14.544 0-26.544 10.723-28.619 24.683a18.7 18.7 0 0 0-5.468-.814c-10.354 0-18.746 8.388-18.746 18.738s8.392 18.727 18.746 18.727l34.494.004c5.883 0 10.652 4.767 10.652 10.646s-4.769 10.65-10.652 10.65M61.682 89.703h22.721a8.52 8.52 0 0 0 8.52-8.516 8.52 8.52 0 0 0-8.52-8.518" class="D E"/><g stroke-width="2.042"><use xlink:href="#D"/><use xlink:href="#D" x="32.558" y="-32.582"/><use xlink:href="#D" x="22.375" y="-13.592"/><use xlink:href="#D" x="83.198" y="-19.097"/><use xlink:href="#D" x="59.529" y="26.864"/><use xlink:href="#D" x="52.374" y="10.627"/><use xlink:href="#D" x="69.712" y="-6.161"/><use xlink:href="#D" x="59.805" y="-17.72"/><use xlink:href="#D" x="84.574" y="11.177"/><use xlink:href="#D" x="92.28" y="-2.859"/><use xlink:href="#D" x="71.088" y="33.194"/><use xlink:href="#D" x="14.669" y="8.7"/><use xlink:href="#D" x="37.787" y="29.892"/></g></g></g></svg>