<svg xmlns="http://www.w3.org/2000/svg" xmlns:xlink="http://www.w3.org/1999/xlink" width="512" height="512" viewBox="0 0 135.467 135.467" xmlns:v="https://vecta.io/nano"><style><![CDATA[.I{stroke-linejoin:round}.J{stroke-miterlimit:10}.K{stroke-linecap:round}.L{stroke-width:4.26}]]></style><defs><clipPath id="A"><path d="M1047.59 820.764h16.11v-11.589h-16.11z"/></clipPath><clipPath id="B"><path d="M1042 809.558h25.38v-17.592H1042z"/></clipPath><clipPath id="C"><path d="M1059.99 820.764H1090v-26.083h-30.01z"/></clipPath><path id="D" d="M40.844 89.001a1.02 1.02 0 1 1-2.042 0 1.02 1.02 0 1 1 2.042 0z"/></defs><path d="M99.402 44.169h-1.034c-5.546-11.727-17.447-19.865-31.277-19.865-17.381 0-31.722 12.815-34.201 29.5-2.07-.631-4.262-.975-6.535-.975-12.374 0-22.403 10.029-22.403 22.393a22.39 22.39 0 0 0 22.403 22.382l41.222.005 31.824.016a26.733 26.733 0 0 0 26.727-26.728 26.733 26.733 0 0 0-26.727-26.727" fill="#cdf0f0"/><path d="M32.89 53.804c2.09-14.069 12.628-25.353 26.297-28.558l-.018-.038C56.388 14.163 46.391 5.986 34.483 5.986A25.455 25.455 0 0 0 9.031 31.441c0 9.332 5.023 17.487 12.509 21.914v.005c1.552-.341 3.161-.532 4.816-.532 2.273 0 4.465.344 6.535.975" fill="#fc0"/><g transform="matrix(2.5455 0 0 -2.5455 -2648.4643 2113.5578)"><g clip-path="url(#A)" opacity=".1"><path d="M1048.912 809.349c.61.134 1.242.209 1.892.209a8.78 8.78 0 0 0 2.567-.383 13.6 13.6 0 0 0 10.331 11.219l-.01.016-.013.045a13.55 13.55 0 0 1-2.875.309c-6.43 0-11.798-4.466-13.215-10.46.416-.348.85-.676 1.32-.953z" fill="#000064"/></g><g clip-path="url(#B)" opacity=".1"><path d="M1053 806.46c0 .937.097 1.852.267 2.739-.784.228-1.607.359-2.463.359a8.8 8.8 0 0 1-8.801-8.797c0-4.86 3.94-8.793 8.801-8.793l16.194-.002h.38A14.5 14.5 0 0 0 1053 806.46" fill="#000064"/></g><g clip-path="url(#C)" opacity=".5"><path d="M1090 802.46c0 5.799-4.701 10.5-10.5 10.5-.018 0-.033-.003-.051-.003l-.355.003c-2.179 4.607-6.854 7.804-12.287 7.804-2.487 0-4.811-.674-6.814-1.84a15.25 15.25 0 0 0 1.007.036c5.701 0 10.732-2.814 13.814-7.122-1.169-.589-2.222-1.38-3.093-2.343 1.044.296 2.14.465 3.279.465 6.627 0 12-5.373 12-12 0-1.139-.169-2.235-.465-3.279 2.123 1.922 3.465 4.69 3.465 7.779" fill="#fff"/></g></g><g fill="none" class="I J"><g class="K L"><path d="M110.842 61.977c5.62 0 10.182 4.557 10.182 10.18s-4.562 10.18-10.182 10.18H95.594" stroke="#fff"/><path d="M121.039 117.963a10.182 10.182 0 0 0 10.182-10.182 10.182 10.182 0 0 0-10.182-10.177H95.605" stroke="#fffff6"/></g><g stroke="#fff" transform="matrix(1.1951 0 0 1.1951 -25.659169 -29.952579)"><path d="M116.807 65.955a22.05 22.05 0 0 0-11.937-3.489c-.288 0-.564.032-.848.043-4.537-10.077-14.644-17.106-26.41-17.106-14.544 0-26.544 10.723-28.619 24.683a18.7 18.7 0 0 0-5.468-.814c-10.354 0-18.746 8.388-18.746 18.738s8.392 18.727 18.746 18.727l34.494.004c5.883 0 10.652 4.767 10.652 10.646s-4.769 10.65-10.652 10.65M61.682 89.703h22.721a8.52 8.52 0 0 0 8.52-8.516 8.52 8.52 0 0 0-8.52-8.518" class="K L"/><g stroke-width="2.042"><use xlink:href="#D"/><use xlink:href="#D" x="32.558" y="-32.582"/><use xlink:href="#D" x="22.375" y="-13.592"/><use xlink:href="#D" x="83.198" y="-19.097"/><use xlink:href="#D" x="59.529" y="26.864"/><use xlink:href="#D" x="52.374" y="10.627"/><use xlink:href="#D" x="69.712" y="-6.161"/><use xlink:href="#D" x="59.805" y="-17.72"/><use xlink:href="#D" x="84.574" y="11.177"/><use xlink:href="#D" x="92.28" y="-2.859"/><use xlink:href="#D" x="71.088" y="33.194"/><use xlink:href="#D" x="14.669" y="8.7"/><use xlink:href="#D" x="37.787" y="29.892"/></g></g></g></svg>