<svg xmlns="http://www.w3.org/2000/svg" xmlns:xlink="http://www.w3.org/1999/xlink" width="512" height="512" viewBox="0 0 135.467 135.467" xmlns:v="https://vecta.io/nano"><defs><clipPath id="A"><path d="M569.515 802.96H580v-10.485h-10.485z"/></clipPath><clipPath id="B"><path d="M543.689 802.96H558v-14.311h-14.311z"/></clipPath><clipPath id="C"><path d="M562.601 826.96H576v-13.399h-13.399z"/></clipPath><clipPath id="D"><path d="M544.653 834.96H562v-17.348h-17.347z"/></clipPath><path id="E" d="M30.22 69.891a1.22 1.22 0 1 1-2.443 0 1.22 1.22 0 1 1 2.443 0z"/></defs><path d="M118.817 81.141H91.008a8.56 8.56 0 0 1-8.557-8.557 8.56 8.56 0 0 1 8.557-8.557h14.974c9.451 0 17.113-7.663 17.113-17.113s-7.663-17.113-17.113-17.113c-5.164 0-9.78 2.295-12.918 5.913.041-.543.083-1.082.083-1.634 0-11.815-9.577-21.392-21.392-21.392S50.363 22.265 50.363 34.08a21.34 21.34 0 0 0 .43 4.278H33.25c-16.54 0-29.948 13.408-29.948 29.948S16.71 98.254 33.25 98.254c8.557 0 14.51-.116 17.952 5.29 2.235 6.86 8.672 11.823 16.275 11.823 9.091 0 16.504-7.093 17.06-16.044h12.888c4.278 0 7.782-.813 12.189 3.596.006.006.013.006.017.013 2.332 2.389 5.581 3.878 9.186 3.878a12.84 12.84 0 0 0 12.835-12.835 12.84 12.84 0 0 0-12.835-12.835" fill="#cdf0f0"/><g transform="matrix(2.1392 0 0 -2.1392 -1109.0663 1798.8082)"><g clip-path="url(#A)" opacity=".5"><path d="M574 802.96c-1.787 0-3.386-.785-4.485-2.024l.485.024a8 8 0 0 0 8-8l-.024-.485A5.98 5.98 0 0 1 580 796.96c0 3.313-2.687 6-6 6" fill="#fff"/></g><g clip-path="url(#B)" opacity=".5"><path d="M550 802.96c-2.568 0-4.848-1.215-6.311-3.096.43.057.865.096 1.311.096a10 10 0 0 0 10-10c0-.445-.04-.881-.096-1.311 1.881 1.463 3.096 3.743 3.096 6.311a8 8 0 0 1-8 8" fill="#fff"/></g><g clip-path="url(#C)" opacity=".5"><path d="M564 824.96a10 10 0 0 0 10-10c0-.477-.045-.941-.109-1.399 1.305 1.423 2.109 3.315 2.109 5.399a8 8 0 0 1-8 8c-2.084 0-3.976-.804-5.399-2.109.458.064.922.109 1.399.109" fill="#fff"/></g><g clip-path="url(#D)" opacity=".5"><path d="M552 834.96c-2.909 0-5.52-1.25-7.348-3.232a12.11 12.11 0 0 0 2.348.232c6.627 0 12-5.373 12-12a12.11 12.11 0 0 0-.233-2.348c1.983 1.828 3.233 4.439 3.233 7.348a10 10 0 0 1-10 10" fill="#fff"/></g></g><g fill="none"><g stroke-linecap="round" stroke-linejoin="round" stroke-width="4.278" stroke-miterlimit="10"><path d="M71.741 12.704c11.812 0 21.392 9.577 21.392 21.392s-9.579 21.39-21.392 21.39H16.133c-7.089 0-12.835 5.746-12.835 12.833S9.044 81.15 16.133 81.15h51.342c9.451 0 17.113 7.658 17.113 17.109s-7.663 17.109-17.113 17.109" stroke="#feffff"/><path d="M54.621 21.261a8.56 8.56 0 0 1 8.557 8.557 8.56 8.56 0 0 1-8.557 8.557H28.964m77.001-8.562c9.451 0 17.113 7.66 17.113 17.113s-7.663 17.109-17.113 17.109H93.124m25.693 42.79c7.089 0 12.835-5.744 12.835-12.833s-5.746-12.831-12.835-12.831H93.145" stroke="#fff"/></g><g stroke="#fff" stroke-linejoin="round" stroke-width="2.443" stroke-miterlimit="10"><use xlink:href="#E"/><use xlink:href="#E" x="79.711" y="-23.655"/><use xlink:href="#E" x="47.236" y="-5.766"/><use xlink:href="#E" x="75.032" y="24.783"/><use xlink:href="#E" x="34.851" y="29.461"/><use xlink:href="#E" x="5.403" y="18.728"/><use xlink:href="#E" x="91.27" y="1.114"/><use xlink:href="#E" x="86.867" y="22.581"/><use xlink:href="#E" x="54.667" y="-41.544"/><use xlink:href="#E" x="35.677" y="-32.187"/><use xlink:href="#E" x="10.082" y="-20.903"/><use xlink:href="#E" x="70.354" y="31.113"/><use xlink:href="#E" x="74.207" y="3.591"/><use xlink:href="#E" x="91.545" y="-47.048"/><use xlink:href="#E" x="29.347" y="-2.188"/><use xlink:href="#E" x="15.036" y="34.415"/><use xlink:href="#E" x="62.923" y="23.682"/><use xlink:href="#E" x="61.822" y="3.316"/><use xlink:href="#E" x="-4.505" y="-22.004"/></g></g></svg>