<svg xmlns="http://www.w3.org/2000/svg" width="512" height="512" viewBox="0 0 135.467 135.467" xmlns:v="https://vecta.io/nano"><defs><clipPath id="A"><path d="M661 711.96h41v-56h-41z"/></clipPath></defs><path d="M122.658 38.791h-4.238c4.662 0 8.477-3.815 8.477-8.477s-3.815-8.477-8.477-8.477h-4.238c4.662 0 8.477-3.815 8.477-8.477s-3.815-8.477-8.477-8.477H12.458c-4.662 0-8.477 3.815-8.477 8.477s3.815 8.477 8.477 8.477h16.954c-4.662 0-8.477 3.815-8.477 8.477s3.815 8.477 8.477 8.477h14.835c-4.662 0-8.477 3.815-8.477 8.477s3.815 8.477 8.477 8.477h10.596c-4.662 0-8.477 3.815-8.477 8.477s3.815 8.477 8.477 8.477h-4.238c-4.662 0-8.477 3.815-8.477 8.477s3.815 8.477 8.477 8.477c-4.662 0-8.477 3.815-8.477 8.477s3.815 8.477 8.477 8.477h8.477c-4.662 0-8.477 3.815-8.477 8.477s3.815 8.477 8.477 8.477h8.477c4.662 0 8.477-3.815 8.477-8.477s-3.815-8.477-8.477-8.477h12.715c4.662 0 8.477-3.815 8.477-8.477s-3.815-8.477-8.477-8.477h12.715c4.662 0 8.477-3.815 8.477-8.477s-3.815-8.477-8.477-8.477h12.715c4.662 0 8.477-3.815 8.477-8.477s-3.815-8.477-8.477-8.477h16.954c4.662 0 8.477-3.815 8.477-8.477s-3.815-8.477-8.477-8.477" fill="#cdf0f0"/><g clip-path="url(#A)" opacity=".5" transform="matrix(2.119232 0 0 -2.119231 -1365.0422 1513.6912)" fill="#fff"><path d="M665 695.96h2c-2.2 0-4 1.8-4 4s1.8 4 4 4h2c-2.2 0-4 1.8-4 4s1.8 4 4 4h29c2.2 0 4-1.8 4-4s-1.8-4-4-4h-8c2.2 0 4-1.8 4-4s-1.8-4-4-4h-7c2.2 0 4-1.8 4-4s-1.8-4-4-4h-5c2.2 0 4-1.8 4-4s-1.8-4-4-4h2c2.2 0 4-1.8 4-4s-1.8-4-4-4c2.2 0 4-1.8 4-4s-1.8-4-4-4h-4-3c-2.2 0-4 1.8-4 4s1.8 4 4 4h-1c-2.2 0-4 1.8-4 4s1.8 4 4 4h-2c-2.2 0-4 1.8-4 4s1.8 4 4 4h-5c-2.2 0-4 1.8-4 4s1.8 4 4 4"/><path d="M680 659.96c0-2.2-1.8-4-4-4s-4 1.8-4 4 1.8 4 4 4 4-1.8 4-4"/></g><path d="M12.458 4.883h101.719a8.48 8.48 0 0 1 8.477 8.477 8.48 8.48 0 0 1-8.477 8.477l-84.757.002a8.48 8.48 0 0 0-8.477 8.477 8.48 8.48 0 0 0 8.477 8.477l93.238.002a8.48 8.48 0 0 1 8.477 8.477 8.48 8.48 0 0 1-8.477 8.477H54.864a8.48 8.48 0 0 0-8.477 8.477 8.48 8.48 0 0 0 8.477 8.477l38.11.004a8.48 8.48 0 0 1 8.477 8.477 8.48 8.48 0 0 1-8.477 8.477l-42.351.002a8.48 8.48 0 0 0-8.477 8.477 8.48 8.48 0 0 0 8.477 8.477l16.907.002a8.48 8.48 0 0 1 8.477 8.477 8.48 8.48 0 0 1-8.477 8.477m-8.422 8.464h0a8.48 8.48 0 0 1 8.477-8.477" fill="none" stroke="#fff" stroke-linecap="round" stroke-linejoin="round" stroke-miterlimit="10" stroke-width="4.238"/></svg>