<svg xmlns="http://www.w3.org/2000/svg" width="512" height="512" viewBox="0 0 135.467 135.467" xmlns:v="https://vecta.io/nano"><path d="M40.394 54.316c-16.004 0-29.16-8.097-36.231-15.275-2.55-2.586-2.519-6.751.068-9.298a6.58 6.58 0 0 1 9.298.068c2.321 2.356 23.455 22.446 50.662 2.924 35.573-25.526 64.495 1.747 67.673 4.942a6.58 6.58 0 0 1-.017 9.298 6.581 6.581 0 0 1-9.302-.017c-3.867-3.888-24.501-22.323-50.686-3.538-11.051 7.927-21.778 10.895-31.464 10.895m1.043 25.631c-6.396 0-12.857-1.304-19.293-3.921-3.362-1.37-4.978-5.208-3.607-8.57a6.581 6.581 0 0 1 8.57-3.613c12.739 5.19 25.219 3.507 37.086-5.006 29.101-20.882 56.23-7.005 67.671 4.487 2.562 2.573 2.554 6.735-.019 9.298s-6.738 2.554-9.3-.022c-2.343-2.354-23.69-22.448-50.686-3.077-9.66 6.931-19.948 10.425-30.421 10.425m-.485 27.986c-16.176 0-29.579-8.31-36.792-15.63-2.55-2.588-2.519-6.748.068-9.298s6.748-2.519 9.298.068c2.356 2.392 23.79 22.799 50.666 3.522 19.956-14.323 38.042-11.698 49.698-6.974 3.367 1.365 4.99 5.2 3.625 8.564a6.581 6.581 0 0 1-8.566 3.625c-12.497-5.065-24.976-3.224-37.093 5.471-10.795 7.744-21.335 10.652-30.905 10.652" fill="#cdf0f0"/></svg>