<svg xmlns="http://www.w3.org/2000/svg" width="512" height="512" viewBox="0 0 135.467 135.467" xmlns:v="https://vecta.io/nano"><path d="M41.609 53.99c-15.612 0-28.445-7.898-35.343-14.9-2.487-2.523-2.457-6.585.066-9.07s6.583-2.457 9.07.066c2.264 2.298 22.88 21.896 49.42 2.852 34.701-24.9 62.913 1.704 66.014 4.821 2.499 2.51 2.491 6.57-.017 9.07a6.42 6.42 0 0 1-9.074-.017c-3.772-3.793-23.9-21.776-49.443-3.451-10.78 7.733-21.244 10.628-30.692 10.628m1.017 25.002c-6.239 0-12.542-1.272-18.82-3.825-3.28-1.336-4.856-5.08-3.519-8.36a6.42 6.42 0 0 1 8.36-3.524c12.427 5.063 24.601 3.421 36.177-4.883 28.387-20.37 54.851-6.833 66.012 4.377 2.499 2.51 2.491 6.57-.019 9.07s-6.573 2.491-9.072-.021c-2.286-2.296-23.109-21.898-49.443-3.002-9.423 6.761-19.459 10.169-29.675 10.169m-.473 27.3c-15.779 0-28.854-8.106-35.89-15.247-2.487-2.525-2.457-6.583.066-9.07s6.583-2.457 9.07.066c2.298 2.333 23.207 22.24 49.424 3.436 19.467-13.972 37.109-11.411 48.479-6.803 3.284 1.332 4.868 5.072 3.536 8.354a6.42 6.42 0 0 1-8.356 3.536c-12.191-4.941-24.364-3.145-36.183 5.337-10.53 7.554-20.812 10.391-30.147 10.391" fill="#cdf0f0"/><path d="M41.609 53.99c-15.612 0-28.445-7.898-35.343-14.9-2.487-2.523-2.457-6.585.066-9.07s6.583-2.457 9.07.066c2.264 2.298 22.88 21.896 49.42 2.852 34.701-24.9 62.913 1.704 66.014 4.821 2.499 2.51 2.491 6.57-.017 9.07a6.42 6.42 0 0 1-9.074-.017c-3.772-3.793-23.9-21.776-49.443-3.451-10.78 7.733-21.244 10.628-30.692 10.628zm1.018 25.001c-6.239 0-12.542-1.272-18.82-3.825-3.28-1.336-4.856-5.08-3.519-8.36a6.42 6.42 0 0 1 8.36-3.524c12.427 5.063 24.601 3.421 36.177-4.883 28.387-20.37 54.851-6.833 66.012 4.377 2.499 2.51 2.491 6.57-.019 9.07s-6.573 2.491-9.072-.021c-2.286-2.296-23.109-21.898-49.443-3.002-9.423 6.761-19.459 10.169-29.675 10.169zm-.472 27.301c-15.779 0-28.854-8.106-35.89-15.247-2.487-2.525-2.457-6.583.066-9.07s6.583-2.457 9.07.066c2.298 2.333 23.207 22.24 49.424 3.436 19.467-13.972 37.109-11.411 48.479-6.803 3.284 1.332 4.868 5.072 3.536 8.354a6.42 6.42 0 0 1-8.356 3.536c-12.191-4.941-24.364-3.145-36.183 5.337-10.53 7.554-20.812 10.391-30.147 10.391z" fill="none" stroke="#fff" stroke-linejoin="round" stroke-miterlimit="10" stroke-width="4.276"/></svg>