<svg xmlns="http://www.w3.org/2000/svg" viewBox="0 0 512 512" fill="#333" xmlns:v="https://vecta.io/nano"><circle cx="256" cy="256" r="101.72"/><path d="M468.5 240h-28.07C432.74 150.66 361.34 79.26 272 71.57V43.5a16 16 0 1 0-32 0v28.07C150.66 79.26 79.26 150.66 71.57 240H43.5a16 16 0 1 0 0 32h28.07c7.69 89.34 79.09 160.74 168.43 168.43v28.07a16 16 0 1 0 32 0v-28.07c89.34-7.69 160.74-79.09 168.43-168.43h28.07a16 16 0 1 0 0-32zM256 409.13c-84.43 0-153.13-68.69-153.13-153.13S171.57 102.87 256 102.87 409.13 171.57 409.13 256 340.43 409.13 256 409.13z"/></svg>