<?xml version="1.0" encoding="UTF-8" standalone="no"?>
<svg
   xmlns:dc="http://purl.org/dc/elements/1.1/"
   xmlns:cc="http://creativecommons.org/ns#"
   xmlns:rdf="http://www.w3.org/1999/02/22-rdf-syntax-ns#"
   xmlns:svg="http://www.w3.org/2000/svg"
   xmlns="http://www.w3.org/2000/svg"
   xmlns:sodipodi="http://sodipodi.sourceforge.net/DTD/sodipodi-0.dtd"
   xmlns:inkscape="http://www.inkscape.org/namespaces/inkscape"
   width="512"
   height="512"
   viewBox="0 0 135.46666 135.46667"
   version="1.1"
   id="svg30585"
   inkscape:version="1.0 (4035a4fb49, 2020-05-01)"
   sodipodi:docname="01d.svg">
  <defs
     id="defs30579">
    <clipPath
       clipPathUnits="userSpaceOnUse"
       id="clipPath50694">
      <path
         d="m 410.739,1847.95 h 25.275 v -25.27 h -25.275 z"
         id="path50692" />
    </clipPath>
  </defs>
  <sodipodi:namedview
     id="base"
     pagecolor="#ffffff"
     bordercolor="#666666"
     borderopacity="1.0"
     inkscape:pageopacity="0.0"
     inkscape:pageshadow="2"
     inkscape:zoom="0.98994949"
     inkscape:cx="341.0412"
     inkscape:cy="228.75046"
     inkscape:document-units="mm"
     inkscape:current-layer="layer1"
     inkscape:document-rotation="0"
     showgrid="false"
     units="px"
     inkscape:window-width="1920"
     inkscape:window-height="1012"
     inkscape:window-x="-8"
     inkscape:window-y="-8"
     inkscape:window-maximized="1" />
  <metadata
     id="metadata30582">
    <rdf:RDF>
      <cc:Work
         rdf:about="">
        <dc:format>image/svg+xml</dc:format>
        <dc:type
           rdf:resource="http://purl.org/dc/dcmitype/StillImage" />
        <dc:title />
      </cc:Work>
    </rdf:RDF>
  </metadata>
  <g
     inkscape:label="Слой 1"
     inkscape:groupmode="layer"
     id="layer1">
    <g
       id="g50684"
       transform="matrix(2.1680123,0,0,-2.1460991,98.124816,67.641348)">
      <path
         d="m 0,0 c 0,-7.732 -6.268,-14 -14,-14 -7.732,0 -14,6.268 -14,14 0,7.732 6.268,14 14,14 C -6.268,14 0,7.732 0,0"
         style="fill:#ffcc00;fill-opacity:1;fill-rule:nonzero;stroke:none"
         id="path50686" />
    </g>
    <g
       id="g50688"
       transform="matrix(2.1680123,0,0,-2.1460991,-847.1582,4003.4801)">
      <g
         id="g50690" />
      <g
         id="g50702">
        <g
           clip-path="url(#clipPath50694)"
           id="g50700"
           style="opacity:0.5">
          <g
             transform="translate(422.0137,1847.9502)"
             id="g50698">
            <path
               d="M 0,0 C -4.632,0 -8.727,-2.259 -11.275,-5.725 -8.955,-4.02 -6.1,-3 -3,-3 4.732,-3 11,-9.268 11,-17 11,-20.1 9.98,-22.955 8.275,-25.275 11.741,-22.727 14,-18.632 14,-14 14,-6.268 7.732,0 0,0"
               style="fill:#ffffff;fill-opacity:1;fill-rule:nonzero;stroke:none"
               id="path50696" />
          </g>
        </g>
      </g>
    </g>
    <g
       id="g50704"
       transform="matrix(2.1680123,0,0,-2.1460991,98.124816,67.641348)">
      <path
         sodipodi:nodetypes="ssssss"
         d="M 0,0 C 0,-5.1471634 -2.7776736,-9.6455531 -6.9158202,-12.077968 -8.993942,-13.299495 -11.415163,-14 -14,-14 c -7.732,0 -14,6.268 -14,14 0,7.732 6.268,14 14,14 C -6.268,14 0,7.732 0,0 Z"
         style="fill:none;stroke:#ffffff;stroke-width:2;stroke-linecap:round;stroke-linejoin:round;stroke-miterlimit:10;stroke-dasharray:none;stroke-opacity:1"
         id="path50706" />
    </g>
    <g
       id="g50708"
       transform="matrix(2.1680123,0,0,-2.1460991,67.742948,3.2372935)">
      <path
         d="M 0,0 V -7.998"
         style="fill:none;stroke:#ffffff;stroke-width:2;stroke-linecap:round;stroke-linejoin:round;stroke-miterlimit:10;stroke-dasharray:none;stroke-opacity:1"
         id="path50710" />
    </g>
    <g
       id="g50712"
       transform="matrix(2.1680123,0,0,-2.1460991,67.742948,114.83873)">
      <path
         d="M 0,0 V -7.997"
         style="fill:none;stroke:#ffffff;stroke-width:2;stroke-linecap:round;stroke-linejoin:round;stroke-miterlimit:10;stroke-dasharray:none;stroke-opacity:1"
         id="path50714" />
    </g>
    <g
       id="g50716"
       transform="matrix(2.1680123,0,0,-2.1460991,132.78332,67.618333)">
      <path
         d="M 0,0 H -7.998"
         style="fill:none;stroke:#ffffff;stroke-width:2;stroke-linecap:round;stroke-linejoin:round;stroke-miterlimit:10;stroke-dasharray:none;stroke-opacity:1"
         id="path50718" />
    </g>
    <g
       id="g50720"
       transform="matrix(2.1680123,0,0,-2.1460991,20.042339,67.618333)">
      <path
         d="M 0,0 H -7.998"
         style="fill:none;stroke:#ffffff;stroke-width:2;stroke-linecap:round;stroke-linejoin:round;stroke-miterlimit:10;stroke-dasharray:none;stroke-opacity:1"
         id="path50722" />
    </g>
    <g
       id="g50724"
       transform="matrix(2.1680123,0,0,-2.1460991,21.753113,22.093451)">
      <path
         d="M 0,0 5.654,-5.656"
         style="fill:none;stroke:#ffffff;stroke-width:2;stroke-linecap:round;stroke-linejoin:round;stroke-miterlimit:10;stroke-dasharray:none;stroke-opacity:1"
         id="path50726" />
    </g>
    <g
       id="g50728"
       transform="matrix(2.1680123,0,0,-2.1460991,101.46984,101.00653)">
      <path
         d="M 0,0 5.656,-5.656"
         style="fill:none;stroke:#ffffff;stroke-width:2;stroke-linecap:round;stroke-linejoin:round;stroke-miterlimit:10;stroke-dasharray:none;stroke-opacity:1"
         id="path50730" />
    </g>
    <g
       id="g50732"
       transform="matrix(2.1680123,0,0,-2.1460991,113.73276,22.093451)">
      <path
         d="M 0,0 -5.656,-5.655"
         style="fill:#ffffff;stroke:#ffffff;stroke-width:2;stroke-linecap:round;stroke-linejoin:round;stroke-miterlimit:10;stroke-dasharray:none;stroke-opacity:1"
         id="path50734" />
    </g>
    <g
       id="g50736"
       transform="matrix(2.1680123,0,0,-2.1460991,34.011714,101.00653)">
      <path
         d="M 0,0 -5.656,-5.656"
         style="fill:none;stroke:#ffffff;stroke-width:2;stroke-linecap:round;stroke-linejoin:round;stroke-miterlimit:10;stroke-dasharray:none;stroke-opacity:1"
         id="path50738" />
    </g>
  </g>
</svg>
