<?xml version="1.0" encoding="UTF-8" standalone="no"?>
<svg
   xmlns:dc="http://purl.org/dc/elements/1.1/"
   xmlns:cc="http://creativecommons.org/ns#"
   xmlns:rdf="http://www.w3.org/1999/02/22-rdf-syntax-ns#"
   xmlns:svg="http://www.w3.org/2000/svg"
   xmlns="http://www.w3.org/2000/svg"
   xmlns:sodipodi="http://sodipodi.sourceforge.net/DTD/sodipodi-0.dtd"
   xmlns:inkscape="http://www.inkscape.org/namespaces/inkscape"
   width="512"
   height="512"
   viewBox="0 0 135.46666 135.46666"
   version="1.1"
   id="svg31450"
   inkscape:version="1.0.2-2 (e86c870879, 2021-01-15)"
   sodipodi:docname="02d.svg">
  <defs
     id="defs31444">
    <clipPath
       id="clipPath51502"
       clipPathUnits="userSpaceOnUse">
      <path
         id="path51500"
         d="m 540.1,1581.9 h 11.896 v -11.95 H 540.1 Z" />
    </clipPath>
    <clipPath
       id="clipPath51518"
       clipPathUnits="userSpaceOnUse">
      <path
         id="path51516"
         d="M 536.01,1569.96 H 559 v -16 h -22.99 z" />
    </clipPath>
    <clipPath
       id="clipPath51534"
       clipPathUnits="userSpaceOnUse">
      <path
         id="path51532"
         d="M 549.259,1581.96 H 580 v -25.35 h -30.741 z" />
    </clipPath>
  </defs>
  <sodipodi:namedview
     id="base"
     pagecolor="#ffffff"
     bordercolor="#666666"
     borderopacity="1.0"
     inkscape:pageopacity="0.0"
     inkscape:pageshadow="2"
     inkscape:zoom="1.338598"
     inkscape:cx="240.13029"
     inkscape:cy="261.08971"
     inkscape:document-units="mm"
     inkscape:current-layer="layer1"
     inkscape:document-rotation="0"
     showgrid="false"
     units="px"
     inkscape:window-width="1920"
     inkscape:window-height="1012"
     inkscape:window-x="-8"
     inkscape:window-y="-8"
     inkscape:window-maximized="1" />
  <metadata
     id="metadata31447">
    <rdf:RDF>
      <cc:Work
         rdf:about="">
        <dc:format>image/svg+xml</dc:format>
        <dc:type
           rdf:resource="http://purl.org/dc/dcmitype/StillImage" />
        <dc:title />
      </cc:Work>
    </rdf:RDF>
  </metadata>
  <g
     inkscape:label="Слой 1"
     inkscape:groupmode="layer"
     id="layer1">
    <g
       transform="matrix(2.154459,0,0,-2.154459,110.74716,72.751468)"
       id="g51488">
      <path
         id="path51490"
         style="fill:#cdf0f0;fill-opacity:1;fill-rule:nonzero;stroke:none"
         d="m 0,0 c -1.959,4.695 -6.592,7.996 -11.998,7.996 -6.879,0 -12.494,-5.344 -12.957,-12.104 -0.348,0.047 -0.693,0.107 -1.057,0.107 -4.418,0 -8,-3.583 -8,-8 0,-4.419 3.582,-8 8,-8 h 26 c 5.522,0 9.998,4.479 9.998,10.002 C 9.986,-4.48 5.516,-0.006 0,0" />
    </g>
    <g
       transform="matrix(2.154459,0,0,-2.154459,71.911075,58.723139)"
       id="g51492">
      <path
         id="path51494"
         style="fill:#ffcc00;fill-opacity:1;fill-rule:nonzero;stroke:none"
         d="m 0,0 -0.001,0.002 c -0.274,5.28 -4.641,9.475 -9.987,9.475 -5.523,0 -10,-4.477 -10,-10 0,-5.523 4.477,-10 10,-10 1.088,0 2.135,0.173 3.115,0.495 H -6.86 C -6.361,-5.665 -3.72,-1.955 0,0" />
    </g>
    <g
       id="g51496"
       transform="matrix(2.154459,0,0,-2.154459,-1117.3407,3463.7857)">
      <g
         id="g51498" />
      <g
         id="g51510">
        <g
           style="opacity:0.100006"
           id="g51508"
           clip-path="url(#clipPath51502)">
          <g
             id="g51506"
             transform="translate(545.123,1570.4443)">
            <path
               id="path51504"
               style="fill:#000064;fill-opacity:1;fill-rule:nonzero;stroke:none"
               d="m 0,0 h 0.012 c 0.5,4.363 3.14,8.073 6.861,10.028 L 6.871,10.03 C 6.846,10.516 6.775,10.989 6.683,11.454 0.465,10.875 -4.46,5.915 -5.023,-0.309 c 0.618,-0.119 1.254,-0.186 1.908,-0.186 1.088,0 2.135,0.173 3.115,0.495" />
          </g>
        </g>
      </g>
    </g>
    <g
       id="g51512"
       transform="matrix(2.154459,0,0,-2.154459,-1117.3407,3463.7857)">
      <g
         id="g51514" />
      <g
         id="g51526">
        <g
           style="opacity:0.100006"
           id="g51524"
           clip-path="url(#clipPath51518)">
          <g
             id="g51522"
             transform="translate(545,1567.96)">
            <path
               id="path51520"
               style="fill:#000064;fill-opacity:1;fill-rule:nonzero;stroke:none"
               d="M 0,0 C 0,0.633 0.057,1.251 0.138,1.862 L 0.071,1.929 C 0.07,1.917 0.067,1.905 0.066,1.893 -0.281,1.94 -0.627,2 -0.99,2 c -4.418,0 -8,-3.583 -8,-8 0,-4.419 3.582,-8 8,-8 H 14 C 6.268,-14 0,-7.732 0,0" />
          </g>
        </g>
      </g>
    </g>
    <g
       id="g51528"
       transform="matrix(2.154459,0,0,-2.154459,-1117.3407,3463.7857)">
      <g
         id="g51530" />
      <g
         id="g51542">
        <g
           style="opacity:0.5"
           id="g51540"
           clip-path="url(#clipPath51534)">
          <g
             id="g51538"
             transform="translate(566.1719,1573.1851)">
            <path
               id="path51536"
               style="fill:#ffffff;fill-opacity:1;fill-rule:nonzero;stroke:none"
               d="m 0,0 c -1.345,-0.562 -2.546,-1.401 -3.52,-2.458 0.76,0.151 1.544,0.233 2.348,0.233 6.628,0 12,-5.373 12,-12 0,-0.804 -0.082,-1.588 -0.233,-2.348 1.983,1.828 3.233,4.439 3.233,7.348 0,5.304 -4.133,9.632 -9.352,9.967 C 4.475,0.743 4.475,0.743 4.475,0.744 4.267,0.757 4.061,0.776 3.85,0.776 1.891,5.471 -2.742,8.772 -8.148,8.772 c -3.383,0 -6.456,-1.297 -8.765,-3.414 1.208,0.26 2.455,0.417 3.741,0.417 C -7.958,5.775 -3.281,3.545 0,0" />
          </g>
        </g>
      </g>
    </g>
    <g
       transform="matrix(2.154459,0,0,-2.154459,57.104344,80.327825)"
       id="g51544">
      <path
         id="path51546"
         style="fill:none;stroke:#fffffd;stroke-width:2;stroke-linecap:round;stroke-linejoin:round;stroke-miterlimit:10;stroke-dasharray:none;stroke-opacity:1"
         d="m 0,0 c -0.98,-0.322 -2.027,-0.495 -3.115,-0.495 -5.524,0 -10,4.476 -10,10 0,5.523 4.476,10 10,10 5.345,0 9.713,-4.195 9.986,-9.475" />
    </g>
    <g
       transform="matrix(2.154459,0,0,-2.154459,50.397068,12.451824)"
       id="g51548">
      <path
         id="path51550"
         style="fill:#ffffff;stroke:#ffffff;stroke-width:2;stroke-linecap:round;stroke-linejoin:round;stroke-miterlimit:10;stroke-dasharray:none;stroke-opacity:1"
         d="M 0,0 V -6.02" />
    </g>
    <g
       transform="matrix(2.154459,0,0,-2.154459,15.946637,59.870815)"
       id="g51552">
      <path
         id="path51554"
         style="fill:none;stroke:#ffffff;stroke-width:2;stroke-linecap:round;stroke-linejoin:round;stroke-miterlimit:10;stroke-dasharray:none;stroke-opacity:1"
         d="M 0,0 H -6.02" />
    </g>
    <g
       transform="matrix(2.154459,0,0,-2.154459,16.868325,26.342047)"
       id="g51556">
      <path
         id="path51558"
         style="fill:#ffffff;stroke:#ffffff;stroke-width:2;stroke-linecap:round;stroke-linejoin:round;stroke-miterlimit:10;stroke-dasharray:none;stroke-opacity:1"
         d="M 0,0 4.256,-4.256" />
    </g>
    <g
       transform="matrix(2.154459,0,0,-2.154459,83.925873,26.342047)"
       id="g51560">
      <path
         id="path51562"
         style="fill:none;stroke:#ffffff;stroke-width:2;stroke-linecap:round;stroke-linejoin:round;stroke-miterlimit:10;stroke-dasharray:none;stroke-opacity:1"
         d="M 0,0 -4.256,-4.255" />
    </g>
    <g
       transform="matrix(2.154459,0,0,-2.154459,26.037262,84.228508)"
       id="g51564">
      <path
         id="path51566"
         style="fill:none;stroke:#ffffff;stroke-width:2;stroke-linecap:round;stroke-linejoin:round;stroke-miterlimit:10;stroke-dasharray:none;stroke-opacity:1"
         d="M 0,0 -4.258,-4.257" />
    </g>
    <g
       transform="matrix(2.154459,0,0,-2.154459,110.74716,72.751468)"
       id="g51568">
      <path
         id="path51570"
         style="fill:none;stroke:#ffffff;stroke-width:2;stroke-linecap:round;stroke-linejoin:round;stroke-miterlimit:10;stroke-dasharray:none;stroke-opacity:1"
         d="m 0,0 c -1.959,4.695 -6.592,7.996 -11.998,7.996 -6.879,0 -12.494,-5.344 -12.957,-12.104 -0.348,0.047 -0.693,0.107 -1.057,0.107 -4.418,0 -8,-3.583 -8,-8 0,-4.419 3.582,-8 8,-8 h 26 c 5.522,0 9.998,4.479 9.998,10.002 C 9.986,-4.48 5.516,-0.006 0,0 Z" />
    </g>
  </g>
</svg>
