<?xml version="1.0" encoding="UTF-8" standalone="no"?>
<svg
   xmlns:dc="http://purl.org/dc/elements/1.1/"
   xmlns:cc="http://creativecommons.org/ns#"
   xmlns:rdf="http://www.w3.org/1999/02/22-rdf-syntax-ns#"
   xmlns:svg="http://www.w3.org/2000/svg"
   xmlns="http://www.w3.org/2000/svg"
   xmlns:sodipodi="http://sodipodi.sourceforge.net/DTD/sodipodi-0.dtd"
   xmlns:inkscape="http://www.inkscape.org/namespaces/inkscape"
   width="512"
   height="512"
   viewBox="0 0 135.46666 135.46667"
   version="1.1"
   id="svg32187"
   inkscape:version="1.0.2-2 (e86c870879, 2021-01-15)"
   sodipodi:docname="02n.svg">
  <defs
     id="defs32181">
    <clipPath
       id="clipPath51646"
       clipPathUnits="userSpaceOnUse">
      <path
         id="path51644"
         d="m 782,1575.96 h 26.967 v -20 H 782 Z" />
    </clipPath>
    <clipPath
       id="clipPath51662"
       clipPathUnits="userSpaceOnUse">
      <path
         id="path51660"
         d="M 796.759,1589.96 H 836 v -30.35 h -39.241 z" />
    </clipPath>
    <clipPath
       id="clipPath51682"
       clipPathUnits="userSpaceOnUse">
      <path
         id="path51680"
         d="m 783.115,1589.96 h 20.808 v -15.59 h -20.808 z" />
    </clipPath>
  </defs>
  <sodipodi:namedview
     id="base"
     pagecolor="#ffffff"
     bordercolor="#666666"
     borderopacity="1.0"
     inkscape:pageopacity="0.0"
     inkscape:pageshadow="2"
     inkscape:zoom="1.3783899"
     inkscape:cx="280.03166"
     inkscape:cy="273.37111"
     inkscape:document-units="mm"
     inkscape:current-layer="layer1"
     inkscape:document-rotation="0"
     showgrid="false"
     units="px"
     inkscape:window-width="1920"
     inkscape:window-height="1012"
     inkscape:window-x="-8"
     inkscape:window-y="-8"
     inkscape:window-maximized="1" />
  <metadata
     id="metadata32184">
    <rdf:RDF>
      <cc:Work
         rdf:about="">
        <dc:format>image/svg+xml</dc:format>
        <dc:type
           rdf:resource="http://purl.org/dc/dcmitype/StillImage" />
        <dc:title></dc:title>
      </cc:Work>
    </rdf:RDF>
  </metadata>
  <g
     inkscape:label="Слой 1"
     inkscape:groupmode="layer"
     id="layer1">
    <g
       transform="matrix(2.1632098,0,0,-2.1632098,132.25112,78.193747)"
       id="g51636">
      <path
         id="path51638"
         style="fill:#cdf0f0;fill-opacity:1;fill-rule:nonzero;stroke:none"
         d="m 0,0 c 0,6.625 -5.373,12 -11.998,12 -0.391,0 -0.775,-0.022 -1.156,-0.059 -2.362,5.891 -8.114,10.057 -14.844,10.057 -8.164,0 -14.885,-6.117 -15.867,-14.014 -0.045,0.002 -0.086,0.015 -0.133,0.015 C -49.52,7.999 -54,3.52 -54,-2.002 c 0,-5.523 4.48,-9.999 10.002,-9.999 H -11.93 C -5.336,-11.962 0,-6.604 0,0" />
    </g>
    <g
       id="g51640"
       transform="matrix(2.1632098,0,0,-2.1632098,-1676.1922,3470.0264)">
      <g
         id="g51642" />
      <g
         id="g51654">
        <g
           style="opacity:0.100006"
           id="g51652"
           clip-path="url(#clipPath51646)">
          <g
             id="g51650"
             transform="translate(792,1572.9585)">
            <path
               id="path51648"
               style="fill:#000064;fill-opacity:1;fill-rule:nonzero;stroke:none"
               d="M 0,0 C 0,0.967 0.098,1.909 0.253,2.831 L 0,3 -0.001,3.002 C -5.521,3 -10,-1.479 -10,-7 c 0,-5.522 4.48,-9.999 10.002,-9.999 H 16.967 C 7.594,-16.98 0,-9.378 0,0" />
          </g>
        </g>
      </g>
    </g>
    <g
       id="g51656"
       transform="matrix(2.1632098,0,0,-2.1632098,-1676.1922,3470.0264)">
      <g
         id="g51658" />
      <g
         id="g51670">
        <g
           style="opacity:0.5"
           id="g51668"
           clip-path="url(#clipPath51662)">
          <g
             id="g51666"
             transform="translate(821.771,1579.7446)">
            <path
               id="path51664"
               style="fill:#ffffff;fill-opacity:1;fill-rule:nonzero;stroke:none"
               d="m 0,0 -0.062,-0.012 z m 14.229,-11.785 c 0,6.628 -5.373,12 -12,12 -0.368,0 -0.73,-0.021 -1.089,-0.054 -0.022,0 -0.044,-0.001 -0.065,-0.003 -2.036,5.08 -6.596,8.869 -12.128,9.819 -0.175,0.027 -0.349,0.057 -0.526,0.08 -0.234,0.032 -0.468,0.06 -0.705,0.082 -0.491,0.042 -0.985,0.075 -1.487,0.075 -0.527,0 -1.048,-0.03 -1.562,-0.078 -3.768,-0.366 -7.139,-2.047 -9.679,-4.568 1.681,0.412 3.432,0.646 5.241,0.646 6.534,0 12.386,-2.862 16.414,-7.386 -0.377,-0.199 -0.747,-0.411 -1.099,-0.647 0.228,0.01 0.454,0.034 0.685,0.034 8.284,0 15,-6.715 15,-15 0,-1.152 -0.142,-2.268 -0.388,-3.345 2.094,2.16 3.388,5.1 3.388,8.345" />
          </g>
        </g>
      </g>
    </g>
    <g
       transform="matrix(2.1632098,0,0,-2.1632098,37.365579,60.921813)"
       id="g51672">
      <path
         id="path51674"
         style="fill:#e6f0fa;fill-opacity:1;fill-rule:nonzero;stroke:none"
         d="m 0,0 c 0.811,6.53 5.554,11.832 11.786,13.475 -0.73,7.046 -6.682,12.536 -13.921,12.536 -0.277,0 -0.549,-0.025 -0.822,-0.04 0.525,-1.216 0.822,-2.553 0.822,-3.96 0,-5.524 -4.476,-10 -10,-10 -1.408,0 -2.744,0.297 -3.959,0.821 -0.015,-0.274 -0.041,-0.543 -0.041,-0.821 0,-6.56 4.512,-12.067 10.602,-13.584 l 0.004,-0.003 c 1.558,1.002 3.407,1.59 5.396,1.59 C -0.088,0.014 -0.045,0.001 0,0" />
    </g>
    <g
       id="g51676"
       transform="matrix(2.1632098,0,0,-2.1632098,-1676.1922,3470.0264)">
      <g
         id="g51678" />
      <g
         id="g51690">
        <g
           style="opacity:0.149994"
           id="g51688"
           clip-path="url(#clipPath51682)">
          <g
             id="g51686"
             transform="translate(786.6079,1574.3716)">
            <path
               id="path51684"
               style="fill:#000064;fill-opacity:1;fill-rule:nonzero;stroke:none"
               d="m 0,0 c 1.558,1.001 3.407,1.589 5.396,1.589 0.045,0 0.088,-0.012 0.133,-0.013 0.811,6.529 5.554,11.832 11.786,13.475 -0.009,0.09 -0.029,0.178 -0.041,0.268 -0.935,0.17 -1.895,0.269 -2.88,0.269 -8.162,0 -14.885,-6.117 -15.865,-14.012 -0.045,10e-4 -0.088,0.013 -0.133,0.013 -0.646,0 -1.277,-0.067 -1.89,-0.184 1.083,-0.613 2.251,-1.094 3.49,-1.403 z" />
          </g>
        </g>
      </g>
    </g>
    <g
       transform="matrix(2.1632098,0,0,-2.1632098,62.871981,31.842218)"
       id="g51692">
      <path
         id="path51694"
         style="fill:none;stroke:#ffffff;stroke-width:2;stroke-linecap:round;stroke-linejoin:round;stroke-miterlimit:10;stroke-dasharray:none;stroke-opacity:1"
         d="m 0,0 c -0.715,7.061 -6.676,12.568 -13.926,12.568 -0.277,0 -0.549,-0.025 -0.822,-0.04 0.525,-1.216 0.822,-2.552 0.822,-3.96 0,-5.524 -4.476,-10 -10,-10 -1.408,0 -2.744,0.297 -3.959,0.821 -0.015,-0.274 -0.041,-0.543 -0.041,-0.821 0,-6.56 4.512,-12.067 10.602,-13.584" />
    </g>
    <g
       transform="matrix(2.1632098,0,0,-2.1632098,132.25112,78.196991)"
       id="g51696">
      <path
         id="path51698"
         style="fill:none;stroke:#ffffff;stroke-width:2;stroke-linecap:round;stroke-linejoin:round;stroke-miterlimit:10;stroke-dasharray:none;stroke-opacity:1"
         d="m 0,0 c 0,6.626 -5.371,12 -11.998,12 -0.389,0 -0.773,-0.022 -1.154,-0.058 -2.362,5.891 -8.114,10.057 -14.846,10.057 -8.162,0 -14.885,-6.118 -15.865,-14.013 C -43.908,7.987 -43.951,8 -43.996,8 -49.52,8 -53.998,3.52 -53.998,-2.001 c 0,-5.523 4.478,-10 10.002,-10 h 32.068 C -5.334,-11.96 0,-6.604 0,0 Z" />
    </g>
  </g>
</svg>
