<?xml version="1.0" encoding="UTF-8" standalone="no"?>
<svg
   xmlns:dc="http://purl.org/dc/elements/1.1/"
   xmlns:cc="http://creativecommons.org/ns#"
   xmlns:rdf="http://www.w3.org/1999/02/22-rdf-syntax-ns#"
   xmlns:svg="http://www.w3.org/2000/svg"
   xmlns="http://www.w3.org/2000/svg"
   xmlns:sodipodi="http://sodipodi.sourceforge.net/DTD/sodipodi-0.dtd"
   xmlns:inkscape="http://www.inkscape.org/namespaces/inkscape"
   width="512"
   height="512"
   viewBox="0 0 135.46666 135.46667"
   version="1.1"
   id="svg33521"
   inkscape:version="1.0.2-2 (e86c870879, 2021-01-15)"
   sodipodi:docname="09d.svg">
  <defs
     id="defs33515">
    <clipPath
       id="clipPath51894"
       clipPathUnits="userSpaceOnUse">
      <path
         id="path51892"
         d="m 651,1465.96 h 32 v -22 h -32 z" />
    </clipPath>
    <clipPath
       id="clipPath51910"
       clipPathUnits="userSpaceOnUse">
      <path
         id="path51908"
         d="M 670.57,1479.96 H 711 v -31.56 h -40.43 z" />
    </clipPath>
  </defs>
  <sodipodi:namedview
     id="base"
     pagecolor="#ffffff"
     bordercolor="#666666"
     borderopacity="1.0"
     inkscape:pageopacity="0.0"
     inkscape:pageshadow="2"
     inkscape:zoom="0.97466887"
     inkscape:cx="202.78048"
     inkscape:cy="478.82251"
     inkscape:document-units="mm"
     inkscape:current-layer="layer1"
     inkscape:document-rotation="0"
     showgrid="false"
     units="px"
     inkscape:window-width="1920"
     inkscape:window-height="1012"
     inkscape:window-x="-8"
     inkscape:window-y="-8"
     inkscape:window-maximized="1" />
  <metadata
     id="metadata33518">
    <rdf:RDF>
      <cc:Work
         rdf:about="">
        <dc:format>image/svg+xml</dc:format>
        <dc:type
           rdf:resource="http://purl.org/dc/dcmitype/StillImage" />
        <dc:title></dc:title>
      </cc:Work>
    </rdf:RDF>
  </metadata>
  <g
     inkscape:label="Слой 1"
     inkscape:groupmode="layer"
     id="layer1">
    <g
       transform="matrix(2.1451931,0,0,-2.1451931,104.12328,24.765735)"
       id="g51884">
      <path
         id="path51886"
         style="fill:#cdf0f0;fill-opacity:1;fill-rule:nonzero;stroke:none"
         d="m 0,0 c -0.168,0 -0.332,-0.019 -0.498,-0.025 -2.66,5.915 -8.592,10.04 -15.498,10.04 -8.533,0 -15.576,-6.292 -16.795,-14.488 -1.016,0.31 -2.092,0.479 -3.207,0.479 -6.076,0 -11.002,-4.926 -11.002,-11 0,-6.075 4.926,-11.002 11.002,-11.002 H -0.117 0 c 7.178,0 12.998,5.816 12.998,12.997 C 12.998,-5.82 7.178,0 0,0" />
    </g>
    <g
       id="g51888"
       transform="matrix(2.1451931,0,0,-2.1451931,-1393.2215,3178.1055)">
      <g
         id="g51890" />
      <g
         id="g51902">
        <g
           style="opacity:0.100006"
           id="g51900"
           clip-path="url(#clipPath51894)">
          <g
             id="g51898"
             transform="translate(665,1461.96)">
            <path
               id="path51896"
               style="fill:#000064;fill-opacity:1;fill-rule:nonzero;stroke:none"
               d="M 0,0 C 0,1.192 0.121,2.356 0.342,3.483 L 0.182,3.53 C -0.826,3.835 -1.893,4.002 -2.998,4.002 -9.074,4.002 -14,-0.924 -14,-6.998 -14,-13.073 -9.074,-18 -2.998,-18 H 18 C 8.059,-18 0,-9.941 0,0" />
          </g>
        </g>
      </g>
    </g>
    <g
       id="g51904"
       transform="matrix(2.1451931,0,0,-2.1451931,-1393.2215,3178.1055)">
      <g
         id="g51906" />
      <g
         id="g51918">
        <g
           style="opacity:0.5"
           id="g51916"
           clip-path="url(#clipPath51910)">
          <g
             id="g51914"
             transform="translate(711,1456.96)">
            <path
               id="path51912"
               style="fill:#ffffff;fill-opacity:1;fill-rule:nonzero;stroke:none"
               d="m 0,0 c 0,7.18 -5.82,13 -13,13 -0.168,0 -0.331,-0.022 -0.498,-0.029 -2.243,4.987 -6.815,8.691 -12.333,9.733 -0.389,0.069 -0.778,0.136 -1.175,0.18 -0.085,0.01 -0.169,0.019 -0.254,0.028 C -27.833,22.967 -28.413,23 -29,23 c -1.084,0 -2.143,-0.104 -3.172,-0.288 -3.152,-0.597 -5.985,-2.072 -8.259,-4.151 1.435,0.281 2.914,0.439 4.431,0.439 6.727,0 12.769,-2.896 16.973,-7.5 -1.615,-0.851 -3.036,-2.021 -4.161,-3.441 C -21.569,8.657 -19.827,9 -18,9 -9.716,9 -3,2.284 -3,-6 -3,-6.875 -3.091,-7.728 -3.234,-8.562 -1.227,-6.273 0,-3.283 0,0" />
          </g>
        </g>
      </g>
    </g>
    <g
       transform="matrix(2.1451931,0,0,-2.1451931,104.12328,24.788905)"
       id="g51920">
      <path
         id="path51922"
         style="fill:none;stroke:#ffffff;stroke-width:2;stroke-linecap:round;stroke-linejoin:round;stroke-miterlimit:10;stroke-dasharray:none;stroke-opacity:1"
         d="m 0,0 c -0.168,0 -0.33,-0.02 -0.496,-0.025 -2.662,5.915 -8.594,10.04 -15.498,10.04 -8.535,0 -15.578,-6.293 -16.795,-14.488 -1.016,0.31 -2.092,0.479 -3.209,0.479 -6.074,0 -11,-4.926 -11,-11 0,-6.075 4.926,-11.002 11,-11.002 H -0.115 0 c 7.18,0 13,5.816 13,12.997 C 13,-5.821 7.18,0 0,0 Z" />
    </g>
    <g
       transform="matrix(2.1451931,0,0,-2.1451931,24.746867,97.693934)"
       id="g51924"
       style="fill:#ffffff">
      <path
         id="path51926"
         style="fill:#ffffff;stroke:#ffffff;stroke-width:2;stroke-linecap:round;stroke-linejoin:round;stroke-miterlimit:10;stroke-dasharray:none;stroke-opacity:1"
         d="M 0,0 -6.404,-8.001" />
    </g>
    <g
       transform="matrix(2.1451931,0,0,-2.1451931,50.489165,97.693934)"
       id="g51928"
       style="fill:#ffffff">
      <path
         id="path51930"
         style="fill:#ffffff;stroke:#ffffff;stroke-width:2;stroke-linecap:round;stroke-linejoin:round;stroke-miterlimit:10;stroke-dasharray:none;stroke-opacity:1"
         d="M 0,0 -12.809,-15.997" />
    </g>
    <g
       transform="matrix(2.1451931,0,0,-2.1451931,76.23578,97.693934)"
       id="g51932"
       style="fill:#ffffff">
      <path
         id="path51934"
         style="fill:#ffffff;stroke:#ffffff;stroke-width:2;stroke-linecap:round;stroke-linejoin:round;stroke-miterlimit:10;stroke-dasharray:none;stroke-opacity:1"
         d="M 0,0 -6.404,-8.001" />
    </g>
    <g
       transform="matrix(2.1451931,0,0,-2.1451931,101.97814,97.693934)"
       id="g51936"
       style="fill:#ffffff">
      <path
         id="path51938"
         style="fill:#ffffff;stroke:#ffffff;stroke-width:2;stroke-linecap:round;stroke-linejoin:round;stroke-miterlimit:10;stroke-dasharray:none;stroke-opacity:1"
         d="M 0,0 -12.809,-15.997" />
    </g>
  </g>
</svg>
