<?xml version="1.0" encoding="UTF-8" standalone="no"?>
<svg
   xmlns:dc="http://purl.org/dc/elements/1.1/"
   xmlns:cc="http://creativecommons.org/ns#"
   xmlns:rdf="http://www.w3.org/1999/02/22-rdf-syntax-ns#"
   xmlns:svg="http://www.w3.org/2000/svg"
   xmlns="http://www.w3.org/2000/svg"
   xmlns:sodipodi="http://sodipodi.sourceforge.net/DTD/sodipodi-0.dtd"
   xmlns:inkscape="http://www.inkscape.org/namespaces/inkscape"
   width="512"
   height="512"
   viewBox="0 0 135.46666 135.46667"
   version="1.1"
   id="svg35005"
   inkscape:version="1.0.2-2 (e86c870879, 2021-01-15)"
   sodipodi:docname="10n.svg">
  <defs
     id="defs34999">
    <clipPath
       id="clipPath54530"
       clipPathUnits="userSpaceOnUse">
      <path
         id="path54528"
         d="m 657,948.418 h 22 V 931.96 h -22 z" />
    </clipPath>
    <clipPath
       id="clipPath54546"
       clipPathUnits="userSpaceOnUse">
      <path
         id="path54544"
         d="m 669.891,959.957 h 33.106 v -23.97 h -33.106 z" />
    </clipPath>
    <clipPath
       id="clipPath54566"
       clipPathUnits="userSpaceOnUse">
      <path
         id="path54564"
         d="m 658.303,960.86 h 14.684 v -12.903 h -14.684 z" />
    </clipPath>
  </defs>
  <sodipodi:namedview
     id="base"
     pagecolor="#ffffff"
     bordercolor="#666666"
     borderopacity="1.0"
     inkscape:pageopacity="0.0"
     inkscape:pageshadow="2"
     inkscape:zoom="0.97466887"
     inkscape:cx="136.97657"
     inkscape:cy="395.76984"
     inkscape:document-units="mm"
     inkscape:current-layer="layer1"
     inkscape:document-rotation="0"
     showgrid="false"
     units="px"
     inkscape:window-width="1920"
     inkscape:window-height="1012"
     inkscape:window-x="-8"
     inkscape:window-y="-8"
     inkscape:window-maximized="1" />
  <metadata
     id="metadata35002">
    <rdf:RDF>
      <cc:Work
         rdf:about="">
        <dc:format>image/svg+xml</dc:format>
        <dc:type
           rdf:resource="http://purl.org/dc/dcmitype/StillImage" />
        <dc:title></dc:title>
      </cc:Work>
    </rdf:RDF>
  </metadata>
  <g
     inkscape:label="Слой 1"
     inkscape:groupmode="layer"
     id="layer1">
    <g
       transform="matrix(2.2698824,0,0,-2.2698824,102.51568,85.523582)"
       id="g54520">
      <path
         id="path54522"
         style="fill:#cdf0f0;fill-opacity:1;fill-rule:nonzero;stroke:none"
         d="m 0,0 c 5.619,0.032 10.164,4.442 10.164,9.883 0,5.455 -4.576,9.884 -10.221,9.884 -0.332,0 -0.66,-0.019 -0.984,-0.05 -2.012,4.852 -6.912,8.281 -12.647,8.281 -6.955,0 -12.679,-5.037 -13.515,-11.539 -0.039,0.001 -0.074,0.013 -0.113,0.013 -4.705,0 -8.52,-3.691 -8.52,-8.238 0,-4.548 3.815,-8.234 8.52,-8.234 z" />
    </g>
    <g
       id="g54524"
       transform="matrix(2.2698824,0,0,-2.2698824,-1470.1403,2200.9633)">
      <g
         id="g54526" />
      <g
         id="g54538">
        <g
           style="opacity:0.100006"
           id="g54536"
           clip-path="url(#clipPath54530)">
          <g
             id="g54534"
             transform="translate(665,945.96)">
            <path
               id="path54532"
               style="fill:#000064;fill-opacity:1;fill-rule:nonzero;stroke:none"
               d="M 0,0 C 0,0.84 0.087,1.658 0.229,2.457 -4.34,2.309 -8,-1.313 -8,-5.766 -8,-10.314 -4.186,-14 0.52,-14 H 14 C 6.268,-14 0,-7.732 0,0" />
          </g>
        </g>
      </g>
    </g>
    <g
       id="g54540"
       transform="matrix(2.2698824,0,0,-2.2698824,-1470.1403,2200.9633)">
      <g
         id="g54542" />
      <g
         id="g54554">
        <g
           style="opacity:0.5"
           id="g54552"
           clip-path="url(#clipPath54546)">
          <g
             id="g54550"
             transform="translate(702.9756,941.378)">
            <path
               id="path54548"
               style="fill:#ffffff;fill-opacity:1;fill-rule:nonzero;stroke:none"
               d="m 0,0 c 0.01,0.172 0.021,0.343 0.021,0.518 -0.029,5.429 -4.591,9.831 -10.217,9.831 -0.332,0 -0.66,-0.019 -0.985,-0.05 -0.027,0.064 -0.059,0.125 -0.087,0.189 l -0.024,-0.003 c -2.214,4.751 -7.006,8.054 -12.584,8.093 -3.561,-0.012 -6.791,-1.349 -9.209,-3.521 1.318,0.329 2.689,0.525 4.109,0.525 5.502,0 10.375,-2.629 13.481,-6.684 -0.663,-0.442 -1.277,-0.953 -1.817,-1.537 0.759,0.138 1.538,0.221 2.336,0.221 7.171,0 12.984,-5.806 12.999,-12.973 0.023,0.03 0.046,0.059 0.069,0.09 1.047,1.432 1.73,3.147 1.893,5.014 C -0.007,-0.192 -0.004,-0.096 0,0" />
          </g>
        </g>
      </g>
    </g>
    <g
       transform="matrix(2.2698824,0,0,-2.2698824,40.767835,48.16358)"
       id="g54556">
      <path
         id="path54558"
         style="fill:#e6f0fa;fill-opacity:1;fill-rule:nonzero;stroke:none"
         d="m 0,0 c 0.569,4.427 3.407,8.17 7.354,10.112 l -0.002,0.003 c -0.297,5.255 -4.653,9.426 -9.985,9.426 -0.256,0 -0.496,-0.057 -0.748,-0.076 0.404,-0.883 0.641,-1.857 0.641,-2.891 0,-3.865 -3.133,-6.999 -7,-6.999 -1.008,0 -1.961,0.222 -2.828,0.607 -0.014,-0.217 -0.065,-0.422 -0.065,-0.641 0,-5.42 4.311,-9.83 9.69,-9.996 l 0.003,-0.008 c 0.886,0.303 1.834,0.475 2.827,0.475 C -0.074,0.012 -0.039,0.001 0,0" />
    </g>
    <g
       id="g54560"
       transform="matrix(2.2698824,0,0,-2.2698824,-1470.1403,2200.9633)">
      <g
         id="g54562" />
      <g
         id="g54574">
        <g
           style="opacity:0.100006"
           id="g54572"
           clip-path="url(#clipPath54566)">
          <g
             id="g54570"
             transform="translate(662.6929,947.9571)">
            <path
               id="path54568"
               style="fill:#000064;fill-opacity:1;fill-rule:nonzero;stroke:none"
               d="m 0,0 c 0.886,0.302 1.834,0.475 2.827,0.475 0.039,0 0.074,-0.012 0.113,-0.013 0.569,4.427 3.407,8.171 7.353,10.112 l -10e-4,0.003 C 10.246,11.384 10.095,12.159 9.869,12.903 3.647,12.204 -1.289,7.462 -2.06,1.462 -2.099,1.463 -2.134,1.475 -2.173,1.475 -2.941,1.475 -3.682,1.368 -4.39,1.183 -3.074,0.481 -1.587,0.056 -0.003,0.007 Z" />
          </g>
        </g>
      </g>
    </g>
    <g
       transform="matrix(2.2698824,0,0,-2.2698824,36.05492,96.066115)"
       id="g54576">
      <path
         id="path54578"
         style="fill:none;stroke:#ffffff;stroke-width:2;stroke-linecap:round;stroke-linejoin:round;stroke-miterlimit:10;stroke-dasharray:none;stroke-opacity:1"
         d="M 0,0 -6.404,-8.001" />
    </g>
    <g
       transform="matrix(2.2698824,0,0,-2.2698824,58.75376,96.066115)"
       id="g54580">
      <path
         id="path54582"
         style="fill:none;stroke:#ffffff;stroke-width:2;stroke-linecap:round;stroke-linejoin:round;stroke-miterlimit:10;stroke-dasharray:none;stroke-opacity:1"
         d="M 0,0 -12.809,-15.997" />
    </g>
    <g
       transform="matrix(2.2698824,0,0,-2.2698824,81.452601,96.066115)"
       id="g54584">
      <path
         id="path54586"
         style="fill:none;stroke:#ffffff;stroke-width:2;stroke-linecap:round;stroke-linejoin:round;stroke-miterlimit:10;stroke-dasharray:none;stroke-opacity:1"
         d="M 0,0 -6.404,-8.001" />
    </g>
    <g
       transform="matrix(2.2698824,0,0,-2.2698824,104.15138,96.066115)"
       id="g54588">
      <path
         id="path54590"
         style="fill:none;stroke:#ffffff;stroke-width:2;stroke-linecap:round;stroke-linejoin:round;stroke-miterlimit:10;stroke-dasharray:none;stroke-opacity:1"
         d="M 0,0 -12.809,-15.997" />
    </g>
    <g
       transform="matrix(2.2698824,0,0,-2.2698824,102.51568,85.523582)"
       id="g54592">
      <path
         id="path54594"
         style="fill:none;stroke:#ffffff;stroke-width:2;stroke-linecap:round;stroke-linejoin:round;stroke-miterlimit:10;stroke-dasharray:none;stroke-opacity:1"
         d="m 0,0 c 5.619,0.032 10.164,4.444 10.164,9.883 0,5.456 -4.576,9.884 -10.221,9.884 -0.332,0 -0.66,-0.019 -0.984,-0.05 -2.012,4.852 -6.912,8.281 -12.647,8.281 -6.955,0 -12.679,-5.037 -13.515,-11.539 -0.039,0.001 -0.074,0.013 -0.113,0.013 -4.705,0 -8.52,-3.691 -8.52,-8.238 0,-4.548 3.815,-8.234 8.52,-8.234 z" />
    </g>
    <g
       transform="matrix(2.2698824,0,0,-2.2698824,57.455162,25.205309)"
       id="g54596">
      <path
         id="path54598"
         style="fill:none;stroke:#ffffff;stroke-width:2;stroke-linecap:round;stroke-linejoin:round;stroke-miterlimit:10;stroke-dasharray:none;stroke-opacity:1"
         d="m 0,0 c -0.297,5.256 -4.652,9.427 -9.984,9.427 -0.256,0 -0.496,-0.058 -0.748,-0.075 0.404,-0.885 0.64,-1.858 0.64,-2.892 0,-3.865 -3.133,-6.999 -7,-6.999 -1.008,0 -1.961,0.222 -2.828,0.605 -0.014,-0.215 -0.064,-0.42 -0.064,-0.639 0,-5.42 4.31,-9.831 9.689,-9.996" />
    </g>
  </g>
</svg>
