<?xml version="1.0" encoding="UTF-8" standalone="no"?>
<svg
   xmlns:dc="http://purl.org/dc/elements/1.1/"
   xmlns:cc="http://creativecommons.org/ns#"
   xmlns:rdf="http://www.w3.org/1999/02/22-rdf-syntax-ns#"
   xmlns:svg="http://www.w3.org/2000/svg"
   xmlns="http://www.w3.org/2000/svg"
   xmlns:sodipodi="http://sodipodi.sourceforge.net/DTD/sodipodi-0.dtd"
   xmlns:inkscape="http://www.inkscape.org/namespaces/inkscape"
   width="512"
   height="512"
   viewBox="0 0 135.46666 135.46667"
   version="1.1"
   id="svg29776"
   inkscape:version="1.0.2-2 (e86c870879, 2021-01-15)"
   sodipodi:docname="13n.svg">
  <defs
     id="defs29770">
    <clipPath
       id="clipPath58006"
       clipPathUnits="userSpaceOnUse">
      <path
         id="path58004"
         d="m 776,1337.96 h 32 v -22 h -32 z" />
    </clipPath>
    <clipPath
       id="clipPath58022"
       clipPathUnits="userSpaceOnUse">
      <path
         id="path58020"
         d="M 795.57,1351.96 H 836 v -31.56 h -40.43 z" />
    </clipPath>
  </defs>
  <sodipodi:namedview
     id="base"
     pagecolor="#ffffff"
     bordercolor="#666666"
     borderopacity="1.0"
     inkscape:pageopacity="0.0"
     inkscape:pageshadow="2"
     inkscape:zoom="0.97466887"
     inkscape:cx="298.90931"
     inkscape:cy="154.48243"
     inkscape:document-units="mm"
     inkscape:current-layer="layer1"
     inkscape:document-rotation="0"
     showgrid="false"
     units="px"
     inkscape:window-width="1920"
     inkscape:window-height="1012"
     inkscape:window-x="-8"
     inkscape:window-y="-8"
     inkscape:window-maximized="1" />
  <metadata
     id="metadata29773">
    <rdf:RDF>
      <cc:Work
         rdf:about="">
        <dc:format>image/svg+xml</dc:format>
        <dc:type
           rdf:resource="http://purl.org/dc/dcmitype/StillImage" />
        <dc:title></dc:title>
      </cc:Work>
    </rdf:RDF>
  </metadata>
  <g
     inkscape:label="Слой 1"
     inkscape:groupmode="layer"
     id="layer1">
    <g
       transform="matrix(2.1491703,0,0,-2.1491703,104.52065,28.185561)"
       id="g57996">
      <path
         id="path57998"
         style="fill:#cdf0f0;fill-opacity:1;fill-rule:nonzero;stroke:none"
         d="m 0,0 c -0.168,0 -0.332,-0.019 -0.498,-0.025 -2.66,5.915 -8.592,10.04 -15.498,10.04 -8.533,0 -15.576,-6.292 -16.795,-14.488 -1.016,0.31 -2.092,0.479 -3.207,0.479 -6.076,0 -11.002,-4.926 -11.002,-11 0,-6.075 4.926,-11.002 11.002,-11.002 H -0.117 0 c 7.178,0 12.998,5.816 12.998,12.997 C 12.998,-5.82 7.178,0 0,0" />
    </g>
    <g
       id="g58000"
       transform="matrix(2.1491703,0,0,-2.1491703,-1664.2466,2912.2779)">
      <g
         id="g58002" />
      <g
         id="g58014">
        <g
           style="opacity:0.100006"
           id="g58012"
           clip-path="url(#clipPath58006)">
          <g
             id="g58010"
             transform="translate(790,1333.96)">
            <path
               id="path58008"
               style="fill:#000064;fill-opacity:1;fill-rule:nonzero;stroke:none"
               d="M 0,0 C 0,1.192 0.121,2.356 0.342,3.483 L 0.182,3.53 C -0.826,3.835 -1.893,4.002 -2.998,4.002 -9.074,4.002 -14,-0.924 -14,-6.998 -14,-13.073 -9.074,-18 -2.998,-18 H 18 C 8.059,-18 0,-9.941 0,0" />
          </g>
        </g>
      </g>
    </g>
    <g
       id="g58016"
       transform="matrix(2.1491703,0,0,-2.1491703,-1664.2466,2912.2779)">
      <g
         id="g58018" />
      <g
         id="g58030">
        <g
           style="opacity:0.5"
           id="g58028"
           clip-path="url(#clipPath58022)">
          <g
             id="g58026"
             transform="translate(836,1328.96)">
            <path
               id="path58024"
               style="fill:#ffffff;fill-opacity:1;fill-rule:nonzero;stroke:none"
               d="m 0,0 c 0,7.18 -5.82,13 -13,13 -0.168,0 -0.331,-0.022 -0.498,-0.029 -2.243,4.987 -6.815,8.691 -12.333,9.733 -0.389,0.069 -0.778,0.136 -1.175,0.18 -0.085,0.01 -0.169,0.019 -0.254,0.028 C -27.833,22.967 -28.413,23 -29,23 c -1.084,0 -2.143,-0.104 -3.172,-0.288 -3.152,-0.597 -5.985,-2.072 -8.259,-4.151 1.435,0.281 2.914,0.439 4.431,0.439 6.727,0 12.769,-2.896 16.973,-7.5 -1.615,-0.851 -3.036,-2.021 -4.161,-3.441 C -21.569,8.657 -19.827,9 -18,9 -9.716,9 -3,2.284 -3,-6 -3,-6.875 -3.091,-7.728 -3.234,-8.562 -1.227,-6.273 0,-3.283 0,0" />
          </g>
        </g>
      </g>
    </g>
    <g
       transform="matrix(2.1491703,0,0,-2.1491703,37.899604,101.24813)"
       id="g58032">
      <path
         id="path58034"
         style="fill:none;stroke:#ffffff;stroke-width:2;stroke-linecap:round;stroke-linejoin:round;stroke-miterlimit:10;stroke-dasharray:none;stroke-opacity:1"
         d="M 0,0 V -4" />
    </g>
    <g
       transform="matrix(2.1491703,0,0,-2.1491703,42.193645,105.54643)"
       id="g58036">
      <path
         id="path58038"
         style="fill:none;stroke:#ffffff;stroke-width:2;stroke-linecap:round;stroke-linejoin:round;stroke-miterlimit:10;stroke-dasharray:none;stroke-opacity:1"
         d="M 0,0 H -3.998" />
    </g>
    <g
       transform="matrix(2.1491703,0,0,-2.1491703,72.2874,105.54728)"
       id="g58040">
      <path
         id="path58042"
         style="fill:none;stroke:#ffffff;stroke-width:2;stroke-linecap:round;stroke-linejoin:round;stroke-miterlimit:10;stroke-dasharray:none;stroke-opacity:1"
         d="M 0,0 H -4" />
    </g>
    <g
       transform="matrix(2.1491703,0,0,-2.1491703,67.993175,109.84566)"
       id="g58044">
      <path
         id="path58046"
         style="fill:none;stroke:#ffffff;stroke-width:2;stroke-linecap:round;stroke-linejoin:round;stroke-miterlimit:10;stroke-dasharray:none;stroke-opacity:1"
         d="M 0,0 -0.002,4" />
    </g>
    <g
       transform="matrix(2.1491703,0,0,-2.1491703,57.238909,127.04332)"
       id="g58048">
      <path
         id="path58050"
         style="fill:none;stroke:#ffffff;stroke-width:2;stroke-linecap:round;stroke-linejoin:round;stroke-miterlimit:10;stroke-dasharray:none;stroke-opacity:1"
         d="M 0,0 H -4.002" />
    </g>
    <g
       transform="matrix(2.1491703,0,0,-2.1491703,52.940601,131.33738)"
       id="g58052">
      <path
         id="path58054"
         style="fill:none;stroke:#ffffff;stroke-width:2;stroke-linecap:round;stroke-linejoin:round;stroke-miterlimit:10;stroke-dasharray:none;stroke-opacity:1"
         d="M 0,0 -0.002,4" />
    </g>
    <g
       transform="matrix(2.1491703,0,0,-2.1491703,85.178117,122.74497)"
       id="g58056">
      <path
         id="path58058"
         style="fill:none;stroke:#ffffff;stroke-width:2;stroke-linecap:round;stroke-linejoin:round;stroke-miterlimit:10;stroke-dasharray:none;stroke-opacity:1"
         d="M 0,0 V -3.998" />
    </g>
    <g
       transform="matrix(2.1491703,0,0,-2.1491703,89.476485,127.039)"
       id="g58060">
      <path
         id="path58062"
         style="fill:none;stroke:#ffffff;stroke-width:2;stroke-linecap:round;stroke-linejoin:round;stroke-miterlimit:10;stroke-dasharray:none;stroke-opacity:1"
         d="M 0,0 -4,-0.002" />
    </g>
    <g
       transform="matrix(2.1491703,0,0,-2.1491703,98.076384,101.24813)"
       id="g58064">
      <path
         id="path58066"
         style="fill:none;stroke:#ffffff;stroke-width:2;stroke-linecap:round;stroke-linejoin:round;stroke-miterlimit:10;stroke-dasharray:none;stroke-opacity:1"
         d="M 0,0 V -4" />
    </g>
    <g
       transform="matrix(2.1491703,0,0,-2.1491703,102.37043,105.54217)"
       id="g58068">
      <path
         id="path58070"
         style="fill:none;stroke:#ffffff;stroke-width:2;stroke-linecap:round;stroke-linejoin:round;stroke-miterlimit:10;stroke-dasharray:none;stroke-opacity:1"
         d="M 0,0 -3.998,-0.002" />
    </g>
    <g
       transform="matrix(2.1491703,0,0,-2.1491703,104.52065,28.208771)"
       id="g58072">
      <path
         id="path58074"
         style="fill:none;stroke:#ffffff;stroke-width:2;stroke-linecap:round;stroke-linejoin:round;stroke-miterlimit:10;stroke-dasharray:none;stroke-opacity:1"
         d="m 0,0 c -0.168,0 -0.33,-0.02 -0.496,-0.025 -2.662,5.915 -8.594,10.04 -15.498,10.04 -8.535,0 -15.578,-6.293 -16.795,-14.488 -1.016,0.31 -2.092,0.479 -3.209,0.479 -6.074,0 -11,-4.926 -11,-11 0,-6.075 4.926,-11 11,-11 h 35.883 c 0.039,0 0.076,-0.006 0.115,-0.006 7.18,0 13,5.82 13,13.001 C 13,-5.82 7.18,0 0,0 Z" />
    </g>
  </g>
</svg>
