<?xml version="1.0" encoding="UTF-8" standalone="no"?>
<svg
   xmlns:dc="http://purl.org/dc/elements/1.1/"
   xmlns:cc="http://creativecommons.org/ns#"
   xmlns:rdf="http://www.w3.org/1999/02/22-rdf-syntax-ns#"
   xmlns:svg="http://www.w3.org/2000/svg"
   xmlns="http://www.w3.org/2000/svg"
   xmlns:sodipodi="http://sodipodi.sourceforge.net/DTD/sodipodi-0.dtd"
   xmlns:inkscape="http://www.inkscape.org/namespaces/inkscape"
   width="512"
   height="512"
   viewBox="0 0 135.46666 135.46667"
   version="1.1"
   id="svg36497"
   inkscape:version="1.0.2-2 (e86c870879, 2021-01-15)"
   sodipodi:docname="50n.svg">
  <defs
     id="defs36491">
    <clipPath
       id="clipPath57774"
       clipPathUnits="userSpaceOnUse">
      <path
         id="path57772"
         d="m 1462,1710.46 h 6 v -6 h -6 z" />
    </clipPath>
    <clipPath
       id="clipPath57790"
       clipPathUnits="userSpaceOnUse">
      <path
         id="path57788"
         d="m 1464,1722.46 h 8.97 v -5.5 H 1464 Z" />
    </clipPath>
    <clipPath
       id="clipPath57806"
       clipPathUnits="userSpaceOnUse">
      <path
         id="path57804"
         d="m 1420,1710.46 h 31 v -6 h -31 z" />
    </clipPath>
    <clipPath
       id="clipPath57822"
       clipPathUnits="userSpaceOnUse">
      <path
         id="path57820"
         d="m 1446,1722.46 h 13.98 v -5.5 H 1446 Z" />
    </clipPath>
    <clipPath
       id="clipPath57838"
       clipPathUnits="userSpaceOnUse">
      <path
         id="path57836"
         d="m 1436,1722.46 h 5.98 v -6 H 1436 Z" />
    </clipPath>
    <clipPath
       id="clipPath57854"
       clipPathUnits="userSpaceOnUse">
      <path
         id="path57852"
         d="m 1443.99,1686.46 h 23.98 v -5.5 h -23.98 z" />
    </clipPath>
    <clipPath
       id="clipPath57870"
       clipPathUnits="userSpaceOnUse">
      <path
         id="path57868"
         d="m 1416,1698.46 h 60 v -5.5 h -60 z" />
    </clipPath>
    <clipPath
       id="clipPath57886"
       clipPathUnits="userSpaceOnUse">
      <path
         id="path57884"
         d="m 1428.99,1686.46 h 10.98 v -5.5 h -10.98 z" />
    </clipPath>
    <clipPath
       id="clipPath57902"
       clipPathUnits="userSpaceOnUse">
      <path
         id="path57900"
         d="m 1418,1722.46 h 12 v -6 h -12 z" />
    </clipPath>
  </defs>
  <sodipodi:namedview
     id="base"
     pagecolor="#ffffff"
     bordercolor="#666666"
     borderopacity="1.0"
     inkscape:pageopacity="0.0"
     inkscape:pageshadow="2"
     inkscape:zoom="1.3783899"
     inkscape:cx="272.25729"
     inkscape:cy="348.6207"
     inkscape:document-units="mm"
     inkscape:current-layer="layer1"
     inkscape:document-rotation="0"
     showgrid="false"
     units="px"
     inkscape:window-width="1920"
     inkscape:window-height="1012"
     inkscape:window-x="-8"
     inkscape:window-y="-8"
     inkscape:window-maximized="1" />
  <metadata
     id="metadata36494">
    <rdf:RDF>
      <cc:Work
         rdf:about="">
        <dc:format>image/svg+xml</dc:format>
        <dc:type
           rdf:resource="http://purl.org/dc/dcmitype/StillImage" />
        <dc:title></dc:title>
      </cc:Work>
    </rdf:RDF>
  </metadata>
  <g
     inkscape:label="Слой 1"
     inkscape:groupmode="layer"
     id="layer1">
    <g
       transform="matrix(2.162966,0,0,-2.162966,124.1128,71.599248)"
       id="g57748">
      <path
         id="path57750"
         style="fill:#e6f0fa;fill-opacity:1;fill-rule:nonzero;stroke:none"
         d="m 0,0 h -8 c -1.104,0 -2,0.896 -2,2 0,1.104 0.896,2 2,2 h -0.004 c 2.209,0 4,1.791 4,4 0,2.209 -1.791,4 -4,4 H -34 c -1.104,0 -2,0.896 -2,2 0,1.098 0.885,1.987 1.98,1.998 h 0.002 c 2.209,0 4,1.791 4,4 0,2.209 -1.791,4 -4,4 h -15.98 c -2.209,0 -4,-1.791 -4,-4 0,-2.209 1.791,-4 4,-4 h 6.018 c 1.095,-0.011 1.98,-0.9 1.98,-1.998 0,-1.104 -0.896,-2 -2,-2 h -3.998 c -2.209,0 -4,-1.791 -4,-4 0,-2.209 1.791,-4 4,-4 L -23,4 c 1.104,0 2,-0.896 2,-2 0,-1.104 -0.896,-2 -2,-2 h -29 c -2.209,0 -4,-1.791 -4,-4 0,-2.209 1.791,-4 4,-4 H 0 c 2.209,0 4,1.791 4,4 0,2.209 -1.791,4 -4,4" />
    </g>
    <g
       transform="matrix(2.162966,0,0,-2.162966,76.53188,36.996124)"
       id="g57752">
      <path
         id="path57754"
         style="fill:#e6f0fa;fill-opacity:1;fill-rule:nonzero;stroke:none"
         d="m 0,0 h 5.977 c 2.209,0 4,1.791 4,4 0,2.209 -1.791,4 -4,4 H 0 C -2.209,8 -4,6.209 -4,4 -4,1.791 -2.209,0 0,0" />
    </g>
    <g
       transform="matrix(2.162966,0,0,-2.162966,115.46526,36.996124)"
       id="g57756">
      <path
         id="path57758"
         style="fill:#e6f0fa;fill-opacity:1;fill-rule:nonzero;stroke:none"
         d="m 0,0 h 0.973 c 2.209,0 4,1.791 4,4 0,2.209 -1.791,4 -4,4 H 0 C -2.209,8 -4,6.209 -4,4 -4,1.791 -2.209,0 0,0" />
    </g>
    <g
       transform="matrix(2.162966,0,0,-2.162966,106.7457,97.554844)"
       id="g57760">
      <path
         id="path57762"
         style="fill:#e6f0fa;fill-opacity:1;fill-rule:nonzero;stroke:none"
         d="m 0,0 h -15.98 c -2.209,0 -4,-1.791 -4,-4 0,-2.209 1.791,-4 4,-4 H 0 c 2.209,0 4,1.791 4,4 0,2.209 -1.791,4 -4,4" />
    </g>
    <g
       transform="matrix(2.162966,0,0,-2.162966,46.182653,97.554844)"
       id="g57764">
      <path
         id="path57766"
         style="fill:#e6f0fa;fill-opacity:1;fill-rule:nonzero;stroke:none"
         d="m 0,0 h -2.977 c -2.209,0 -4,-1.791 -4,-4 0,-2.209 1.791,-4 4,-4 H 0 c 2.209,0 4,1.791 4,4 0,2.209 -1.791,4 -4,4" />
    </g>
    <g
       id="g57768"
       transform="matrix(2.162966,0,0,-2.162966,-3059.773,3750.7178)">
      <g
         id="g57770" />
      <g
         id="g57782">
        <g
           style="opacity:0.149994"
           id="g57780"
           clip-path="url(#clipPath57774)">
          <g
             id="g57778"
             transform="translate(1463.9961,1704.96)">
            <path
               id="path57776"
               style="fill:#000064;fill-opacity:1;fill-rule:nonzero;stroke:none"
               d="M 0,0 C 2.209,0 4,1.791 4,4 4,4.531 3.892,5.036 3.703,5.5 3.109,4.035 1.678,3 0,3 h 0.004 c -1.105,0 -2,-0.896 -2,-2 0,-0.601 0.27,-1.133 0.689,-1.5 C -0.955,-0.192 -0.5,0 0.004,0 Z" />
          </g>
        </g>
      </g>
    </g>
    <g
       id="g57784"
       transform="matrix(2.162966,0,0,-2.162966,-3059.773,3750.7178)">
      <g
         id="g57786" />
      <g
         id="g57798">
        <g
           style="opacity:0.149994"
           id="g57796"
           clip-path="url(#clipPath57790)">
          <g
             id="g57794"
             transform="translate(1468.002,1716.958)">
            <path
               id="path57792"
               style="fill:#000064;fill-opacity:1;fill-rule:nonzero;stroke:none"
               d="m 0,0 h 0.973 c 2.209,0 4,1.791 4,4 0,0.531 -0.109,1.036 -0.297,1.5 C 4.082,4.035 2.65,3 0.973,3 H 0 C -1.678,3 -3.109,4.035 -3.703,5.5 -3.892,5.036 -4,4.531 -4,4 -4,1.791 -2.209,0 0,0" />
          </g>
        </g>
      </g>
    </g>
    <g
       id="g57800"
       transform="matrix(2.162966,0,0,-2.162966,-3059.773,3750.7178)">
      <g
         id="g57802" />
      <g
         id="g57814">
        <g
           style="opacity:0.149994"
           id="g57812"
           clip-path="url(#clipPath57806)">
          <g
             id="g57810"
             transform="translate(1449,1707.96)">
            <path
               id="path57808"
               style="fill:#000064;fill-opacity:1;fill-rule:nonzero;stroke:none"
               d="m 0,0 h -24.998 c -1.678,0 -3.109,1.035 -3.703,2.5 -0.189,-0.464 -0.297,-0.969 -0.297,-1.5 0,-2.209 1.791,-4 4,-4 H 0 C 0.504,-3 0.959,-3.192 1.311,-3.5 1.729,-3.133 2,-2.601 2,-2 2,-0.896 1.104,0 0,0" />
          </g>
        </g>
      </g>
    </g>
    <g
       id="g57816"
       transform="matrix(2.162966,0,0,-2.162966,-3059.773,3750.7178)">
      <g
         id="g57818" />
      <g
         id="g57830">
        <g
           style="opacity:0.149994"
           id="g57828"
           clip-path="url(#clipPath57822)">
          <g
             id="g57826"
             transform="translate(1450.002,1716.958)">
            <path
               id="path57824"
               style="fill:#000064;fill-opacity:1;fill-rule:nonzero;stroke:none"
               d="m 0,0 h 5.977 c 2.209,0 4,1.791 4,4 0,0.531 -0.109,1.036 -0.297,1.5 C 9.086,4.035 7.654,3 5.977,3 H 0 C -1.678,3 -3.109,4.035 -3.703,5.5 -3.892,5.036 -4,4.531 -4,4 -4,1.791 -2.209,0 0,0" />
          </g>
        </g>
      </g>
    </g>
    <g
       id="g57832"
       transform="matrix(2.162966,0,0,-2.162966,-3059.773,3750.7178)">
      <g
         id="g57834" />
      <g
         id="g57846">
        <g
           style="opacity:0.149994"
           id="g57844"
           clip-path="url(#clipPath57838)">
          <g
             id="g57842"
             transform="translate(1437.9824,1719.958)">
            <path
               id="path57840"
               style="fill:#000064;fill-opacity:1;fill-rule:nonzero;stroke:none"
               d="m 0,0 h -0.002 c -1.096,-0.011 -1.98,-0.9 -1.98,-1.998 0,-0.601 0.271,-1.134 0.691,-1.501 0.347,0.303 0.793,0.494 1.289,0.499 L 0,-3 C 2.209,-3 4,-1.209 4,1 4,1.531 3.892,2.036 3.703,2.5 3.109,1.035 1.678,0 0,0" />
          </g>
        </g>
      </g>
    </g>
    <g
       id="g57848"
       transform="matrix(2.162966,0,0,-2.162966,-3059.773,3750.7178)">
      <g
         id="g57850" />
      <g
         id="g57862">
        <g
           style="opacity:0.149994"
           id="g57860"
           clip-path="url(#clipPath57854)">
          <g
             id="g57858"
             transform="translate(1463.9707,1683.96)">
            <path
               id="path57856"
               style="fill:#000064;fill-opacity:1;fill-rule:nonzero;stroke:none"
               d="m 0,0 h -15.98 c -1.678,0 -3.11,1.035 -3.704,2.5 -0.188,-0.464 -0.296,-0.969 -0.296,-1.5 0,-2.209 1.791,-4 4,-4 H 0 C 2.209,-3 4,-1.209 4,1 4,1.531 3.892,2.036 3.703,2.5 3.109,1.035 1.678,0 0,0" />
          </g>
        </g>
      </g>
    </g>
    <g
       id="g57864"
       transform="matrix(2.162966,0,0,-2.162966,-3059.773,3750.7178)">
      <g
         id="g57866" />
      <g
         id="g57878">
        <g
           style="opacity:0.149994"
           id="g57876"
           clip-path="url(#clipPath57870)">
          <g
             id="g57874"
             transform="translate(1472,1695.96)">
            <path
               id="path57872"
               style="fill:#000064;fill-opacity:1;fill-rule:nonzero;stroke:none"
               d="m 0,0 h -52 c -1.678,0 -3.109,1.035 -3.703,2.5 C -55.892,2.036 -56,1.531 -56,1 c 0,-2.209 1.791,-4 4,-4 H 0 C 2.209,-3 4,-1.209 4,1 4,1.531 3.892,2.036 3.703,2.5 3.109,1.035 1.678,0 0,0" />
          </g>
        </g>
      </g>
    </g>
    <g
       id="g57880"
       transform="matrix(2.162966,0,0,-2.162966,-3059.773,3750.7178)">
      <g
         id="g57882" />
      <g
         id="g57894">
        <g
           style="opacity:0.149994"
           id="g57892"
           clip-path="url(#clipPath57886)">
          <g
             id="g57890"
             transform="translate(1435.9707,1683.96)">
            <path
               id="path57888"
               style="fill:#000064;fill-opacity:1;fill-rule:nonzero;stroke:none"
               d="M 0,0 H -2.977 C -4.654,0 -6.086,1.035 -6.68,2.5 -6.868,2.036 -6.977,1.531 -6.977,1 c 0,-2.209 1.791,-4 4,-4 H 0 C 2.209,-3 4,-1.209 4,1 4,1.531 3.892,2.036 3.703,2.5 3.109,1.035 1.678,0 0,0" />
          </g>
        </g>
      </g>
    </g>
    <g
       id="g57896"
       transform="matrix(2.162966,0,0,-2.162966,-3059.773,3750.7178)">
      <g
         id="g57898" />
      <g
         id="g57910">
        <g
           style="opacity:0.149994"
           id="g57908"
           clip-path="url(#clipPath57902)">
          <g
             id="g57906"
             transform="translate(1422.002,1716.958)">
            <path
               id="path57904"
               style="fill:#000064;fill-opacity:1;fill-rule:nonzero;stroke:none"
               d="m 0,0 h 6.018 c 0.496,-0.005 0.942,-0.196 1.289,-0.499 0.42,0.367 0.691,0.9 0.691,1.501 C 7.998,2.1 7.113,2.989 6.018,3 H 0 C -1.678,3 -3.109,4.035 -3.703,5.5 -3.892,5.036 -4,4.531 -4,4 -4,1.791 -2.209,0 0,0" />
          </g>
        </g>
      </g>
    </g>
    <g
       transform="matrix(2.162966,0,0,-2.162966,124.1128,71.599248)"
       id="g57912">
      <path
         id="path57914"
         style="fill:none;stroke:#ffffff;stroke-width:2;stroke-linecap:round;stroke-linejoin:round;stroke-miterlimit:10;stroke-dasharray:none;stroke-opacity:1"
         d="m 0,0 h -8 c -1.104,0 -2,0.896 -2,2 0,1.104 0.896,2 2,2 h -0.004 c 2.209,0 4,1.791 4,4 0,2.209 -1.791,4 -4,4 H -34 c -1.104,0 -2,0.896 -2,2 0,1.098 0.885,1.987 1.98,1.998 h 0.002 c 2.209,0 4,1.791 4,4 0,2.209 -1.791,4 -4,4 h -15.98 c -2.209,0 -4,-1.791 -4,-4 0,-2.209 1.791,-4 4,-4 h 6.018 c 1.095,-0.011 1.98,-0.9 1.98,-1.998 0,-1.104 -0.896,-2 -2,-2 h -3.998 c -2.209,0 -4,-1.791 -4,-4 0,-2.209 1.791,-4 4,-4 L -23,4 c 1.104,0 2,-0.896 2,-2 0,-1.104 -0.896,-2 -2,-2 h -29 c -2.209,0 -4,-1.791 -4,-4 0,-2.209 1.791,-4 4,-4 H 0 c 2.209,0 4,1.791 4,4 0,2.209 -1.791,4 -4,4 z" />
    </g>
    <g
       transform="matrix(2.162966,0,0,-2.162966,76.53188,36.996124)"
       id="g57916">
      <path
         id="path57918"
         style="fill:none;stroke:#ffffff;stroke-width:2;stroke-linecap:round;stroke-linejoin:round;stroke-miterlimit:10;stroke-dasharray:none;stroke-opacity:1"
         d="m 0,0 h 5.977 c 2.209,0 4,1.791 4,4 0,2.209 -1.791,4 -4,4 H 0 C -2.209,8 -4,6.209 -4,4 -4,1.791 -2.209,0 0,0 Z" />
    </g>
    <g
       transform="matrix(2.162966,0,0,-2.162966,115.46526,36.996124)"
       id="g57920">
      <path
         id="path57922"
         style="fill:none;stroke:#ffffff;stroke-width:2;stroke-linecap:round;stroke-linejoin:round;stroke-miterlimit:10;stroke-dasharray:none;stroke-opacity:1"
         d="m 0,0 h 0.973 c 2.209,0 4,1.791 4,4 0,2.209 -1.791,4 -4,4 H 0 C -2.209,8 -4,6.209 -4,4 -4,1.791 -2.209,0 0,0 Z" />
    </g>
    <g
       transform="matrix(2.162966,0,0,-2.162966,106.7457,97.554844)"
       id="g57924">
      <path
         id="path57926"
         style="fill:none;stroke:#ffffff;stroke-width:2;stroke-linecap:round;stroke-linejoin:round;stroke-miterlimit:10;stroke-dasharray:none;stroke-opacity:1"
         d="m 0,0 h -15.98 c -2.209,0 -4,-1.791 -4,-4 0,-2.209 1.791,-4 4,-4 H 0 c 2.209,0 4,1.791 4,4 0,2.209 -1.791,4 -4,4 z" />
    </g>
    <g
       transform="matrix(2.162966,0,0,-2.162966,46.182653,97.554844)"
       id="g57928">
      <path
         id="path57930"
         style="fill:none;stroke:#ffffff;stroke-width:2;stroke-linecap:round;stroke-linejoin:round;stroke-miterlimit:10;stroke-dasharray:none;stroke-opacity:1"
         d="m 0,0 h -2.977 c -2.209,0 -4,-1.791 -4,-4 0,-2.209 1.791,-4 4,-4 H 0 c 2.209,0 4,1.791 4,4 0,2.209 -1.791,4 -4,4 z" />
    </g>
  </g>
</svg>
