<svg xmlns="http://www.w3.org/2000/svg" width="1792" fill="#FFFFFF" height="1792" xmlns:v="https://vecta.io/nano"><path d="M831.093 1724.117L295.507 117.053q-15.063-43.525 18.418-77.003 4.185-4.185 14.23-10.88 22.6-14.228 48.546-10.878 25.947 3.349 44.36 21.764l482.082 482.137 482.137-482.082q18.415-18.413 44.362-21.759 25.947-3.347 48.545 10.884 22.598 14.23 31.803 38.504 9.206 24.273.834 49.383L975.056 1724.125q-5.023 16.74-18.416 30.131-22.6 22.598-53.569 21.759-24.273.836-44.36-13.395-20.087-14.23-27.619-38.503z"/></svg>