<svg xmlns="http://www.w3.org/2000/svg" height="512" viewBox="0 0 24 24" width="512" xmlns:v="https://vecta.io/nano"><path d="M21.5 20h-14a.5.5 0 0 1-.365-.159l-7-7.5a.5.5 0 0 1 0-.683l7-7.5A.5.5 0 0 1 7.5 4h14C22.879 4 24 5.122 24 6.5v11c0 1.378-1.121 2.5-2.5 2.5zM7.717 19H21.5a1.5 1.5 0 0 0 1.5-1.5v-11A1.5 1.5 0 0 0 21.5 5H7.717l-6.533 7zM19 16a.5.5 0 0 1-.354-.146l-7-7a.5.5 0 0 1 .707-.707l7 7A.5.5 0 0 1 19 16z"/><path d="M12 16a.5.5 0 0 1-.354-.853l7-7a.5.5 0 0 1 .707.707l-7 7A.5.5 0 0 1 12 16z"/></svg>