<svg xmlns="http://www.w3.org/2000/svg" width="351" height="512" viewBox="0 0 92.869 135.467" xmlns:v="https://vecta.io/nano"><defs><clipPath id="A"><path d="M914 697.193h39.31V651.96H914z"/></clipPath></defs><path d="M89.444 85.243c-.272-3.707-.978-7.285-2.09-10.682C78.453 43.19 46.031 2.32 46.031 2.32S13.609 43.19 4.708 74.561c-1.109 3.397-1.817 6.975-2.09 10.682-.102 1.144-.168 2.273-.168 3.367 0 24.553 19.511 44.452 43.581 44.452s43.581-19.899 43.581-44.452c0-1.094-.063-2.223-.168-3.367" fill="#cdebf2"/><g clip-path="url(#A)" opacity=".1" transform="matrix(2.179036 0 0 -2.179036 -1989.1885 1553.7066)"><path d="M939 660.96c-11.046 0-20 9.133-20 20.4 0 .502.03 1.02.077 1.545a20.62 20.62 0 0 0 .959 4.903c.854 3.007 2.182 6.207 3.744 9.385-3.55-5.793-7.062-12.458-8.744-18.385a20.62 20.62 0 0 1-.959-4.903c-.047-.525-.077-1.043-.077-1.545 0-11.267 8.954-20.4 20-20.4 9.268 0 17.04 6.438 19.31 15.163-3.632-3.798-8.698-6.163-14.31-6.163" fill="#000064"/></g><path d="M76.538 85.124c0 8.424-6.829 15.253-15.253 15.253s-15.253-6.829-15.253-15.253 6.829-26.148 15.253-26.148S76.538 76.7 76.538 85.124" fill="#fff"/><path d="M89.444 85.243c-.272-3.707-.978-7.285-2.09-10.682C78.453 43.19 46.031 2.32 46.031 2.32S13.609 43.19 4.708 74.561c-1.109 3.397-1.817 6.975-2.09 10.682-.102 1.144-.168 2.273-.168 3.367 0 24.553 19.511 44.452 43.581 44.452s43.581-19.899 43.581-44.452c0-1.094-.063-2.223-.168-3.367z" fill="none" stroke="#fff" stroke-linejoin="round" stroke-miterlimit="10" stroke-width="4.358"/></svg>