<?xml version="1.0" encoding="UTF-8" standalone="no"?>
<svg
   xmlns:dc="http://purl.org/dc/elements/1.1/"
   xmlns:cc="http://creativecommons.org/ns#"
   xmlns:rdf="http://www.w3.org/1999/02/22-rdf-syntax-ns#"
   xmlns:svg="http://www.w3.org/2000/svg"
   xmlns="http://www.w3.org/2000/svg"
   xmlns:sodipodi="http://sodipodi.sourceforge.net/DTD/sodipodi-0.dtd"
   xmlns:inkscape="http://www.inkscape.org/namespaces/inkscape"
   width="351"
   height="512"
   viewBox="0 0 92.869158 135.46667"
   version="1.1"
   id="svg37354"
   inkscape:version="1.0.2-2 (e86c870879, 2021-01-15)"
   sodipodi:docname="humidity.svg">
  <defs
     id="defs37348">
    <clipPath
       id="clipPath53574"
       clipPathUnits="userSpaceOnUse">
      <path
         id="path53572"
         d="m 914,697.193 h 39.31 V 651.96 H 914 Z" />
    </clipPath>
  </defs>
  <sodipodi:namedview
     id="base"
     pagecolor="#ffffff"
     bordercolor="#666666"
     borderopacity="1.0"
     inkscape:pageopacity="0.0"
     inkscape:pageshadow="2"
     inkscape:zoom="1.2999549"
     inkscape:cx="242.3249"
     inkscape:cy="263.80211"
     inkscape:document-units="mm"
     inkscape:current-layer="layer1"
     inkscape:document-rotation="0"
     showgrid="false"
     units="px"
     inkscape:window-width="1920"
     inkscape:window-height="1012"
     inkscape:window-x="-8"
     inkscape:window-y="-8"
     inkscape:window-maximized="1" />
  <metadata
     id="metadata37351">
    <rdf:RDF>
      <cc:Work
         rdf:about="">
        <dc:format>image/svg+xml</dc:format>
        <dc:type
           rdf:resource="http://purl.org/dc/dcmitype/StillImage" />
        <dc:title></dc:title>
      </cc:Work>
    </rdf:RDF>
  </metadata>
  <g
     inkscape:label="Слой 1"
     inkscape:groupmode="layer"
     id="layer1">
    <g
       transform="matrix(2.1790358,0,0,-2.1790358,89.443716,85.242879)"
       id="g53564">
      <path
         id="path53566"
         style="fill:#cdebf2;fill-opacity:1;fill-rule:nonzero;stroke:none"
         d="m 0,0 c -0.125,1.701 -0.449,3.343 -0.959,4.902 -4.085,14.397 -18.964,33.153 -18.964,33.153 0,0 -14.879,-18.756 -18.964,-33.153 -0.509,-1.559 -0.834,-3.201 -0.959,-4.902 -0.047,-0.525 -0.077,-1.043 -0.077,-1.545 0,-11.268 8.954,-20.4 20,-20.4 11.046,0 20,9.132 20,20.4 C 0.077,-1.043 0.048,-0.525 0,0" />
    </g>
    <g
       id="g53568"
       transform="matrix(2.1790358,0,0,-2.1790358,-1989.1885,1553.7066)">
      <g
         id="g53570" />
      <g
         id="g53582">
        <g
           style="opacity:0.100006"
           id="g53580"
           clip-path="url(#clipPath53574)">
          <g
             id="g53578"
             transform="translate(939,660.96)">
            <path
               id="path53576"
               style="fill:#000064;fill-opacity:1;fill-rule:nonzero;stroke:none"
               d="m 0,0 c -11.046,0 -20,9.133 -20,20.4 0,0.502 0.03,1.02 0.077,1.545 0.125,1.701 0.449,3.343 0.959,4.903 0.854,3.007 2.182,6.207 3.744,9.385 -3.55,-5.793 -7.062,-12.458 -8.744,-18.385 -0.51,-1.56 -0.834,-3.202 -0.959,-4.903 C -24.97,12.42 -25,11.902 -25,11.4 -25,0.133 -16.046,-9 -5,-9 4.268,-9 12.04,-2.562 14.31,6.163 10.678,2.365 5.612,0 0,0" />
          </g>
        </g>
      </g>
    </g>
    <g
       transform="matrix(2.1790358,0,0,-2.1790358,76.537565,85.123664)"
       id="g53584">
      <path
         id="path53586"
         style="fill:#ffffff;fill-opacity:1;fill-rule:nonzero;stroke:none"
         d="m 0,0 c 0,-3.866 -3.134,-7 -7,-7 -3.866,0 -7,3.134 -7,7 0,3.866 3.134,12 7,12 3.866,0 7,-8.134 7,-12" />
    </g>
    <g
       transform="matrix(2.1790358,0,0,-2.1790358,89.443716,85.242879)"
       id="g53588">
      <path
         id="path53590"
         style="fill:none;stroke:#ffffff;stroke-width:2;stroke-linecap:round;stroke-linejoin:round;stroke-miterlimit:10;stroke-dasharray:none;stroke-opacity:1"
         d="m 0,0 c -0.125,1.701 -0.449,3.343 -0.959,4.902 -4.085,14.397 -18.964,33.153 -18.964,33.153 0,0 -14.879,-18.756 -18.964,-33.153 -0.509,-1.559 -0.834,-3.201 -0.959,-4.902 -0.047,-0.525 -0.077,-1.043 -0.077,-1.545 0,-11.268 8.954,-20.4 20,-20.4 11.046,0 20,9.132 20,20.4 C 0.077,-1.043 0.048,-0.525 0,0 Z" />
    </g>
  </g>
</svg>
