<svg width="24" height="24" xmlns="http://www.w3.org/2000/svg">

 <g>
  <title>background</title>
  <rect fill="none" id="canvas_background" height="402" width="582" y="-1" x="-1"/>
 </g>
 <g>
  <title>Layer 1</title>
  <path fill="#ffffff" id="svg_2" d="m12,0c-6,6 -10,8.5 -10,14s4.5,10 10,10s10,-4.5 10,-10s-4,-8 -10,-14zm0,22c-4.4,0 -8,-3.6 -8,-8s5,-8 8,-11c3,3 8,6.6 8,11s-3.6,8 -8,8z"/>
  <path fill="#ffffff" id="svg_3" d="m17,9l-0.7,0.7c1.1,1.1 1.8,2.6 1.8,4.2s-0.7,3.2 -1.8,4.2l0.7,0.9c1.3,-1.3 2,-3 2,-5s-0.8,-3.7 -2,-5z"/>
 </g>
</svg>