<svg xmlns="http://www.w3.org/2000/svg" width="351" height="512" viewBox="0 0 92.869 135.467" xmlns:v="https://vecta.io/nano"><defs><clipPath id="A"><path d="M914 697.193h39.31V651.96H914z"/></clipPath></defs><path d="M92.041 85.505c-.285-3.762-1.026-7.394-2.192-10.842-9.333-31.84-43.33-73.321-43.33-73.321S12.523 42.824 3.189 74.664A44.42 44.42 0 0 0 .998 85.505c-.107 1.161-.176 2.307-.176 3.417 0 24.92 20.459 45.116 45.698 45.116s45.698-20.196 45.698-45.116c0-1.11-.066-2.256-.176-3.417" fill="#cdebf2"/><g clip-path="url(#A)" opacity=".1" transform="matrix(2.2849 0 0 -2.2116 -2087.5479 1575.9141)"><path d="M939 660.96c-11.046 0-20 9.133-20 20.4 0 .502.03 1.02.077 1.545a20.62 20.62 0 0 0 .959 4.903c.854 3.007 2.182 6.207 3.744 9.385-3.55-5.793-7.062-12.458-8.744-18.385a20.62 20.62 0 0 1-.959-4.903c-.047-.525-.077-1.043-.077-1.545 0-11.267 8.954-20.4 20-20.4 9.268 0 17.04 6.438 19.31 15.163-3.632-3.798-8.698-6.163-14.31-6.163" fill="#000064"/></g><path d="M78.508 85.385c0 8.55-7.161 15.481-15.994 15.481s-15.994-6.931-15.994-15.481 7.161-26.539 15.994-26.539 15.994 17.989 15.994 26.539" fill="#fff"/></svg>