<svg xmlns="http://www.w3.org/2000/svg" width="367" height="512" xmlns:v="https://vecta.io/nano"><path fill="#fff" d="M230.712 202.432c40.689 28.895 138.566 99.994 132.248 110.936-6.302 10.916-116.302-38.037-161.871-58.913h0l14.212 241.607s-7.961 15.923-31.845 15.923-31.846-15.923-31.846-15.923l14.212-241.607h0C120.254 275.33 10.255 324.283 3.953 313.367c-6.318-10.942 91.56-82.041 132.248-110.936a48.05 48.05 0 0 0-.512 7.021c0 26.382 21.387 47.768 47.768 47.768s47.768-21.387 47.768-47.768a48.29 48.29 0 0 0-.512-7.021zm-17.329-30.213C208.687 122.39 196.072 2.457 183.457 2.457s-25.23 119.933-29.927 169.762a47.57 47.57 0 0 1 29.927-10.535 47.56 47.56 0 0 1 29.927 10.535zm-29.927 69.079c17.588 0 31.845-14.258 31.845-31.846s-14.258-31.845-31.845-31.845-31.846 14.258-31.846 31.845 14.258 31.846 31.846 31.846z"/></svg>