<?xml version="1.0" encoding="UTF-8" standalone="no"?>
<svg
   xmlns:dc="http://purl.org/dc/elements/1.1/"
   xmlns:cc="http://creativecommons.org/ns#"
   xmlns:rdf="http://www.w3.org/1999/02/22-rdf-syntax-ns#"
   xmlns:svg="http://www.w3.org/2000/svg"
   xmlns="http://www.w3.org/2000/svg"
   xmlns:sodipodi="http://sodipodi.sourceforge.net/DTD/sodipodi-0.dtd"
   xmlns:inkscape="http://www.inkscape.org/namespaces/inkscape"
   width="367"
   height="512"
   version="1.1"
   id="svg16"
   sodipodi:docname="wind.svg"
   inkscape:version="1.0.2-2 (e86c870879, 2021-01-15)">
  <metadata
     id="metadata22">
    <rdf:RDF>
      <cc:Work
         rdf:about="">
        <dc:format>image/svg+xml</dc:format>
        <dc:type
           rdf:resource="http://purl.org/dc/dcmitype/StillImage" />
        <dc:title></dc:title>
      </cc:Work>
    </rdf:RDF>
  </metadata>
  <defs
     id="defs20" />
  <sodipodi:namedview
     pagecolor="#ffffff"
     bordercolor="#666666"
     borderopacity="1"
     objecttolerance="10"
     gridtolerance="10"
     guidetolerance="10"
     inkscape:pageopacity="0"
     inkscape:pageshadow="2"
     inkscape:window-width="1920"
     inkscape:window-height="1012"
     id="namedview18"
     showgrid="false"
     inkscape:zoom="0.77915994"
     inkscape:cx="230.52501"
     inkscape:cy="303.16445"
     inkscape:window-x="-8"
     inkscape:window-y="-8"
     inkscape:window-maximized="1"
     inkscape:current-layer="svg16"
     inkscape:document-rotation="0" />
  <desc
     id="desc4" />
  <g
     id="g14"
     transform="matrix(17.173158,0,0,17.173158,-1765.6448,-7915.8949)"
     style="fill:#ffffff">
    <title
       id="title11">Layer 1</title>
    <path
       fill="#ffffff"
       id="wind-turbine"
       d="m 116.2487,472.73346 c 2.36932,1.68254 8.06874,5.82267 7.70087,6.45983 -0.36699,0.63565 -6.7723,-2.21492 -9.42581,-3.43052 v 0 l 0.82758,14.0689 c 0,0 -0.46359,0.92719 -1.85437,0.92719 -1.39078,0 -1.85438,-0.92719 -1.85438,-0.92719 l 0.82759,-14.0689 v 0 c -2.65351,1.2156 -9.05881,4.06617 -9.4258,3.43052 -0.36788,-0.63716 5.33155,-4.77729 7.70086,-6.45983 -0.0197,0.13343 -0.0298,0.26995 -0.0298,0.40884 0,1.53621 1.24536,2.78156 2.78157,2.78156 1.53621,0 2.78156,-1.24535 2.78156,-2.78156 0,-0.13889 -0.0102,-0.27541 -0.0298,-0.40884 z m -1.00908,-1.75929 c -0.2735,-2.90155 -1.00807,-9.8853 -1.74265,-9.8853 -0.73457,0 -1.46916,6.98375 -1.74265,9.8853 0.47684,-0.38376 1.08293,-0.61343 1.74265,-0.61343 0.65973,0 1.26581,0.22967 1.74265,0.61343 z m -1.74265,4.02251 c 1.02414,0 1.85437,-0.83023 1.85437,-1.85438 0,-1.02414 -0.83023,-1.85437 -1.85437,-1.85437 -1.02414,0 -1.85438,0.83023 -1.85438,1.85437 0,1.02415 0.83024,1.85438 1.85438,1.85438 z"
       style="fill:#ffffff;stroke-width:0.927187" />
  </g>
</svg>
